STARTFONT 2.1
COMMENT This font was automatically resized by bdfresize-1.4
COMMENT   mag_x = 3/5, mag_y = 3/5, blackness = 3
COMMENT HBF_START_FONT 1.0
COMMENT HBF_CODE_SCHEME CNS11643-1992-7
COMMENT
COMMENT   Plane 7 of CNS11643-1992
COMMENT
COMMENT	  Bitmaps provided by Central Bureau of Standards
COMMENT	  Ministry of Economy, Taiwan, ROC, March 9, 1994
COMMENT
FONT -CBS-Song-medium-r-normal-fantizi-24-240-75-75-c-240-CNS11643.1992-7
COMMENT
COMMENT An equivalent full X11R6 XLFD conforming font name is
COMMENT -CBS-Song-medium-r-normal-yitizi-40-400-75-75-c-400-CNS11643.1992.7-0
COMMENT which is formed from the first 15 properties listed in
COMMENT the STARTPROPERTIES section below.
COMMENT Any of these properties is optional, as in the simple HBF file.
COMMENT
SIZE 24 150 150
COMMENT HBF_BITMAP_BOUNDING_BOX 40 40 0 -6
FONTBOUNDINGBOX 24 24 0 -2
STARTPROPERTIES 23
FONTNAME_REGISTRY ""
FOUNDRY "CBS"
FAMILY_NAME "Song"
WEIGHT_NAME "medium"
SLANT "r"
SETWIDTH_NAME "normal"
ADD_STYLE_NAME "yitizi"
PIXEL_SIZE 24
POINT_SIZE 240
RESOLUTION_X 75
RESOLUTION_Y 75
SPACING "c"
AVERAGE_WIDTH 240
CHARS 1
CHARS 1
COPYRIGHT "1994, Central Bureau of Standards, Ministry of Economy, ROC"
WEIGHT 19329
RESOLUTION 110
X_HEIGHT 34
QUAD_WIDTH 40
FONT_ASCENT 22
FONT_DESCENT 2
DEFAULT_CHAR 32382
ENDPROPERTIES
CHARS 6540
COMMENT HBF_START_BYTE_2_RANGES 1
COMMENT HBF_BYTE_2_RANGE 0x21-0x7E
COMMENT HBF_END_BYTE_2_RANGES
COMMENT HBF_START_CODE_RANGES 1
COMMENT HBF_CODE_RANGE 0x2121-0x6655 cns4040.w7.bin 0
COMMENT HBF_END_CODE_RANGES
COMMENT 
COMMENT Yi4 Ti3 Zi4, characters in different ways of writing, meant the
COMMENT ancient writings instead of the simplified writings, defined by
COMMENT Ministry of Education, and disjoint from previous planes.  Number
COMMENT of strokes >= 15.  6539 characters, 2121--6655.
COMMENT 
COMMENT HBF_END_FONT
STARTCHAR C2121
ENCODING 8481
SWIDTH 400 0
DWIDTH 24 0
BBX 24 24 0 -2
BITMAP
001800
001804
7FFFFE
001800
083830
1FFFF0
1C1830
1FFFF0
001822
7FFFFF
600007
C00016
FFFFF4
00C300
00C310
3FC3F8
38821C
300018
308218
3FC3F8
00C300
00C304
01C70E
7FFFFE
ENDCHAR
STARTCHAR C2122
ENCODING 8482
SWIDTH 400 0
DWIDTH 24 0
BBX 24 24 0 -2
BITMAP
003000
001800
001806
FFFFFF
000000
07FFE0
060060
0600E0
07FFC0
040040
060060
0F00F0
19C19C
30E30E
E64E64
0E00E0
1D81D8
3CE3CE
E66E66
060060
060060
060060
060060
040040
ENDCHAR
STARTCHAR C2123
ENCODING 8483
SWIDTH 400 0
DWIDTH 24 0
BBX 24 24 0 -2
BITMAP
003000
001800
00180E
7FFFFE
00C0C0
018060
07FFF0
0FC018
060002
FFFFFF
0738C0
0718C0
3FFFFC
0618C0
3FFFFC
0618C0
0638C0
7FFFFC
061860
061860
7FDBFE
061860
061860
041040
ENDCHAR
STARTCHAR C2124
ENCODING 8484
SWIDTH 400 0
DWIDTH 24 0
BBX 24 24 0 -2
BITMAP
003000
001800
001802
FFFFFF
006000
00E010
3FFFF8
38071C
301F98
33F918
319918
30DA18
37FFF8
30DB18
3199D8
3718D8
301818
003002
FFFFFF
006000
01C0F0
03001C
0C0007
700003
ENDCHAR
STARTCHAR C2125
ENCODING 8485
SWIDTH 400 0
DWIDTH 24 0
BBX 24 24 0 -2
BITMAP
070300
070180
062186
067FFF
0CE426
0CCE30
1C0E30
1C7FFE
3C0E30
7C3FFC
7C0E30
DC0E32
1CFFFF
1C0C18
1C180F
1C3FFF
1CDC1A
1C9818
1C1FF8
1C1C18
1C1800
1C1FFC
1C0FFE
1803FE
ENDCHAR
STARTCHAR C2126
ENCODING 8486
SWIDTH 400 0
DWIDTH 24 0
BBX 24 24 0 -2
BITMAP
071838
071B3A
067BBE
067E7C
0C1C38
0C1C76
1C2263
1C43C1
3C4004
7C7FFE
7CE006
DCC014
1C7FF8
1C0638
1C0638
1C1638
1C0E38
1C0E38
1C0F38
1C0DB9
1C19B9
1C303F
1C601F
19C006
ENDCHAR
STARTCHAR C2127
ENCODING 8487
SWIDTH 400 0
DWIDTH 24 0
BBX 24 24 0 -2
BITMAP
070000
070007
067FFF
060360
0C2366
0C3B66
1C1F6C
1C4F7F
3C7FFF
7C6364
7C677E
DC7FFF
1C6366
1C6366
1C6366
1C7FFE
1C6760
1C6F70
1CCF78
1CDB6C
1C9367
1DA363
1D4360
180260
ENDCHAR
STARTCHAR C2128
ENCODING 8488
SWIDTH 400 0
DWIDTH 24 0
BBX 24 24 0 -2
BITMAP
0E0070
0E0070
0C0066
1C0063
180072
19FFFF
300C60
300C60
70EF64
70CC67
F0CC66
B1FFE6
300066
300336
31FFBE
301BBC
301A3C
31DF38
319838
319839
31D86D
333FEF
3601C7
340303
ENDCHAR
STARTCHAR C2129
ENCODING 8489
SWIDTH 400 0
DWIDTH 24 0
BBX 24 24 0 -2
BITMAP
0C0007
0C0307
0DFF07
1C6C37
186C37
19FFB7
31ED37
31ED37
71ED37
71FF37
F18137
B00237
30FF37
300037
300137
31FFB7
303837
309837
30DB07
319987
3119C7
3218BF
34181E
30100C
ENDCHAR
STARTCHAR C212a
ENCODING 8490
SWIDTH 400 0
DWIDTH 24 0
BBX 24 24 0 -2
BITMAP
070000
0701C0
06FFC2
06737F
0C7777
0C7F67
1C7367
1C7767
3C7F67
7C737F
7C7F66
DCFB00
1CC300
1C0018
1C03FC
1C1DC0
1C01C0
1C01C2
1C7FFF
1C01C0
1C01C0
1C01C0
1C01C6
183FFE
ENDCHAR
STARTCHAR C212b
ENCODING 8491
SWIDTH 400 0
DWIDTH 24 0
BBX 24 24 0 -2
BITMAP
0C01C0
0F71C0
0FF188
1FBFFC
1BBEDC
1BAECC
33EECC
33CEDC
73CFFC
73EECC
F3AECC
B3BECC
339FFC
3391E8
3391EC
3391EC
33B37A
33F37F
33A778
338661
338E61
338C7F
33983F
33301E
ENDCHAR
STARTCHAR C212c
ENCODING 8492
SWIDTH 400 0
DWIDTH 24 0
BBX 24 24 0 -2
BITMAP
070202
077F7F
060C18
061E3C
0C366C
0C6EDC
1C1B36
1C676E
3C0F1E
7C1B36
7C4346
DC070E
1C3E7C
1C0C18
1C0880
1C01E0
1C01C0
1C01CC
1C3FFE
1C01C0
1C01C0
1C01C0
1C01C7
187FFF
ENDCHAR
STARTCHAR C212d
ENCODING 8493
SWIDTH 400 0
DWIDTH 24 0
BBX 24 24 0 -2
BITMAP
0701C0
0701C0
060182
067FFF
0C2323
0C3E37
1C1C1C
1C180C
3C3FFF
7C780F
7CDC1C
DC1FFC
1C180C
1C1FFC
1C01E8
1C01C4
1C31C6
1C19CC
1C19D0
1C0320
1C0630
1C0C1F
1C180F
18E006
ENDCHAR
STARTCHAR C212e
ENCODING 8494
SWIDTH 400 0
DWIDTH 24 0
BBX 24 24 0 -2
BITMAP
0E0038
0E0038
0DFC30
1D9832
199BFF
199830
319830
319830
71F834
7171FE
F0700C
B0700C
31F00C
31F3FF
31F80C
31F18C
31F0CC
31F0CC
31F04C
31FC0C
33F00C
33C07C
310078
300030
ENDCHAR
STARTCHAR C212f
ENCODING 8495
SWIDTH 400 0
DWIDTH 24 0
BBX 24 24 0 -2
BITMAP
0701C0
0731C4
0639C7
0631C6
0C31C6
0C3FFE
1C2004
1C0380
3C0304
7C3FFE
7C31C6
DC31C6
1C3FFE
1C31C6
1C31C6
1C3FFE
1C37F8
1C036A
1C067F
1C0E79
1C1C61
1C387F
1C707F
19C01E
ENDCHAR
STARTCHAR C2130
ENCODING 8496
SWIDTH 400 0
DWIDTH 24 0
BBX 24 24 0 -2
BITMAP
0E7000
0E7067
0C667F
1CFF67
18C667
198C67
310A67
33FF67
719367
719367
F19367
B1FF67
319367
319367
319367
31FF67
318267
30007F
30006E
31526C
314960
336D60
322560
320060
ENDCHAR
STARTCHAR C2131
ENCODING 8497
SWIDTH 400 0
DWIDTH 24 0
BBX 24 24 0 -2
BITMAP
0E000E
0E0E7E
0D0FF0
1D8E30
18CE37
184FFF
300E30
300E20
70CFFE
77EFCC
F0CFCC
B0CFCC
318FFC
31EFCC
33EFCC
306DFC
30C9CC
30D9CC
30D9CC
3191FC
33E000
373FFF
300FFF
3003FC
ENDCHAR
STARTCHAR C2132
ENCODING 8498
SWIDTH 400 0
DWIDTH 24 0
BBX 24 24 0 -2
BITMAP
200080
30C0C4
3FEFFE
30C20C
30C30C
3FC19A
30CFFF
3000E0
3FE064
6C67FE
6C60E0
CC6060
8FE060
0C0040
01C380
01C300
018300
018300
038301
030301
060303
0C03FF
3003FF
E001FC
ENDCHAR
STARTCHAR C2133
ENCODING 8499
SWIDTH 400 0
DWIDTH 24 0
BBX 24 24 0 -2
BITMAP
001800
001820
0FFFF0
001800
001804
7FFFFE
00C600
00C601
018601
0607FF
1803FF
6001FC
060060
060060
7FC7FE
060060
060062
FFEFFF
1B81B8
1B81B9
33B339
33C73F
618E1F
C01806
ENDCHAR
STARTCHAR C2134
ENCODING 8500
SWIDTH 400 0
DWIDTH 24 0
BBX 24 24 0 -2
BITMAP
000800
1CCC0C
F3EFFE
E0ECCC
E0CCCC
E0CFFC
F0CCCC
FBCCCC
E0CCCC
E0CFFC
E0C1E0
E0C1C4
FFCFFE
1B0186
1B0186
1B0306
1B0306
3B060E
330CFC
331819
230003
63FFFF
C3FFFF
80FFFE
ENDCHAR
STARTCHAR C2135
ENCODING 8501
SWIDTH 400 0
DWIDTH 24 0
BBX 24 24 0 -2
BITMAP
000000
60000C
7FFFFE
60018C
61818C
60C30C
60666C
6FFFFC
63190C
6318CC
66186C
6C183C
67FFCC
676CCC
666CCC
6647CC
6784CC
677ECC
6646CC
6766CC
67FFCC
66007C
60003C
600008
ENDCHAR
STARTCHAR C2136
ENCODING 8502
SWIDTH 400 0
DWIDTH 24 0
BBX 24 24 0 -2
BITMAP
000380
000380
600306
3003FE
380300
18C30C
02FFFE
06C38C
04C30C
0CCECC
0CDB2C
18C30C
18CECC
10D82C
30FFFC
F0C38C
F00380
600306
31FFFF
302300
307330
30E31C
31830C
020304
ENDCHAR
STARTCHAR C2137
ENCODING 8503
SWIDTH 400 0
DWIDTH 24 0
BBX 24 24 0 -2
BITMAP
006038
006038
60D834
31FDFE
339DC6
1399C6
03F9E6
0399F6
0F99DE
0F99D6
0BF9C6
1B9BFF
1399C6
139DC6
37FDF6
F799DE
E339D6
6079C6
30D9C6
319986
331986
367B3E
303B1C
001208
ENDCHAR
STARTCHAR C2138
ENCODING 8504
SWIDTH 400 0
DWIDTH 24 0
BBX 24 24 0 -2
BITMAP
038007
039807
3FFC06
039CE6
039CE6
FFFEC6
0398C6
3FF8C6
0380C6
0384C6
FFFEC6
0B80C6
1BB0C6
338CC6
E386C6
3FF8C6
3398C6
3398C6
3FF806
339806
3FF806
20187E
000E3C
FFFE08
ENDCHAR
STARTCHAR C2139
ENCODING 8505
SWIDTH 400 0
DWIDTH 24 0
BBX 24 24 0 -2
BITMAP
000007
000E07
3FFE06
00C0E6
21CEE6
3FFEC6
30CCC6
37F8C6
30C0C6
37FCC6
3000C6
300CC6
3FFCC6
3380C6
37CCC6
3DD8C6
33F0C6
67F0C6
6DFC06
63EC06
C66606
DFE07E
81C03C
008008
ENDCHAR
STARTCHAR C213a
ENCODING 8506
SWIDTH 400 0
DWIDTH 24 0
BBX 24 24 0 -2
BITMAP
044007
07E007
746C06
67CCE6
644CE6
644CC6
67CCC6
644CC6
67CCC6
644CC6
600CC6
7EFCC6
46C8C6
06C0C6
46CCC6
7EFEC6
66CCC6
66CCC6
66CC06
66CC06
66CC06
C6CC7E
86CC3C
04C808
ENDCHAR
STARTCHAR C213b
ENCODING 8507
SWIDTH 400 0
DWIDTH 24 0
BBX 24 24 0 -2
BITMAP
106000
1FE006
1867FF
1860C7
1860C7
1FE0C7
0000C7
4498C7
FCFCC7
E498C7
E498C7
FCF8C7
C698C7
0380C7
0308C7
FFFCC7
0300C7
1341C7
1B3186
331B06
230B0E
4306FC
830C78
031830
ENDCHAR
STARTCHAR C213c
ENCODING 8508
SWIDTH 400 0
DWIDTH 24 0
BBX 24 24 0 -2
BITMAP
038007
038007
031806
03FCE6
0300E6
6318C6
7FFCC6
6318C6
67D8C6
6EF8C6
7318C6
67D8C6
6E78C6
7018C6
7FF8C6
4398C6
0380C6
031CC6
FFFC06
330006
3B6006
73387E
E3183C
830808
ENDCHAR
STARTCHAR C213d
ENCODING 8509
SWIDTH 400 0
DWIDTH 24 0
BBX 24 24 0 -2
BITMAP
307007
307007
366406
7FFEE6
6CD8E6
C68CC6
8704C6
0010C6
3FF8C6
3018C6
3018C6
3FF8C6
3018C6
3018C6
3FF8C6
3018C6
3018C6
3018C6
3FF806
080006
1C6006
30387E
60183C
C00808
ENDCHAR
STARTCHAR C213e
ENCODING 8510
SWIDTH 400 0
DWIDTH 24 0
BBX 24 24 0 -2
BITMAP
184007
18E007
3FF006
30C0E6
6198E6
FFFCC6
631CC6
6318C6
66F8C6
6B38C6
6318C6
66F8C6
6C38C6
6818C6
7FF8C6
0380C6
431CC6
7338C6
33A006
06C006
0C7006
18387E
30183C
E00808
ENDCHAR
STARTCHAR C213f
ENCODING 8511
SWIDTH 400 0
DWIDTH 24 0
BBX 24 24 0 -2
BITMAP
0C0007
1E0807
F1FC06
E0CCE6
E0CCE6
E8CCC6
ECCCC6
FECCC6
F7BCC6
6318C6
0600C6
FFFCC6
0CC0C6
0CC0C6
4CD8C6
FDFCC6
E018C6
E018C6
E49806
FEF806
0CC006
0CC07E
0DD83C
FFF808
ENDCHAR
STARTCHAR C2140
ENCODING 8512
SWIDTH 400 0
DWIDTH 24 0
BBX 24 24 0 -2
BITMAP
0E0800
0E0C0C
0C0FFE
0F8C0C
0C0C0C
0C0FFC
7F8C0C
618C0C
618C0C
618FFC
7F8800
618004
618FFE
6180C0
7F80C0
0C00C0
0C00C7
0CDFFF
FFC0C0
0C00C0
0C00C0
0C00C0
0C00C0
0C00C0
ENDCHAR
STARTCHAR C2141
ENCODING 8513
SWIDTH 400 0
DWIDTH 24 0
BBX 24 24 0 -2
BITMAP
001800
001808
001FFC
201808
3FFFFC
30C60C
3187CC
3303EC
240008
0FFFE0
1C0030
1FFFF0
1C0030
0FFFF0
000006
FFFFFF
001800
3FFFFC
30340C
30630C
3181CC
3600CC
3000FC
200018
ENDCHAR
STARTCHAR C2142
ENCODING 8514
SWIDTH 400 0
DWIDTH 24 0
BBX 24 24 0 -2
BITMAP
200000
300007
3FFFFF
303198
37FFFC
36318C
36318C
37319C
37FFF8
304008
36EE1C
37117C
36110C
36110C
37D17C
36130C
261A0C
660E0C
67CE7C
663B08
403180
C0E0FE
81807E
0E001C
ENDCHAR
STARTCHAR C2143
ENCODING 8515
SWIDTH 400 0
DWIDTH 24 0
BBX 24 24 0 -2
BITMAP
200000
300007
3FFFFF
30C1C0
34C9C0
36CDC0
37F9C0
34E9C4
30C1FE
36CD8C
34ED8C
3FFF8C
31828C
30C08C
3FFED8
318058
219878
61FC70
639C70
631878
4718CC
C6F98F
8CF307
186E00
ENDCHAR
STARTCHAR C2144
ENCODING 8516
SWIDTH 400 0
DWIDTH 24 0
BBX 24 24 0 -2
BITMAP
200000
300007
3FFFFF
301800
31B038
31FFFC
31FFF8
318018
31FFF8
300600
307630
33F760
3066E0
30C67E
33BE1E
360C04
200000
607600
626300
626128
466046
CE7FC3
8C3FE3
001FC1
ENDCHAR
STARTCHAR C2145
ENCODING 8517
SWIDTH 400 0
DWIDTH 24 0
BBX 24 24 0 -2
BITMAP
1C181C
1C181C
181818
181818
181818
181818
7EFE7E
181818
181818
181818
181818
181818
FEFE7F
383038
303038
303038
303030
303030
646436
666262
CEDF4F
F3FBF9
E2C361
004000
ENDCHAR
STARTCHAR C2146
ENCODING 8518
SWIDTH 400 0
DWIDTH 24 0
BBX 24 24 0 -2
BITMAP
003000
001800
001806
FFFFFF
000000
07FFE0
060060
0600E0
07FFC2
7FFFFF
600007
C00016
FFFFF8
00C600
10C630
1FC7F8
180038
180038
184038
3FE7F0
10C600
00C600
00E60C
7FFFFC
ENDCHAR
STARTCHAR C2147
ENCODING 8519
SWIDTH 400 0
DWIDTH 24 0
BBX 24 24 0 -2
BITMAP
003000
001800
001806
FFFFFF
08C320
1CC338
1CFF30
1C1830
1FFFF0
081820
60180C
7FFFFE
60300E
60706C
67FFEC
60C30C
6181FC
67FFEC
6B818C
63818C
63FF8C
61017C
60003C
600018
ENDCHAR
STARTCHAR C2148
ENCODING 8520
SWIDTH 400 0
DWIDTH 24 0
BBX 24 24 0 -2
BITMAP
300018
3FFFFC
301800
3FFFF0
380060
300060
3FFFE0
383860
30180C
3FFFFE
301000
001C00
231918
3F99FC
33998C
33998C
33999C
3F19F8
001808
3FFFFC
001800
001800
003807
FFFFFF
ENDCHAR
STARTCHAR C2149
ENCODING 8521
SWIDTH 400 0
DWIDTH 24 0
BBX 24 24 0 -2
BITMAP
001800
00180C
7FFFFE
001840
0E1860
0E18F0
1B3998
317F0C
60FF80
03D9FE
06187E
3C181C
E01800
3FFFF8
000010
1FFFF8
180038
19FF38
198338
198338
19FF38
180038
1FFFF8
180030
ENDCHAR
STARTCHAR C214a
ENCODING 8522
SWIDTH 400 0
DWIDTH 24 0
BBX 24 24 0 -2
BITMAP
000300
000180
0010C6
C63FFF
FF6307
E76186
E600C0
E63FFE
E60008
E6181C
E60C18
E60630
E60622
E67FFF
E60000
E6100C
E61FFE
FE180E
E6180C
401FFC
00180C
00180C
001FFC
00100C
ENDCHAR
STARTCHAR C214b
ENCODING 8523
SWIDTH 400 0
DWIDTH 24 0
BBX 24 24 0 -2
BITMAP
000300
000180
0010C6
C63FFF
FF6737
E76636
E63FFE
E60630
E61FFC
E60630
E60633
E67FFF
E60C1C
E6180F
E63FFF
E6EC1A
E60C18
FE0FF8
E60C71
400C23
000C02
000FFE
000FFE
0003FC
ENDCHAR
STARTCHAR C214c
ENCODING 8524
SWIDTH 400 0
DWIDTH 24 0
BBX 24 24 0 -2
BITMAP
000300
002186
003FFF
C66607
FFC636
E70FF8
E61C30
E63660
E6C3C0
E603E0
E6063E
E6180E
E67FFE
E60610
E60618
E60CFC
E63FCC
FE39C4
E601C8
403FFC
0001C0
0001C0
0001C6
007FFE
ENDCHAR
STARTCHAR C214d
ENCODING 8525
SWIDTH 400 0
DWIDTH 24 0
BBX 24 24 0 -2
BITMAP
000300
000180
0010C6
C63FFF
FF6366
E76660
E60C7E
E6181E
E62008
E61FFC
E61C1C
E6180C
E6180C
E61FFC
E619E8
E601C0
E601C6
FE3FFE
E619C0
4019CC
0031C6
0061C3
00C1C0
000180
ENDCHAR
STARTCHAR C214e
ENCODING 8526
SWIDTH 400 0
DWIDTH 24 0
BBX 24 24 0 -2
BITMAP
000218
00FFB8
0006E2
CCC646
FE6C6C
E63C30
E61818
E6300C
E66487
E6FEFB
E78ED8
E60ED8
E67EDC
E66D8E
E6E306
E6C408
EEFEFC
FE0E8C
E40E5C
400E78
000C70
00FCFF
0039CF
003707
ENDCHAR
STARTCHAR C214f
ENCODING 8527
SWIDTH 400 0
DWIDTH 24 0
BBX 24 24 0 -2
BITMAP
000034
000037
000033
CC0031
FEFFFF
E60030
E60030
E67F30
E60030
E67FB0
E60030
E64330
E67FB0
E66330
E67F38
E66338
EE6318
FE7F19
E46319
407F0D
00620F
00638F
00C187
0180C3
ENDCHAR
STARTCHAR C2150
ENCODING 8528
SWIDTH 400 0
DWIDTH 24 0
BBX 24 24 0 -2
BITMAP
000104
00798E
0071FF
CC7186
FE7186
E671FE
E6FD86
E67186
E67186
E671FE
E67000
E67002
E673FF
E67030
E67130
E671B0
EE71BE
FE7DB0
E479B0
41E3B0
0182F0
00867F
000C3F
00180C
ENDCHAR
STARTCHAR C2151
ENCODING 8529
SWIDTH 400 0
DWIDTH 24 0
BBX 24 24 0 -2
BITMAP
007060
007066
006063
CC67FF
FE6060
E663FE
E6FB66
E66366
E663FE
E66366
E66366
E663FE
E66366
E6637E
E6620C
E6600C
EE67FF
FE620C
E4638C
40618C
00600C
0060FC
006078
006030
ENDCHAR
STARTCHAR C2152
ENCODING 8530
SWIDTH 400 0
DWIDTH 24 0
BBX 24 24 0 -2
BITMAP
000000
000007
007FFF
C60364
FF377E
E73FFF
E63366
E63366
E63366
E63FFE
E601E0
E601C8
E61FFC
E601C0
E601C2
E67FFF
E60080
FE01E0
E601C8
401FFC
0001C0
0001C0
0001C7
007FFF
ENDCHAR
STARTCHAR C2153
ENCODING 8531
SWIDTH 400 0
DWIDTH 24 0
BBX 24 24 0 -2
BITMAP
007000
007038
0073FC
C5F9D8
FE71D8
EC71D8
EC71D8
EFFFD8
ECD9D8
ECD9D8
ECD9D8
ECAFD8
ED71D8
EE71D8
EC79D8
EDFDD8
EC71D8
FC71D8
E87198
407D19
03C319
01831F
00060F
000C06
ENDCHAR
STARTCHAR C2154
ENCODING 8532
SWIDTH 400 0
DWIDTH 24 0
BBX 24 24 0 -2
BITMAP
0001C0
0001C0
0001C2
C67FFF
FF01C0
E719DC
E61FFC
E6180C
E6180C
E61FFC
E60180
E600C6
E63FFE
E60438
E60630
E60322
E67FFF
FE01C0
E601C4
403FFE
0001C0
0001C0
0001C0
000180
ENDCHAR
STARTCHAR C2155
ENCODING 8533
SWIDTH 400 0
DWIDTH 24 0
BBX 24 24 0 -2
BITMAP
001870
001870
001866
CCFE67
FE3862
E61860
E6FE62
E6E7FF
E6C660
E6C660
E6FE64
E6C667
E6C666
E6E66C
E6FE6C
E6187C
EE1A38
FFFF38
E41838
401879
0018DD
00198F
001B07
001203
ENDCHAR
STARTCHAR C2156
ENCODING 8534
SWIDTH 400 0
DWIDTH 24 0
BBX 24 24 0 -2
BITMAP
0001C0
0001C0
0001C2
C67FFF
FF19C8
E71DCC
E61DDC
E613DA
E621F3
E643E0
E607F8
E61DDF
E639CF
E6C1C2
E6118C
E61FFE
E6180C
FE180C
E61FFC
40180C
00180C
00180C
001FFC
00100C
ENDCHAR
STARTCHAR C2157
ENCODING 8535
SWIDTH 400 0
DWIDTH 24 0
BBX 24 24 0 -2
BITMAP
003904
00398E
0031FF
CC3186
FE3D86
E6FDFE
E63186
E63186
E63186
E631FE
E63000
E63C02
E6F3FF
E7F030
E6F130
E631B0
EE31BE
FE31B0
E431B0
4033B0
0032F0
00F67F
00FC3F
00680C
ENDCHAR
STARTCHAR C2158
ENCODING 8536
SWIDTH 400 0
DWIDTH 24 0
BBX 24 24 0 -2
BITMAP
00000C
00FFFE
000C20
C61818
FF301C
E77FFC
E67984
E62184
E67FFC
E60180
E60183
E6FFFF
E60004
E6FFFE
E60C20
E61818
E6301C
FE7FFC
E67984
402184
007FFC
000180
000187
00FFFF
ENDCHAR
STARTCHAR C2159
ENCODING 8537
SWIDTH 400 0
DWIDTH 24 0
BBX 24 24 0 -2
BITMAP
000000
000007
00FFFF
C60300
FF260C
E77FFE
E6766C
E6766C
E6766C
E6766C
E6767C
E66048
E60002
E6FFFF
E60300
E6060C
E67FFE
FE766E
E6766C
40766C
00766C
00766C
00767C
006048
ENDCHAR
STARTCHAR C215a
ENCODING 8538
SWIDTH 400 0
DWIDTH 24 0
BBX 24 24 0 -2
BITMAP
00C018
3FE7FC
30E618
30C618
30C618
3FC7F8
30C410
000000
00C00C
7FEE1C
00C3B8
3FC0F0
00C1F8
00C30E
3FCE07
701808
71840C
6FC618
7803B0
6001E0
7001F0
7FC3FF
1FCE0F
003806
ENDCHAR
STARTCHAR C215b
ENCODING 8539
SWIDTH 400 0
DWIDTH 24 0
BBX 24 24 0 -2
BITMAP
00C018
3FE7FC
30E618
30C618
3FC7F8
300000
00000C
7FFFFE
00E000
00C060
0FFFF0
0C0070
0C0060
0FFFE0
0C0060
0C0060
0FFFE0
0C0060
0C0060
0FFFE0
010380
0780F8
1E003E
70000F
ENDCHAR
STARTCHAR C215c
ENCODING 8540
SWIDTH 400 0
DWIDTH 24 0
BBX 24 24 0 -2
BITMAP
000000
30C638
3FE7FC
30C618
30C618
3FC7F8
30C410
0000C0
07FFE0
0600E0
0600C0
0600C0
0600C0
07FFC0
000000
000000
60C60C
7FE7FE
60C60C
60C60C
60C60C
60C60C
7FC7FC
600600
ENDCHAR
STARTCHAR C215d
ENCODING 8541
SWIDTH 400 0
DWIDTH 24 0
BBX 24 24 0 -2
BITMAP
000000
002007
007FFF
C67367
FF7367
E77367
E67FFE
E60000
E60006
E67FFF
E60380
E60786
E60DCE
E631CC
E64378
E60670
E60CF8
FE39EC
E6636F
400667
001860
0063E0
0001C0
000180
ENDCHAR
STARTCHAR C215e
ENCODING 8542
SWIDTH 400 0
DWIDTH 24 0
BBX 24 24 0 -2
BITMAP
000380
000380
00030C
C607FE
FF0F0C
E73998
E664F0
E618E0
E67380
E62700
E618C0
E630C6
E63FFE
E60818
E60430
E60622
E67FFF
FE0008
E61FFC
401C1C
00180C
00180C
001FFC
001808
ENDCHAR
STARTCHAR C215f
ENCODING 8543
SWIDTH 400 0
DWIDTH 24 0
BBX 24 24 0 -2
BITMAP
000770
000770
000660
C67E7E
FF0670
E70660
E60664
E63E7E
E60660
E60660
E60677
E63E7F
E6E660
E64660
E60660
E60880
E60EC0
FE2C60
E62C6E
406C1B
006C13
00CFF3
00C7F0
0081E0
ENDCHAR
STARTCHAR C2160
ENCODING 8544
SWIDTH 400 0
DWIDTH 24 0
BBX 24 24 0 -2
BITMAP
000300
000300
00220E
C63FFF
FF3006
E73006
E63FFE
E63006
E63006
E63006
E63FFE
E601C4
E601C0
E63DDE
E601C0
E63DDE
E601C0
FE01C2
E67FFF
4001C0
0001C0
0001C0
0001C0
000180
ENDCHAR
STARTCHAR C2161
ENCODING 8545
SWIDTH 400 0
DWIDTH 24 0
BBX 24 24 0 -2
BITMAP
000008
00007C
0007FC
C63DC0
FF01C0
E71DCC
E619CC
E61DDC
E637D6
E663E3
E601C0
E61DCC
E619CC
E61DDC
E637D2
E663E2
E601C0
FE01CC
E63FFE
4001C0
0001C0
0001C0
0001C7
007FFF
ENDCHAR
STARTCHAR C2162
ENCODING 8546
SWIDTH 400 0
DWIDTH 24 0
BBX 24 24 0 -2
BITMAP
0003F0
007FF0
3FF820
103030
1C1860
0E18C0
060060
0003F0
01FFF0
1FC060
041860
0308C0
0100A0
1FFFF0
1C1830
1C1830
1FFFB0
1C1830
1DFFB0
1D8331
19833B
19FF1E
31830E
600006
ENDCHAR
STARTCHAR C2163
ENCODING 8547
SWIDTH 400 0
DWIDTH 24 0
BBX 24 24 0 -2
BITMAP
000FE0
007FF0
1FC040
0030E0
0619C0
020100
07FF80
060180
07FFF0
0C0060
0C006C
1FFFFE
1800CC
348C6C
24660C
4C20FC
880018
080060
0FFFF0
0C0060
0C0060
0C0060
0FFFE0
0C0060
ENDCHAR
STARTCHAR C2164
ENCODING 8548
SWIDTH 400 0
DWIDTH 24 0
BBX 24 24 0 -2
BITMAP
0201C0
0381C0
01C380
00C300
60660C
7FFFFE
601C0C
6038CC
63FFCC
60180C
6FFFEC
62008C
63FFCC
6301CC
63FFCC
627C6C
60E6CC
61C30C
67FB8C
6CF1EC
6040CC
7FFFFC
60000C
600000
ENDCHAR
STARTCHAR C2165
ENCODING 8549
SWIDTH 400 0
DWIDTH 24 0
BBX 24 24 0 -2
BITMAP
000000
60000C
7FFFFE
60198C
619B0C
60DA0C
67FFEC
60300C
6FFFEC
60660C
60D38C
61A5FC
676E6C
6C3B0C
60618C
61FFCC
61FB0C
61998C
6318CC
66784C
64100C
7FFFFC
60000C
600000
ENDCHAR
STARTCHAR C2166
ENCODING 8550
SWIDTH 400 0
DWIDTH 24 0
BBX 24 24 0 -2
BITMAP
000000
60000C
7FFFFE
600F0C
607F8C
63E10C
66118C
63190C
6602CC
67FFEC
666ECC
666ECC
67FFCC
60018C
6FFFEC
60018C
61818C
60C18C
60DF8C
600F0C
60020C
7FFFFC
60000C
600000
ENDCHAR
STARTCHAR C2167
ENCODING 8551
SWIDTH 400 0
DWIDTH 24 0
BBX 24 24 0 -2
BITMAP
000018
3FFFFC
000018
3FFFF8
300018
300006
7FFFFF
000006
1FFF06
1DCB06
1DF306
1C630E
1FFFFC
001838
001830
1FFFF0
001800
7FFFFC
001800
001800
1FFFF0
001800
00380C
3FFFFC
ENDCHAR
STARTCHAR C2168
ENCODING 8552
SWIDTH 400 0
DWIDTH 24 0
BBX 24 24 0 -2
BITMAP
100300
1C0180
184186
187FFF
18C667
188C66
FF187C
18303E
1841C0
183180
183188
183FFC
186180
184180
180186
18FFFE
180000
1E201C
383FFC
F0300C
E0300C
40300C
003FFC
003008
ENDCHAR
STARTCHAR C2169
ENCODING 8553
SWIDTH 400 0
DWIDTH 24 0
BBX 24 24 0 -2
BITMAP
000004
1E000E
1C1FFF
1C0FE6
1C0386
1C0326
FF9FF6
1C0006
1C3FFC
1C33F8
1C30E0
1C306C
1C77FC
1C7007
1C7FFF
1C1027
1C1FF7
1F9867
1E1FE7
F01067
E00006
4003FE
00007C
000038
ENDCHAR
STARTCHAR C216a
ENCODING 8554
SWIDTH 400 0
DWIDTH 24 0
BBX 24 24 0 -2
BITMAP
100000
1C0007
18FFFF
180660
180664
187E7E
FF6666
186666
186666
187E7E
184664
180660
180660
1826EC
187FFE
18718C
18718C
1E718C
387FFC
F0718C
E0718C
40718C
007FFC
00600C
ENDCHAR
STARTCHAR C216b
ENCODING 8555
SWIDTH 400 0
DWIDTH 24 0
BBX 24 24 0 -2
BITMAP
100860
1C9C60
18FE62
18CFFF
18D8C0
18D8C2
FED1FE
18F138
18F238
18D7FF
18D800
18CC86
18CDFE
18CFC6
18CFF6
18CFDE
18CFC6
1EFDCE
3CD9F6
F0C1E6
E0C326
40C33E
00C21C
008408
ENDCHAR
STARTCHAR C216c
ENCODING 8556
SWIDTH 400 0
DWIDTH 24 0
BBX 24 24 0 -2
BITMAP
107000
1C730C
1863FE
18630C
186B0C
19FBFC
FE630C
18630C
18630C
1863FC
186000
187802
1BE7FF
1BE060
19E260
1863E6
18637E
1E6360
386360
F06760
E066E0
43EC7F
01E83F
00D00E
ENDCHAR
STARTCHAR C216d
ENCODING 8557
SWIDTH 400 0
DWIDTH 24 0
BBX 24 24 0 -2
BITMAP
000000
1E0007
1C7FFF
1C0104
1C320E
1C3FFF
FFB366
1C3366
1C3366
1C3366
1C337E
1C320C
1C0000
1C7FFF
1C0180
1C0306
1C3FFE
1FB366
1E3366
F03366
E03366
403366
00337E
00320C
ENDCHAR
STARTCHAR C216e
ENCODING 8558
SWIDTH 400 0
DWIDTH 24 0
BBX 24 24 0 -2
BITMAP
100004
1C4E4E
187F7F
186666
186666
187E7E
FF4444
18101C
180C38
180626
18FFFF
180180
18718E
18718E
18718C
18718C
18718C
1E7FFC
38218C
F00300
E00600
400C00
001800
007000
ENDCHAR
STARTCHAR C216f
ENCODING 8559
SWIDTH 400 0
DWIDTH 24 0
BBX 24 24 0 -2
BITMAP
001800
001830
3FFFF8
001800
001804
7FFFFE
000000
040060
07FFE0
061860
07FFE0
061860
07FFE0
078180
038180
1FC7F8
038180
038180
7FFFFE
010180
0381E0
070070
1C001C
60000C
ENDCHAR
STARTCHAR C2170
ENCODING 8560
SWIDTH 400 0
DWIDTH 24 0
BBX 24 24 0 -2
BITMAP
001800
0C1860
0C1870
0CFF60
0C1860
0C1860
0DFFE0
0C0060
0C0060
0FFFE0
0C0060
000000
060060
464464
E66E66
FF6FF6
E66E66
E66E66
E66E66
FFEFFE
E06E06
FFEFFE
E06E06
C06C06
ENDCHAR
STARTCHAR C2171
ENCODING 8561
SWIDTH 400 0
DWIDTH 24 0
BBX 24 24 0 -2
BITMAP
100038
1C01FC
187FC0
180180
181198
181998
FF3998
183DB4
1865E6
18C5C2
181198
181998
183998
183DB4
1865E6
18C5C2
180184
1E7FFE
380180
F00180
E00180
400180
000187
00FFFF
ENDCHAR
STARTCHAR C2172
ENCODING 8562
SWIDTH 400 0
DWIDTH 24 0
BBX 24 24 0 -2
BITMAP
100078
1C0FFC
187980
181998
181998
183DB4
FF67A6
18C1C0
18199C
181998
1839B4
186DE6
18C5C0
180187
18FFFF
180704
18060E
1E07FF
380006
F00006
E00006
4000FE
00003C
000018
ENDCHAR
STARTCHAR C2173
ENCODING 8563
SWIDTH 400 0
DWIDTH 24 0
BBX 24 24 0 -2
BITMAP
001800
001830
3FFFF8
001800
001804
7FFFFE
001000
1E1804
1C1FFE
183800
36300C
677FFC
86DFFC
0E1C1C
1C1FFC
1C0C08
3C0C1C
7C7FFC
9C3C38
1C7260
1DC1E0
1C03FF
1C0E1F
18F007
ENDCHAR
STARTCHAR C2174
ENCODING 8564
SWIDTH 400 0
DWIDTH 24 0
BBX 24 24 0 -2
BITMAP
103198
1C3198
186330
184620
184220
183198
FF1998
180000
181830
181FF8
1819B8
181BB8
181B78
181E7E
18FFFF
18C007
18C467
1ECFF7
38CE67
F0CE67
E0CFE7
40C03F
00C01E
00C00C
ENDCHAR
STARTCHAR C2175
ENCODING 8565
SWIDTH 400 0
DWIDTH 24 0
BBX 24 24 0 -2
BITMAP
0381C0
0381C8
3FFFFC
0301C0
0301C0
03FF82
FFFFFF
000000
0FFFE0
0C1860
0C3860
0FFFE0
0C1860
0FFFE0
070080
0E1070
181C1C
60180C
001830
1FFFF0
001800
001804
00380E
7FFFFE
ENDCHAR
STARTCHAR C2176
ENCODING 8566
SWIDTH 400 0
DWIDTH 24 0
BBX 24 24 0 -2
BITMAP
630030
7FBFF8
638038
661FF8
6C0038
66003A
63FFFF
63038C
63879C
6399F0
63E3E0
7F1CF0
6671FC
61C66E
6018E7
60E7E0
6011C0
001C00
001810
1FFFF8
001800
001800
003807
FFFFFF
ENDCHAR
STARTCHAR C2177
ENCODING 8567
SWIDTH 400 0
DWIDTH 24 0
BBX 24 24 0 -2
BITMAP
30C318
30C318
30C318
3FC7F8
300018
3FC7F8
300018
380018
3FFFF8
000000
3FC7FC
060060
060060
7FE7FE
060060
060060
0C1060
181C40
001818
3FFFFC
001800
001800
003807
FFFFFF
ENDCHAR
STARTCHAR C2178
ENCODING 8568
SWIDTH 400 0
DWIDTH 24 0
BBX 24 24 0 -2
BITMAP
1C0438
1CFE38
1C0E30
1C7832
FF30FF
1DFF70
3C3378
3E3678
7F30FC
7DB1B6
DC3133
9CF231
1C7430
182030
001020
001C00
001800
001818
3FFFFC
001800
001800
001800
003807
FFFFFF
ENDCHAR
STARTCHAR C2179
ENCODING 8569
SWIDTH 400 0
DWIDTH 24 0
BBX 24 24 0 -2
BITMAP
001800
00180C
7FFFFE
001800
003818
1FFFF8
000006
7FFFFF
001807
0FFFF6
0C3860
0C1860
0FFFE0
001802
FFFFFF
000030
20C032
3FDFFF
30C830
30CE30
30C630
3FC2F0
308070
200060
ENDCHAR
STARTCHAR C217a
ENCODING 8570
SWIDTH 400 0
DWIDTH 24 0
BBX 24 24 0 -2
BITMAP
001800
001800
7FFFFE
001800
003808
1FFFF8
07FFE0
0C0030
0C0030
0FFFF0
200007
7FFFFF
DC0636
DCCE34
9C7C30
1DC330
1D0130
1FFFF0
001C00
003830
1FFFF0
001800
003807
FFFFFF
ENDCHAR
STARTCHAR C217b
ENCODING 8571
SWIDTH 400 0
DWIDTH 24 0
BBX 24 24 0 -2
BITMAP
1C0000
1C0638
3B07FC
3F8618
238618
7306F8
9E06D8
0E06D8
0C06D8
1816DA
301FFF
6E1807
8D9807
1FFB37
18DBF7
31DB37
799B37
CF1BF7
071B27
061807
0C1807
18183F
30181E
60100C
ENDCHAR
STARTCHAR C217c
ENCODING 8572
SWIDTH 400 0
DWIDTH 24 0
BBX 24 24 0 -2
BITMAP
001800
001808
3FFFFC
001800
003830
0FFFF0
003002
FFFFFF
00E100
01D0C0
039C70
0E183F
3E18CE
C718C0
0DD9B0
36FB4C
0718C0
0DD9B0
38FB18
207E08
3FFFFC
001800
001800
001000
ENDCHAR
STARTCHAR C217d
ENCODING 8573
SWIDTH 400 0
DWIDTH 24 0
BBX 24 24 0 -2
BITMAP
001804
00380E
7FFFFE
0FFFE0
1C3830
1C1830
0FFFF0
203807
7FFFFF
CFFFF6
C03824
819870
3FDEE0
039B80
0619E0
18F87C
601008
003800
003006
FFFFFF
00C380
0380F8
1E000E
F00007
ENDCHAR
STARTCHAR C217e
ENCODING 8574
SWIDTH 400 0
DWIDTH 24 0
BBX 24 24 0 -2
BITMAP
0080E0
01C6E0
7FC6DC
18CCCE
18C8C7
18D0C0
18D0C2
30DFFF
30D8C7
77D8CF
639CCF
C31EDF
8E1BD7
0E18E7
0C99DF
FFDFCF
0C1EC7
0E18C7
1918C7
1998C7
30D8C7
60F8C7
C018DE
801006
ENDCHAR
STARTCHAR C2221
ENCODING 8737
SWIDTH 400 0
DWIDTH 24 0
BBX 24 24 0 -2
BITMAP
0E0000
0E0038
0C8FF8
FFC338
1F0338
198338
30C378
6E7FF8
CC0338
FFC338
0C0338
4CC338
FFCFF8
E0C738
FFC338
E0C338
E1C338
FF8638
1C0638
190639
31CC39
FFC83F
F0701F
602006
ENDCHAR
STARTCHAR C2222
ENCODING 8738
SWIDTH 400 0
DWIDTH 24 0
BBX 24 24 0 -2
BITMAP
003000
003000
00600E
7FFFFE
018100
0300C0
061078
0F983F
3B0C6F
E3FFE2
060C00
0FFFE0
160C00
070C40
07FFC0
060C20
07FFF0
001808
3FFFFC
023800
071980
1F1878
30181C
C01004
ENDCHAR
STARTCHAR C2223
ENCODING 8739
SWIDTH 400 0
DWIDTH 24 0
BBX 24 24 0 -2
BITMAP
070000
070038
7FEFF8
060338
FFF3B8
1CC7F8
18F338
37F7F8
E60339
3FE739
06063B
FFEC1F
F8980E
40C000
00C1C0
0181C2
FFFFFF
030180
030300
07C600
007F00
007BE0
01C078
7E001C
ENDCHAR
STARTCHAR C2224
ENCODING 8740
SWIDTH 400 0
DWIDTH 24 0
BBX 24 24 0 -2
BITMAP
000000
00C00C
7FC7FC
204008
3FE7FC
30C60C
3FC7FC
30C61C
30C60C
3FC7FC
30C60C
3FC7FC
308408
00C000
00C1C0
0181C2
FFFFFF
030180
030300
07C600
007F00
007BE0
01C078
7E001C
ENDCHAR
STARTCHAR C2225
ENCODING 8741
SWIDTH 400 0
DWIDTH 24 0
BBX 24 24 0 -2
BITMAP
007038
007038
01CE38
077338
007038
01CE38
070338
1C0138
1FFFF0
18FFF0
198038
19FFF8
198038
19FFF8
198038
19FFF0
187060
187076
1FFFFE
30C0C0
31FB80
709FC0
603CF8
C7F01C
ENDCHAR
STARTCHAR C2226
ENCODING 8742
SWIDTH 400 0
DWIDTH 24 0
BBX 24 24 0 -2
BITMAP
019800
13D838
1C1BF8
181838
1F9BF8
181838
1FFFF8
103830
001806
7FFFFE
001800
1FFFF8
181838
183838
1FFFF0
019800
0181C6
FFFFFF
030180
060300
0FFF00
003FE0
00C078
3F001C
ENDCHAR
STARTCHAR C2227
ENCODING 8743
SWIDTH 400 0
DWIDTH 24 0
BBX 24 24 0 -2
BITMAP
10C000
1BE038
1C07F8
180038
1FC7F8
180038
1FFFF8
11C330
018180
0318F0
06183F
3FFFFF
FC1832
1C1830
1FFFF0
089820
00D10C
7FFFFE
018180
030300
03FE00
003FC0
00E0E0
1F8038
ENDCHAR
STARTCHAR C2228
ENCODING 8744
SWIDTH 400 0
DWIDTH 24 0
BBX 24 24 0 -2
BITMAP
000180
380082
387FFF
300430
320230
331366
FFBFFF
FB61C6
3361C4
331FFC
3319CC
3319CC
7319FC
6619DC
6611C8
E61084
3C1FFE
1E180E
1F180C
33180C
21980C
401FFC
80180C
001000
ENDCHAR
STARTCHAR C2229
ENCODING 8745
SWIDTH 400 0
DWIDTH 24 0
BBX 24 24 0 -2
BITMAP
204000
386007
307FFF
306007
366007
367FFE
FF603C
FE61FE
766760
366064
666FFE
666E66
666E66
CC67FE
CC6860
EC7FFF
3C6CE7
1E6C77
176C7F
33CFDF
20CD0F
40CC07
818C1E
000C06
ENDCHAR
STARTCHAR C222a
ENCODING 8746
SWIDTH 400 0
DWIDTH 24 0
BBX 24 24 0 -2
BITMAP
000000
380007
387FFF
300104
32320E
333FFF
FFB366
FB3366
333366
333366
33337E
33320C
730000
667FFF
660180
E60306
3C3FFE
1E3366
1F3366
333366
21B366
403366
80337E
00320C
ENDCHAR
STARTCHAR C222b
ENCODING 8747
SWIDTH 400 0
DWIDTH 24 0
BBX 24 24 0 -2
BITMAP
000000
3800E0
3800C0
301CC0
321CC4
3318FE
FF98C0
FB18C0
3318C0
3318C2
33FFFF
330008
730E0E
660E0C
660C0C
E66C6C
3C6F6E
1E6C6C
1F6C6C
336C6C
21EC6C
40FF6C
80F0FF
004000
ENDCHAR
STARTCHAR C222c
ENCODING 8748
SWIDTH 400 0
DWIDTH 24 0
BBX 24 24 0 -2
BITMAP
00007C
3803FE
381F04
300306
32198C
330CD8
FF8408
FB3FFC
330478
3303C0
330186
337FFF
737307
667337
6677FF
E6771F
3C7437
1E77FF
1F7367
3371C7
21F367
407E27
80701E
00600E
ENDCHAR
STARTCHAR C222d
ENCODING 8749
SWIDTH 400 0
DWIDTH 24 0
BBX 24 24 0 -2
BITMAP
000187
380187
380386
300766
320E36
330986
FF8186
FB03C6
330666
330C36
332816
337FFC
737004
6677FE
667606
E67606
3C77FE
1E7606
1F6606
3367FE
21C606
40C606
8087FE
010606
ENDCHAR
STARTCHAR C222e
ENCODING 8750
SWIDTH 400 0
DWIDTH 24 0
BBX 24 24 0 -2
BITMAP
0001C0
3801C0
3803C0
300760
320E38
331C0F
FFBFF7
FB7002
335FFC
33180C
33180C
331FFC
731808
660006
667FFF
E67367
3C7677
1E7C3F
1F7807
337FFF
21F1C7
4071DF
807186
006006
ENDCHAR
STARTCHAR C222f
ENCODING 8751
SWIDTH 400 0
DWIDTH 24 0
BBX 24 24 0 -2
BITMAP
030000
070007
1C3FFF
F00180
03810C
0F1FFE
38180E
E3180C
07980C
0E1FFC
1C1C0C
F0180C
32180C
331C0C
331FFC
FFD80C
33180C
67180C
661FFC
760400
1E0E1C
1F180E
33B007
E0E003
ENDCHAR
STARTCHAR C2230
ENCODING 8752
SWIDTH 400 0
DWIDTH 24 0
BBX 24 24 0 -2
BITMAP
003000
201800
200806
7FFFFF
E80206
DC018C
9C018C
1C7FFE
1C1038
3E1C30
7F0C30
7F8E60
DDFFFE
DC0010
9C1018
1C1FFC
1C1818
1C1818
1C1FF8
1C1818
1C1818
1C1818
1C1FF8
181018
ENDCHAR
STARTCHAR C2231
ENCODING 8753
SWIDTH 400 0
DWIDTH 24 0
BBX 24 24 0 -2
BITMAP
003000
201800
200806
7FFFFF
E01006
C00C0C
9FFFF8
180E00
180E20
1BFFF0
180C30
1FFFFE
180C30
1BFFF0
190C70
198CE0
18CC84
1FFFFE
308C00
30CCC0
318C70
630C18
6C0C08
C00C00
ENDCHAR
STARTCHAR C2232
ENCODING 8754
SWIDTH 400 0
DWIDTH 24 0
BBX 24 24 0 -2
BITMAP
003000
001800
201806
7FFFFF
C03006
CB9C34
9B8C58
1B808C
31FF84
00FF80
003810
003FF8
003000
1FFFF0
1C0030
1FFFF0
1C0030
0FFFE0
060020
07FFF0
060008
060008
07FFFC
01FFF8
ENDCHAR
STARTCHAR C2233
ENCODING 8755
SWIDTH 400 0
DWIDTH 24 0
BBX 24 24 0 -2
BITMAP
003000
001806
7FFFFF
601107
C91B84
CB8730
1B8C5C
33984C
01FFC4
01FFC0
066000
3CE070
1FFFF8
1C0030
1FFFF0
1C0030
1C0030
1FFFE0
1C0020
1FFFF4
1C000C
1C000C
0FFFFC
07FFF8
ENDCHAR
STARTCHAR C2234
ENCODING 8756
SWIDTH 400 0
DWIDTH 24 0
BBX 24 24 0 -2
BITMAP
003000
201800
200806
7FFFFF
E1C386
DFFFFC
819308
019B00
003C00
00E3C0
038070
3F031E
71C3A6
1FFFF0
019300
013B00
007E00
00E3C0
079878
3C380E
607604
01C3C0
06007E
78003C
ENDCHAR
STARTCHAR C2235
ENCODING 8757
SWIDTH 400 0
DWIDTH 24 0
BBX 24 24 0 -2
BITMAP
003000
201800
200806
7FFFFF
E00006
C381EC
8341CC
7FE7FE
0301C0
020088
3FFFFC
061880
0718E4
7FDFFE
0618C0
061884
7FFFFE
001800
001800
1FFFF0
001800
001800
001800
001000
ENDCHAR
STARTCHAR C2236
ENCODING 8758
SWIDTH 400 0
DWIDTH 24 0
BBX 24 24 0 -2
BITMAP
003000
201800
200806
7FFFFF
E00006
F1C1CC
B9C188
31919C
318DB0
318760
318338
3F861C
318C0E
019906
2181C0
3F818C
31B18C
319998
318BE0
618360
618630
C18C1F
81980F
01F006
ENDCHAR
STARTCHAR C2237
ENCODING 8759
SWIDTH 400 0
DWIDTH 24 0
BBX 24 24 0 -2
BITMAP
003000
201806
3FFFFF
640007
E63FF4
C60038
8EFFFC
0C0038
0C3FF0
18FFFE
18870E
398308
797FF8
D86338
9863F8
186330
180200
18FFF8
183038
181860
180780
180FFC
18187E
19E01C
ENDCHAR
STARTCHAR C2238
ENCODING 8760
SWIDTH 400 0
DWIDTH 24 0
BBX 24 24 0 -2
BITMAP
003000
201806
3FFFFF
600007
E70004
C67FF8
8E0600
1C3C38
1C3FFC
3C3018
6C3018
0C3FF8
0C3018
0C3018
0C1FF8
083000
001800
00180C
7FFFFE
010000
0381E0
070078
1C000C
700004
ENDCHAR
STARTCHAR C2239
ENCODING 8761
SWIDTH 400 0
DWIDTH 24 0
BBX 24 24 0 -2
BITMAP
00100C
FDF80C
EDB00C
EDB00C
EDB00C
EDB7FF
FDF00C
07000C
07000C
3FE18C
0700CC
0600CC
06304C
FFF80C
07000C
07000C
07700C
7FF00C
06000C
06000C
06000C
FFF8FC
F80078
600030
ENDCHAR
STARTCHAR C223a
ENCODING 8762
SWIDTH 400 0
DWIDTH 24 0
BBX 24 24 0 -2
BITMAP
0600C0
0640C2
FFE7FF
0600C0
0600C0
1FFFF8
18C638
18E638
1BFFB8
18C638
1FFFF8
18C638
1FFFF8
100030
000000
3FFFF8
0001C6
FFFFFF
0601C0
0381C0
01C1C0
00DFC0
000780
000300
ENDCHAR
STARTCHAR C223b
ENCODING 8763
SWIDTH 400 0
DWIDTH 24 0
BBX 24 24 0 -2
BITMAP
100030
1FFFF8
18C638
19C7F8
1B8038
1AFF38
18C338
19C73E
7FFFFE
018301
030302
0603FE
3819FE
E01800
001FF0
001800
003806
7FFFFE
061880
0E1860
0C183C
19F80C
60F004
806000
ENDCHAR
STARTCHAR C223c
ENCODING 8764
SWIDTH 400 0
DWIDTH 24 0
BBX 24 24 0 -2
BITMAP
0C00E0
0610E8
FFF8C6
0000C7
2060C2
3FF0C0
3060C2
306FFF
3FE0C0
0000C0
6070C0
7FF0E0
6071F0
6071F0
7FF1B0
4621B0
060330
364330
366330
663631
463631
860C3F
3E183F
04700E
ENDCHAR
STARTCHAR C223d
ENCODING 8765
SWIDTH 400 0
DWIDTH 24 0
BBX 24 24 0 -2
BITMAP
1C0180
1C0088
1C1FFC
1C0018
1C0618
1C0234
FFBFFE
1C0000
1C0FFC
1C0DDC
1C0DD8
1E0FF8
1F0DD8
1B0FF8
1B09C0
1B0FF8
3301C0
3301C0
331FFE
330001
630001
63FFFF
C3FFFF
80FFFE
ENDCHAR
STARTCHAR C223e
ENCODING 8766
SWIDTH 400 0
DWIDTH 24 0
BBX 24 24 0 -2
BITMAP
1C0038
1C01FC
1C0FC0
1C0186
1C3FFE
1C0310
FF87FF
1C0F3F
1C1B3B
1C23F8
1C0230
1E080C
1F0FFE
1B0C0C
1B0DEC
1B0D2C
330DEC
330C0C
330C3D
330809
630003
63FFFF
C3FFFF
80FFFE
ENDCHAR
STARTCHAR C223f
ENCODING 8767
SWIDTH 400 0
DWIDTH 24 0
BBX 24 24 0 -2
BITMAP
200000
30000C
3FFFFE
30000C
30000C
3FFFFC
30000C
308F60
30CE70
31CE70
33BE48
371E84
340F00
3FFFFE
308060
30C070
34DB64
64DB66
64DB64
6FFBFC
C4C064
C18060
830060
060060
ENDCHAR
STARTCHAR C2240
ENCODING 8768
SWIDTH 400 0
DWIDTH 24 0
BBX 24 24 0 -2
BITMAP
200006
3FFFFE
300006
300006
3FFFFE
310084
31C188
338FFC
330F8C
36CECC
3CFFFE
318E8C
318C6C
33887C
379418
3FA708
3B861C
638FFC
638E18
639930
C381E0
C381B8
83861F
033807
ENDCHAR
STARTCHAR C2241
ENCODING 8769
SWIDTH 400 0
DWIDTH 24 0
BBX 24 24 0 -2
BITMAP
001800
38181C
381818
3FFFF8
303018
006000
03C000
130038
1FFFF8
1A19B8
1B99B8
19DB38
18DA38
1FFFF0
101800
1FFFF8
003800
001800
7FFFFE
000010
11041C
30C60E
606306
E00103
ENDCHAR
STARTCHAR C2242
ENCODING 8770
SWIDTH 400 0
DWIDTH 24 0
BBX 24 24 0 -2
BITMAP
001800
38181C
301818
3FFFF8
007018
01C000
060060
76E76E
66C66C
7FC7FC
6CC6EC
182060
703848
30300C
38300C
3FFFFC
31D188
019CC0
071878
0C383F
33FFCF
C01802
001800
001000
ENDCHAR
STARTCHAR C2243
ENCODING 8771
SWIDTH 400 0
DWIDTH 24 0
BBX 24 24 0 -2
BITMAP
001800
38181C
381818
303818
3FFFF8
00E700
01D380
039CE0
06187F
18185F
67FFE6
801800
001800
001800
001000
0C0646
FEFF7E
E6C666
E6C666
E6C666
E6C666
E6C666
FEFE7E
C4C646
ENDCHAR
STARTCHAR C2244
ENCODING 8772
SWIDTH 400 0
DWIDTH 24 0
BBX 24 24 0 -2
BITMAP
00C018
3FE7FC
30E618
3FC7F8
30C618
100010
1FFFF8
181838
1FFFF8
181838
183838
1FFFF0
001806
7FFFFE
001800
001800
001000
001C00
38181C
38181C
301818
301818
3FFFF8
000018
ENDCHAR
STARTCHAR C2245
ENCODING 8773
SWIDTH 400 0
DWIDTH 24 0
BBX 24 24 0 -2
BITMAP
001800
38181C
381818
301818
3FFFF8
000000
000030
183FF8
1C3038
0A3FF8
623038
763038
363FF0
040006
0DFFFF
183000
30300C
F07FFE
70CCCC
318CCC
3A198C
3833FC
38C638
109830
ENDCHAR
STARTCHAR C2246
ENCODING 8774
SWIDTH 400 0
DWIDTH 24 0
BBX 24 24 0 -2
BITMAP
100000
18CE47
18FF7F
18C667
18E667
5AFE7F
DAC667
DAE667
DAFE7F
DAC007
DAC067
DACFF7
DACE77
DACE67
DACFE7
DACE67
DACFE7
DACE67
FECC67
02C9E7
00D047
00C03F
00C00E
00C00C
ENDCHAR
STARTCHAR C2247
ENCODING 8775
SWIDTH 400 0
DWIDTH 24 0
BBX 24 24 0 -2
BITMAP
000000
380007
3003FF
300060
30F844
B673FE
B67306
B67306
B67306
B673FE
B67386
B67306
B67306
B67386
B673FE
B67B06
B67B06
B7E306
FEC3FE
060100
000386
000303
000603
000C01
ENDCHAR
STARTCHAR C2248
ENCODING 8776
SWIDTH 400 0
DWIDTH 24 0
BBX 24 24 0 -2
BITMAP
001840
381867
30187F
30FF67
303867
B61867
B61A67
B6FF67
B6C27F
B6C267
B6C667
B6FE67
B6C267
B6C267
B6FE7F
B6DA67
B61867
B61867
FEFEC7
0638C7
0018C7
00199F
00190E
00120C
ENDCHAR
STARTCHAR C2249
ENCODING 8777
SWIDTH 400 0
DWIDTH 24 0
BBX 24 24 0 -2
BITMAP
001800
38181C
381818
3FFFF8
300018
040040
070070
0E6060
7FE066
1D807E
18C060
30406C
4007FE
FFF21E
00C30C
7EC118
6EC118
66C0B0
7EC0E0
64C0E0
00C1B0
07C31F
01CE0F
01B806
ENDCHAR
STARTCHAR C224a
ENCODING 8778
SWIDTH 400 0
DWIDTH 24 0
BBX 24 24 0 -2
BITMAP
000008
1E181C
1C1FFC
1C180C
1C1FFC
5D000A
DDFF7F
DDF777
DDF367
DDFF7E
DD8000
DDBFFE
DD8000
DD8003
DDFFFF
DD8C00
DD9C0C
DD9FFE
FF800C
01000C
00000C
0007FC
0001F8
000070
ENDCHAR
STARTCHAR C224b
ENCODING 8779
SWIDTH 400 0
DWIDTH 24 0
BBX 24 24 0 -2
BITMAP
060060
66C66C
66E66E
66C66C
7FC7FC
000000
00C018
3FE7FC
30E618
30C618
3FC7F8
000000
1FFFF8
000000
000006
FFFFFF
030020
07FFF0
060030
000030
000030
000FF0
0001E0
0000C0
ENDCHAR
STARTCHAR C224c
ENCODING 8780
SWIDTH 400 0
DWIDTH 24 0
BBX 24 24 0 -2
BITMAP
001800
38181C
381818
3FFFF8
340058
060060
66C66C
66C66C
66C66C
7FDFFC
003800
007600
00DB80
03B8E0
06763F
38C38E
E381E6
067E7F
3800DC
E3FFE0
0001C0
000180
000300
000600
ENDCHAR
STARTCHAR C224d
ENCODING 8781
SWIDTH 400 0
DWIDTH 24 0
BBX 24 24 0 -2
BITMAP
001800
38181C
301818
3FFFF8
041C40
061860
0F18F8
19998C
76DF74
0E1870
1F98D8
31D98C
40DB04
1FFFF0
000002
FFFFFF
0C0000
0C0010
1FFFF8
000038
000038
000FF0
0001E0
0000C0
ENDCHAR
STARTCHAR C224e
ENCODING 8782
SWIDTH 400 0
DWIDTH 24 0
BBX 24 24 0 -2
BITMAP
001800
38181C
381818
3FFFF8
304018
00E000
01C1C0
0380E0
07FFF0
060010
1A00C0
3B019C
7F9BFE
60FF86
206700
01C3C0
0338F8
0C303F
F0322F
043338
0C319C
1C30CC
09F000
006000
ENDCHAR
STARTCHAR C224f
ENCODING 8783
SWIDTH 400 0
DWIDTH 24 0
BBX 24 24 0 -2
BITMAP
100300
1C0300
18220E
183FFF
183006
993FFE
9B3006
9B3006
9B3FFE
9B3006
9B3FFE
9B01E4
9B01C0
9B3DDE
9B01C0
9B3DDE
9B01C0
9B01C2
FF7FFF
0101C0
0001C0
0001C0
0001C0
000180
ENDCHAR
STARTCHAR C2250
ENCODING 8784
SWIDTH 400 0
DWIDTH 24 0
BBX 24 24 0 -2
BITMAP
0181C0
EFC1C0
F30380
E30306
FFE3FE
E3970C
F9B51C
E0F118
6060B0
7FC070
60C0F0
7FC1DC
60C38F
60C606
7FCC00
401800
001800
301810
38181C
301818
301818
301818
3FFFF8
000018
ENDCHAR
STARTCHAR C2251
ENCODING 8785
SWIDTH 400 0
DWIDTH 24 0
BBX 24 24 0 -2
BITMAP
101800
1C18C0
181862
181FFF
1838C0
9938C4
9B7FFE
9BD8C0
9B18C4
9B1FFE
9B18C0
9B18C2
9B1FFF
9B0000
9B2326
9B3F3F
9B3327
9B3327
FF33E7
013007
003007
00303F
00300E
00300C
ENDCHAR
STARTCHAR C2252
ENCODING 8786
SWIDTH 400 0
DWIDTH 24 0
BBX 24 24 0 -2
BITMAP
001800
003807
FFFFFF
3FFFFC
000000
3FFFFC
30184C
37FFEC
30180C
37FFCC
3738CC
67FFCD
67FFCF
403807
CFFFF7
801802
081818
1C1C18
183830
307060
706060
383838
1C1C1C
0C0C0C
ENDCHAR
STARTCHAR C2253
ENCODING 8787
SWIDTH 400 0
DWIDTH 24 0
BBX 24 24 0 -2
BITMAP
0003F8
01FFFC
1F9800
061860
061870
0F18F8
19998C
60DB04
061870
0E1870
1F98D8
39D98C
60DB04
003803
FFFFFF
060000
06000C
0FFFFC
0C0E00
180E00
300E00
E00E06
3FFFFF
000000
ENDCHAR
STARTCHAR C2254
ENCODING 8788
SWIDTH 400 0
DWIDTH 24 0
BBX 24 24 0 -2
BITMAP
000000
60C60C
7FE7FE
60C60C
60C60C
7FC7FC
602602
606606
7FE7FE
3FE3FE
000000
004004
7FE7FE
060060
06C06C
7FC7FC
060060
060062
FFFFFF
020000
070070
1C001C
300007
E00003
ENDCHAR
STARTCHAR C2255
ENCODING 8789
SWIDTH 400 0
DWIDTH 24 0
BBX 24 24 0 -2
BITMAP
001800
001804
7FFFFE
001820
1FFFF0
1C1830
0FFFF0
203807
7FFFFF
DFFFF6
818004
030060
07FFE0
0F0060
33FFE0
021840
001830
1FFFF8
181838
181838
181BF8
1818F0
101860
001000
ENDCHAR
STARTCHAR C2256
ENCODING 8790
SWIDTH 400 0
DWIDTH 24 0
BBX 24 24 0 -2
BITMAP
00C100
7FE1C0
60E38C
7FC3FE
60C60C
60CF18
7FD9B0
0000E0
00C3C0
7FCE70
000060
FFE46E
060FFF
060E66
46EE66
FFFE66
E66E66
E66E66
E66E7E
E66E6E
E7EC6C
C6C060
060060
040040
ENDCHAR
STARTCHAR C2257
ENCODING 8791
SWIDTH 400 0
DWIDTH 24 0
BBX 24 24 0 -2
BITMAP
1C0180
1C00C2
1C7FFF
1C0200
5D8618
FF8FFC
DD9B70
DDB1E0
DD8774
DDBCFE
DD83CE
DD8EFC
DDB870
DD81C0
DD8F00
DDBB40
DD8746
DF8E6C
5D1C30
1C3C10
1CEC98
1D8F8F
1C0E07
180603
ENDCHAR
STARTCHAR C2258
ENCODING 8792
SWIDTH 400 0
DWIDTH 24 0
BBX 24 24 0 -2
BITMAP
1C0004
1C000E
1C1FFF
1C0FE6
5D8186
FF81A6
DD9FF6
DD8006
DD9FFC
DD99F8
DD98E0
DDB06C
DDB3FC
DDB007
DDBFFF
DD8027
DD9FF7
DF9867
5D1FE7
1C1867
1C0006
1C07FE
1C007C
180038
ENDCHAR
STARTCHAR C2259
ENCODING 8793
SWIDTH 400 0
DWIDTH 24 0
BBX 24 24 0 -2
BITMAP
1C0E00
1C0E20
1C0FF0
1C1830
5D9044
FFBFFE
DDB1C6
DDB1C6
DDB1C6
DDBFFE
DD8380
DD8787
DD8CCE
DD99F8
DDA330
DD8670
DD8CF8
DFB1BF
5D0337
1C0E32
1C1870
1C27E0
1C03C0
180180
ENDCHAR
STARTCHAR C225a
ENCODING 8794
SWIDTH 400 0
DWIDTH 24 0
BBX 24 24 0 -2
BITMAP
1C0606
1C7F7F
1C1337
1C1337
1C1337
DD9337
DDBF2F
DDA666
FFE0C4
DDC080
DD8206
DD9E3E
DD8C0C
DD8C0C
FF8C0C
DDFF3F
DD8C1C
DD8C0C
DD8C0C
DD980C
DD980C
FF980C
C1300C
006008
ENDCHAR
STARTCHAR C225b
ENCODING 8795
SWIDTH 400 0
DWIDTH 24 0
BBX 24 24 0 -2
BITMAP
040200
06030E
0C060E
399CCC
1B8DCC
0E070C
0D06CC
398C6C
3FDFEC
30D82C
10080C
3FFFFC
06030C
0E070C
389C4C
39DCEC
0F078C
0D068C
188C4C
3FDFEC
38DC2C
10080C
7FFFFC
00000C
ENDCHAR
STARTCHAR C225c
ENCODING 8796
SWIDTH 400 0
DWIDTH 24 0
BBX 24 24 0 -2
BITMAP
001800
0618C0
E618C7
ECD9B6
E9DB66
EF18C6
E699A6
EC7B36
FFFFFE
EC5B16
E83806
FFFFFE
0600C4
0E00C0
0C0180
198338
318338
0B01F0
0600E0
0CC1C8
186384
3FF7FE
783706
300600
ENDCHAR
STARTCHAR C225d
ENCODING 8797
SWIDTH 400 0
DWIDTH 24 0
BBX 24 24 0 -2
BITMAP
060060
26C060
26C060
66C062
5EB07F
DFB060
77E060
36C060
36A06E
5FF3FF
FFB00E
DE900C
066018
476038
FFF070
E370E0
F371C0
FBE380
FDC301
E99601
E1D603
C3F7FF
8473FF
3831FE
ENDCHAR
STARTCHAR C225e
ENCODING 8798
SWIDTH 400 0
DWIDTH 24 0
BBX 24 24 0 -2
BITMAP
001800
000C00
200C06
3FFFFF
300400
308E30
30EE60
306E40
31FFFC
300E00
300C06
37FFFE
303860
307418
30E70E
33FFF3
3E1C00
601F1C
603970
6071C0
60F3E0
C1FC7C
81383C
003018
ENDCHAR
STARTCHAR C225f
ENCODING 8799
SWIDTH 400 0
DWIDTH 24 0
BBX 24 24 0 -2
BITMAP
001800
000C00
200C06
3FFFFF
300000
30000E
37FFFE
3019C0
3219CC
33F9FE
3319CC
3319CC
33F9FC
3019C0
31119C
33FFFC
33860C
63860C
63FFFC
63861C
63860C
C3860C
83FFFC
030008
ENDCHAR
STARTCHAR C2260
ENCODING 8800
SWIDTH 400 0
DWIDTH 24 0
BBX 24 24 0 -2
BITMAP
001800
000C00
200C06
3FFFFF
308000
30D9FC
30F98C
30C18C
37F98C
36198C
373B0C
37FA07
361C00
37FBFC
36118C
37008C
3730CC
67F058
660070
670070
63F8F8
C1F99F
80030F
001E06
ENDCHAR
STARTCHAR C2261
ENCODING 8801
SWIDTH 400 0
DWIDTH 24 0
BBX 24 24 0 -2
BITMAP
001800
000C00
200C06
3FFFFF
300600
30370C
33E67E
33060E
33060C
33E67C
33060C
33E77C
320D8C
3018C0
303070
30E73F
31870F
6E0607
60C670
61C61C
63060E
C60606
807E00
000C00
ENDCHAR
STARTCHAR C2262
ENCODING 8802
SWIDTH 400 0
DWIDTH 24 0
BBX 24 24 0 -2
BITMAP
003000
001800
200806
3FFFFF
300800
301E00
301B00
3031C0
3060E0
30FFBF
33800E
3E8064
30FFF0
30C060
30C060
30FFE0
308060
601008
67FBFC
673B9C
661B0C
C61B0C
87FBFC
061308
ENDCHAR
STARTCHAR C2263
ENCODING 8803
SWIDTH 400 0
DWIDTH 24 0
BBX 24 24 0 -2
BITMAP
001800
000C00
200C06
3FFFFF
300000
30000E
30DFFE
31C0C0
31858C
330FFE
340E0C
306E0C
30EFFC
318E0C
330E0C
360FFC
3C2E0C
606E0C
60CFFC
618310
63039C
C6060E
8C0C06
003003
ENDCHAR
STARTCHAR C2264
ENCODING 8804
SWIDTH 400 0
DWIDTH 24 0
BBX 24 24 0 -2
BITMAP
000300
11FF90
1983B8
19FF38
180038
3FFFF8
100010
07FFE0
060060
07FFE0
000000
1FFFF8
180038
180038
1FFFF8
180038
1FFFF0
1381C0
0381C6
FFFFFF
0301C0
0601C0
0C01C0
380180
ENDCHAR
STARTCHAR C2265
ENCODING 8805
SWIDTH 400 0
DWIDTH 24 0
BBX 24 24 0 -2
BITMAP
20C0E0
30C0E0
1880CC
0D30C6
FFF8C3
E630C0
E6F0C0
F6F0C7
FEB7FF
EFB0C0
E630C0
FFF0C0
4020C0
00C0C0
3FE060
30E060
30C060
30C061
3FC031
30C039
30C01F
30C00F
3FC007
30C003
ENDCHAR
STARTCHAR C2266
ENCODING 8806
SWIDTH 400 0
DWIDTH 24 0
BBX 24 24 0 -2
BITMAP
000000
1C0C07
FDFCFF
1C7038
1C7038
1C7038
1C7038
FFFFFF
FB77BB
E377BB
C377BB
CB77BB
FF57AB
9F5FAF
1F97CB
1F87C3
1F0783
1F0783
1F0783
1F0783
1FFFFF
FB0582
700000
200000
ENDCHAR
STARTCHAR C2267
ENCODING 8807
SWIDTH 400 0
DWIDTH 24 0
BBX 24 24 0 -2
BITMAP
040000
0E0607
FE7E7F
06180C
06180C
061818
063272
7EFF7F
64C667
60C667
60C667
EEC667
FEC667
06C667
06FE7F
06C667
06C667
06C667
06C667
06C667
0CC667
FCFE7F
78E666
30C040
ENDCHAR
STARTCHAR C2268
ENCODING 8808
SWIDTH 400 0
DWIDTH 24 0
BBX 24 24 0 -2
BITMAP
060000
04600C
7FF3FE
60700C
60700C
7FF3FC
60700C
7FE00C
0087FC
01C00C
018300
03FF80
0F8F00
30F800
00FC00
1F1830
019860
7FDCC0
03DB00
0719C0
0E18FF
19F83F
607006
806000
ENDCHAR
STARTCHAR C2269
ENCODING 8809
SWIDTH 400 0
DWIDTH 24 0
BBX 24 24 0 -2
BITMAP
038004
038006
03100E
03F81C
030038
030070
7FF8E0
603980
7FF806
60180E
7FF80C
601818
7FF830
030060
3B60C0
333307
631807
43080E
9B601C
3B3038
331870
6318E0
8301C0
030700
ENDCHAR
STARTCHAR C226a
ENCODING 8810
SWIDTH 400 0
DWIDTH 24 0
BBX 24 24 0 -2
BITMAP
001800
0618C0
0E1830
181BDC
301F0C
40F800
07F000
3C7020
EFFFF0
0C0030
0FFFF0
0C0030
0FFFF0
01C006
FFFFFF
0303E0
060E38
1C389F
37C3EF
C00E22
01F0F0
0F0380
001C00
0FE000
ENDCHAR
STARTCHAR C226b
ENCODING 8811
SWIDTH 400 0
DWIDTH 24 0
BBX 24 24 0 -2
BITMAP
040018
063FFC
0C000C
187FFF
30001C
60000C
803FFC
000000
07027E
067F66
0C1866
181866
307F7E
60F810
C06038
038038
03FFFF
071038
0E1C38
1C0E38
380038
7003F8
C000F0
000060
ENDCHAR
STARTCHAR C226c
ENCODING 8812
SWIDTH 400 0
DWIDTH 24 0
BBX 24 24 0 -2
BITMAP
040018
061FFC
0C180C
18180C
301FFC
60180C
80180C
001FFC
070188
0600C2
0C7FFF
180000
301FFC
601C1C
C0180C
03980C
039FFC
0700C8
0E18C0
1C18C4
3810C6
7027C3
C041C1
000180
ENDCHAR
STARTCHAR C226d
ENCODING 8813
SWIDTH 400 0
DWIDTH 24 0
BBX 24 24 0 -2
BITMAP
060018
060618
0C0332
0C3FFF
180330
301326
639FFF
439B26
071A3E
061C1E
0C1806
1C1FF6
1C1806
3C1FFE
6C1018
CC3FFF
0C0818
0C0C18
0C0718
0C0318
0C0018
0C01F8
0C0078
0C0030
ENDCHAR
STARTCHAR C226e
ENCODING 8814
SWIDTH 400 0
DWIDTH 24 0
BBX 24 24 0 -2
BITMAP
060000
060006
0C7FFE
0C1108
181FFC
301818
639FF8
439818
071FF8
067FFF
0CE007
1CC016
1CBFF8
3C0E00
6C2C1C
CC3FFC
0C1818
0C3C30
0C6360
0CC1C0
0C03F0
0C0E3F
0C180F
0CF007
ENDCHAR
STARTCHAR C226f
ENCODING 8815
SWIDTH 400 0
DWIDTH 24 0
BBX 24 24 0 -2
BITMAP
060060
060060
0C0C60
0C0C7E
180C60
300C62
63BFFF
438000
07080C
060FFE
0C0C0C
1C0FFC
1C0C0C
3C0C0C
6C0FFC
CC00E0
0C18CC
0C1CC6
0C38DF
0C70FB
0C40E1
0C0380
0C0E00
0CF000
ENDCHAR
STARTCHAR C2270
ENCODING 8816
SWIDTH 400 0
DWIDTH 24 0
BBX 24 24 0 -2
BITMAP
06007C
0607FE
0C1C0C
0C118E
18188C
300818
639FF8
43861C
07060C
060618
0C0FFE
1C0E06
1C0C06
3C1C0E
6C1FFF
CC3803
0C301B
0C64CF
0CD26F
0C9363
0D3007
0C307E
0C003C
0C0008
ENDCHAR
STARTCHAR C2271
ENCODING 8817
SWIDTH 400 0
DWIDTH 24 0
BBX 24 24 0 -2
BITMAP
00600C
207FFE
187180
0D7FF8
017180
037188
067FFC
067186
0C7FFF
1831C7
3031C7
71FFF7
3031C7
3031C6
38318E
3801FC
001038
038C20
230E08
23042C
630066
E3FFC3
C1FFE3
807FC1
ENDCHAR
STARTCHAR C2272
ENCODING 8818
SWIDTH 400 0
DWIDTH 24 0
BBX 24 24 0 -2
BITMAP
201000
30380C
3FF9FE
30190C
3FF90C
30118C
37E098
3000D8
37F070
31D8F0
6D98F8
6DF19C
C3610F
863207
1C1C00
701800
001800
238C00
23060C
230026
630063
C3FFC3
81FFE0
007FC0
ENDCHAR
STARTCHAR C2273
ENCODING 8819
SWIDTH 400 0
DWIDTH 24 0
BBX 24 24 0 -2
BITMAP
0701C0
0711C0
7FF980
0603FF
47339C
FFFB0C
DFB78C
01E498
0180D8
07C070
7F0070
7600F0
06019C
3E030F
0C1C07
081002
021C00
238E08
23062E
630067
630043
C3FFC3
81FFE0
007FC0
ENDCHAR
STARTCHAR C2274
ENCODING 8820
SWIDTH 400 0
DWIDTH 24 0
BBX 24 24 0 -2
BITMAP
070380
074380
7FE300
060306
0607FF
062618
FFFE18
1D8B18
7DD130
5DB1F0
D9B0E0
9991F0
31839F
2F860F
439804
812000
001800
238C00
23060C
230026
630063
C3FFC3
81FFE0
007FC0
ENDCHAR
STARTCHAR C2275
ENCODING 8821
SWIDTH 400 0
DWIDTH 24 0
BBX 24 24 0 -2
BITMAP
0381C0
0381C0
03818C
7FFFFE
038180
03FF80
011900
303838
3FFFFC
339998
339998
331BD8
33DB78
367E18
3C58F8
301030
001800
238C00
23060C
230026
630063
C3FFC3
81FFE0
007FC0
ENDCHAR
STARTCHAR C2276
ENCODING 8822
SWIDTH 400 0
DWIDTH 24 0
BBX 24 24 0 -2
BITMAP
0081C0
41C1C0
FFC1CC
ECCFFE
ECC18E
ECC18C
FFC30C
EDC30C
ECC60C
ECC47C
ECC838
FFD030
C0C800
0C0830
060BB6
363FFF
3209B7
70C9B7
7069B7
7069B7
F919A7
FF97E7
8F375E
00628C
ENDCHAR
STARTCHAR C2277
ENCODING 8823
SWIDTH 400 0
DWIDTH 24 0
BBX 24 24 0 -2
BITMAP
018300
018306
FF83FF
018300
0D8360
0FFFF0
0C0060
0FFFE0
0C0060
0FFFE0
0CE060
00E006
FFFFFF
038300
0701C0
0E00FF
1C183F
79CC0E
C9C630
198058
39C0CC
31FF8C
20FF80
003F00
ENDCHAR
STARTCHAR C2278
ENCODING 8824
SWIDTH 400 0
DWIDTH 24 0
BBX 24 24 0 -2
BITMAP
060060
464464
E66E67
E66E66
FFEFFE
0C40C6
180180
300300
0FFFF0
0C1860
0C1860
0FFFE0
0C1860
0C1860
0FFFE0
081060
001800
038C00
130618
33004C
3300CE
63FF86
E3FF86
00FF00
ENDCHAR
STARTCHAR C2279
ENCODING 8825
SWIDTH 400 0
DWIDTH 24 0
BBX 24 24 0 -2
BITMAP
3800E0
3800E0
31C0CC
30E7FC
3060CC
3800CC
7C0FFF
7E00DC
F660CC
F7F0CC
B077FC
B060C4
30C6CE
30F3D8
31F0D0
3131D8
3036CE
307CC6
306BC0
30E3C0
31F980
31FFFF
3007FF
3001FC
ENDCHAR
STARTCHAR C227a
ENCODING 8826
SWIDTH 400 0
DWIDTH 24 0
BBX 24 24 0 -2
BITMAP
1C0000
1C0E06
1C7E7E
1C1818
1C1818
1C1A1A
3EFFFF
7F181C
7FBC3E
DD3633
DC6663
9C6343
1CC381
1C0000
1C01C0
1C0EE0
1C0E60
1C2E04
1C6E03
1C6E0B
1CEE09
1CCFF8
1C07F8
1803F0
ENDCHAR
STARTCHAR C227b
ENCODING 8827
SWIDTH 400 0
DWIDTH 24 0
BBX 24 24 0 -2
BITMAP
1C0808
1C0E0E
1C0C0C
1C7F7F
1C6C7C
1C6C6C
3E4C4C
7F6D5D
7FFF7F
DD1E1C
DC1EB4
9C3765
1C66C7
1CC080
1C1FFE
1C180C
1C180C
1C180C
1C1FFC
1C180C
1C180C
1C1FFC
1C180C
181000
ENDCHAR
STARTCHAR C227c
ENCODING 8828
SWIDTH 400 0
DWIDTH 24 0
BBX 24 24 0 -2
BITMAP
1C0000
1C2007
1C7FFF
1C7367
1C7367
1C7367
3E7FFF
7F7006
7F8180
DD01C0
DC00C7
9C3FFF
1C0008
1C1FFC
1C0008
1C0FFC
1C0000
1C180C
1C1FFE
1C180C
1C180C
1C180C
1C1FFC
18180C
ENDCHAR
STARTCHAR C227d
ENCODING 8829
SWIDTH 400 0
DWIDTH 24 0
BBX 24 24 0 -2
BITMAP
1C0000
1C1C1C
1C1C18
1C1E3E
1C3333
1C2063
3E5CDC
7F1C1C
7F9C1C
DD3233
DC6363
9CC1C1
1C1018
1C1FFC
1C180C
1C180C
1C180C
1C1FFC
1C180C
1C180C
1C180C
1C1FFC
1C181C
181008
ENDCHAR
STARTCHAR C227e
ENCODING 8830
SWIDTH 400 0
DWIDTH 24 0
BBX 24 24 0 -2
BITMAP
1C0300
1C0610
1C0C1C
1C1FFC
1C0804
1C1010
3E3818
7F3233
7FFF7F
DD6361
DC0180
9C03C0
1C0670
1C0D3C
1C19CF
1C7187
1CC180
1C11A4
1C3192
1C319B
1C619B
1C0F80
1C0700
180200
ENDCHAR
STARTCHAR C2321
ENCODING 8993
SWIDTH 400 0
DWIDTH 24 0
BBX 24 24 0 -2
BITMAP
1C0000
1C0E06
1C7E7E
1C1818
1C1818
1C1A1A
3EFFFF
7F181C
7FBC3E
DD3633
DC6363
9C6343
1CD098
1C1FFC
1C180C
1C180C
1C180C
1C1FFC
1C180C
1C180C
1C180C
1C1FFC
1C181C
181008
ENDCHAR
STARTCHAR C2322
ENCODING 8994
SWIDTH 400 0
DWIDTH 24 0
BBX 24 24 0 -2
BITMAP
1C0300
1C0300
1C220E
1C3FFF
1C3006
1C3FFE
3E3006
7F3006
7FBFFE
DD3006
DC3FFE
9C01E4
1C01C0
1C3DDE
1C01C0
1C01C0
1C3DDE
1C01C0
1C01C0
1C7FFF
1C01C0
1C01C0
1C01C0
180180
ENDCHAR
STARTCHAR C2323
ENCODING 8995
SWIDTH 400 0
DWIDTH 24 0
BBX 24 24 0 -2
BITMAP
0701C8
0701CC
0631C6
FFF9C3
0601C0
0621C2
7FFFFF
4001C0
7FF9C0
C039C4
C1A1C6
9F81C6
00E0C6
07E0CC
3E00CC
063078
FFF870
0F0070
1EC071
1E60F9
36619F
66030F
860607
061803
ENDCHAR
STARTCHAR C2324
ENCODING 8996
SWIDTH 400 0
DWIDTH 24 0
BBX 24 24 0 -2
BITMAP
0381C0
0381C0
0399B0
7FFD9C
03818C
038182
FFFFFF
020180
038180
3FF180
032180
3FF188
06018E
FFFD9C
0C41D8
1831F0
3FFCF0
FC6CE0
1FE0E1
1C61F1
1C633B
1FEE1F
00180F
007007
ENDCHAR
STARTCHAR C2325
ENCODING 8997
SWIDTH 400 0
DWIDTH 24 0
BBX 24 24 0 -2
BITMAP
0381C0
0381D0
7FFD9C
03818E
3FF986
038182
FFFFFF
030180
FFFD80
331180
333180
7FF18E
23258C
03059C
03FDD8
0021F0
3FF0F0
3070E0
3FF0E1
3871F1
30733B
3FE61F
30180F
007007
ENDCHAR
STARTCHAR C2326
ENCODING 8998
SWIDTH 400 0
DWIDTH 24 0
BBX 24 24 0 -2
BITMAP
000064
000067
000063
7FFFFF
6000E0
67FE60
666060
67FC60
660E67
67FC66
666266
6FFE66
60C066
60666C
67FF6C
66766C
66FE7C
679E38
671E38
660639
66067D
E61ECF
C40587
800703
ENDCHAR
STARTCHAR C2327
ENCODING 8999
SWIDTH 400 0
DWIDTH 24 0
BBX 24 24 0 -2
BITMAP
000060
FFF86C
E19866
E1D863
E1F860
E19862
FFFBFF
E198E0
E19860
E19860
FFF867
F7F867
F7F866
F7D866
F7D86E
FED83C
F6F83C
E6F838
FDF838
F37879
E238CD
E4198F
FFFB07
C00E03
ENDCHAR
STARTCHAR C2328
ENCODING 9000
SWIDTH 400 0
DWIDTH 24 0
BBX 24 24 0 -2
BITMAP
0601C8
0621CC
07F1C6
0601C3
6731C0
7FF9C2
672FFF
6701C0
7FE1C0
6601C4
67E1C6
63E1C6
6060C6
63F0CC
6FA0CC
6BB078
67A070
7FF870
638071
E380F9
C3819F
C7830F
870607
061803
ENDCHAR
STARTCHAR C2329
ENCODING 9001
SWIDTH 400 0
DWIDTH 24 0
BBX 24 24 0 -2
BITMAP
0701C8
4731CC
E631C6
E631C3
FFF1C0
0001C2
0067FF
7FF1C0
6071C0
6071C4
7FF1C6
6071C6
6070C6
7FE0CC
0700CC
071078
663070
366070
37C071
0F80F9
0CC19F
18E30F
306607
C03803
ENDCHAR
STARTCHAR C232a
ENCODING 9002
SWIDTH 400 0
DWIDTH 24 0
BBX 24 24 0 -2
BITMAP
0001C0
0001D8
00018C
000186
000182
FFFFFF
003180
7FF980
631980
7FF98E
63398E
63198C
7FF98C
1CE198
7FF9D8
1CC1F0
1CC0E0
FFFCE0
1C60E1
1C31F1
301B39
E00E1F
00180F
00E007
ENDCHAR
STARTCHAR C232b
ENCODING 9003
SWIDTH 400 0
DWIDTH 24 0
BBX 24 24 0 -2
BITMAP
00E01E
23E67E
3F07C0
300606
3047FF
3FE607
306607
3067FE
306600
306E00
3FEC00
305C1E
3017FE
300600
30E606
7FF7FF
7C6607
7C6607
FC67FE
DC6600
DC6E00
9FEC00
1C6800
005000
ENDCHAR
STARTCHAR C232c
ENCODING 9004
SWIDTH 400 0
DWIDTH 24 0
BBX 24 24 0 -2
BITMAP
003000
201804
3FFFFE
600006
67001C
C77FF8
0E0C30
1C7FF8
3C7038
7C7FF8
4C7038
0C7038
0C7FF0
0C0000
0007F0
1FFFF0
001800
3FFFFC
001800
FFFFFF
001800
00F800
003800
003000
ENDCHAR
STARTCHAR C232d
ENCODING 9005
SWIDTH 400 0
DWIDTH 24 0
BBX 24 24 0 -2
BITMAP
001800
000C00
300606
3FFFFF
30E038
30F832
3FFBFE
31E078
31F8FC
33D9B7
36C333
3CC630
30C020
3001F8
31FFF8
300600
33FFFC
300602
77FFFF
600600
600600
C07E00
801E00
000C00
ENDCHAR
STARTCHAR C232e
ENCODING 9006
SWIDTH 400 0
DWIDTH 24 0
BBX 24 24 0 -2
BITMAP
180600
0C4604
7FE7FE
0C0C00
0CDF08
0FD7FC
0CC4C0
1CC8C4
18DFFE
18C1A0
30C318
678606
C31803
0000E0
01FFF0
1F1800
001C0C
3FFFFC
FFFFFF
001C00
001800
00F800
007800
003000
ENDCHAR
STARTCHAR C232f
ENCODING 9007
SWIDTH 400 0
DWIDTH 24 0
BBX 24 24 0 -2
BITMAP
001800
000C00
300C06
3FFFFF
30200C
33704E
33FE6C
36706C
34736C
3FFF6C
32766C
33FE4C
33760C
337E3C
3260E8
30FFE0
300600
63FFFC
600600
6FFFFE
600600
C03E00
800E00
000C00
ENDCHAR
STARTCHAR C2330
ENCODING 9008
SWIDTH 400 0
DWIDTH 24 0
BBX 24 24 0 -2
BITMAP
000004
033E7E
7F1838
181838
181838
3F7FFE
731838
F31838
B31838
3F3038
326030
00C000
008FF0
01FFF0
1F1800
001808
3FFFFC
001800
FFFFFF
001C00
001800
01F800
007800
003000
ENDCHAR
STARTCHAR C2331
ENCODING 9009
SWIDTH 400 0
DWIDTH 24 0
BBX 24 24 0 -2
BITMAP
0C1C00
1C1C0C
311FFE
33300E
1E78CC
0D5FCC
3398CC
7FDFCC
70C00C
0181FC
26C038
624010
400FF0
01FFF0
1F1800
001808
3FFFFC
001800
FFFFFF
001C00
001800
01F800
007800
003000
ENDCHAR
STARTCHAR C2332
ENCODING 9010
SWIDTH 400 0
DWIDTH 24 0
BBX 24 24 0 -2
BITMAP
1C0000
1C0607
1C7E7F
1C3030
1C3636
1D3E3E
FF6666
1C7666
1CDCDC
1C8C8C
1C1818
1F3030
1C61E0
FC01C0
FC01C2
5C7FFF
1C01C0
1C1DC8
1C19CC
1C31C6
1C21C7
FC41C3
3881C1
300180
ENDCHAR
STARTCHAR C2333
ENCODING 9011
SWIDTH 400 0
DWIDTH 24 0
BBX 24 24 0 -2
BITMAP
1C3070
1C1870
1C096C
1CFFE6
1C0363
1D6360
FF3360
1C1662
1CFFFF
1C0060
1C0260
1F7F62
1C6367
FC6366
FC6336
5C7F3C
1C673C
1C6338
1C6338
1C6739
1C7E6D
FC40CF
380187
300603
ENDCHAR
STARTCHAR C2334
ENCODING 9012
SWIDTH 400 0
DWIDTH 24 0
BBX 24 24 0 -2
BITMAP
1C0300
1C0180
1C00C6
1CFFFF
1C1000
1D1FFC
FF18C0
1C1FFC
1C18C0
1C1FFC
1C18C0
1F18C2
1C1FFF
FC0407
FC0E1F
5C0D37
1C1DEE
1C18C6
1C38C0
1C7860
1CD8B8
FC1F9F
381E0F
300C06
ENDCHAR
STARTCHAR C2335
ENCODING 9013
SWIDTH 400 0
DWIDTH 24 0
BBX 24 24 0 -2
BITMAP
1C01C0
1C01C0
1C218E
1C319C
1C19B0
1D0B80
FF0360
1C0330
1C061C
1C0C0E
1C1807
1FE000
1C1838
FC1838
FCDB3B
5C7BFE
1C7E7C
1C1878
1C1C38
1C322C
1C3364
FC63C6
38C183
318301
ENDCHAR
STARTCHAR C2336
ENCODING 9014
SWIDTH 400 0
DWIDTH 24 0
BBX 24 24 0 -2
BITMAP
1C0004
1C000E
1C1FFF
1C0FE6
1C0386
1D0326
FF1FF6
1C0006
1C3FFC
1C33F8
1C30E0
1F306C
1C77FC
FC7007
FC7FFF
5C1027
1C1FF7
1C1867
1C1FE7
1C1067
1C0006
FC0FFE
38007C
300038
ENDCHAR
STARTCHAR C2337
ENCODING 9015
SWIDTH 400 0
DWIDTH 24 0
BBX 24 24 0 -2
BITMAP
1C01C0
1C01C0
1C01C6
1C3FFE
1C01C0
1D1FFE
FF19CE
1C19CC
1C1FFC
1C19CC
1C1FFC
1F11CC
1C01FE
FC3FE6
FC3E03
5C10C0
1C0460
1C0E20
1C1E0C
1C3E06
1C3E1B
FC6FF3
3847F0
3003E0
ENDCHAR
STARTCHAR C2338
ENCODING 9016
SWIDTH 400 0
DWIDTH 24 0
BBX 24 24 0 -2
BITMAP
1C0000
1C4307
1C7F7F
1C4C47
1C6C26
1D7F26
FF433C
1C6318
1C7E3C
1C4C66
1C6CC7
1F7F93
1C00F8
FC1FC0
FC01C0
5C3FFE
1C01C0
1C01C2
1CFFFF
1C01C0
1C01C0
FC1FC0
380780
300300
ENDCHAR
STARTCHAR C2339
ENCODING 9017
SWIDTH 400 0
DWIDTH 24 0
BBX 24 24 0 -2
BITMAP
1C0000
1C0007
1C01FF
1C0C30
1CFD24
1D31FE
FF3186
1C3186
1C3186
1C31FE
1C3186
1F3186
1C3186
FC3186
FC31FE
5C3186
1C3D86
1C3986
1DE1FE
1CC0C0
1C00C6
FC0183
380303
300401
ENDCHAR
STARTCHAR C233a
ENCODING 9018
SWIDTH 400 0
DWIDTH 24 0
BBX 24 24 0 -2
BITMAP
1C0000
1C0007
1C7FFF
1C0360
1C0366
1D7F7F
FF7367
1C7367
1C7367
1C7F7F
1C6776
1F0360
1C0364
FC377E
FC3FFF
5C31C6
1C31C6
1C31C6
1C3FFE
1C31C6
1C31C6
FC31C6
383FFE
303006
ENDCHAR
STARTCHAR C233b
ENCODING 9019
SWIDTH 400 0
DWIDTH 24 0
BBX 24 24 0 -2
BITMAP
1C1800
1C1867
18187F
18FF67
183867
1A1867
FEFF67
18C777
18C37F
18C367
18FF67
1CC367
38C367
F8C777
F8FE7F
589867
181867
19FF67
181867
1818C7
1818C7
F819BF
38190E
30120C
ENDCHAR
STARTCHAR C233c
ENCODING 9020
SWIDTH 400 0
DWIDTH 24 0
BBX 24 24 0 -2
BITMAP
38C700
38C71C
30C618
30C618
30C61B
33FF9F
FCC618
30C618
31CE1A
31EF7F
31EFA7
33FFE7
3BFEA7
F3DE26
F6D636
76D61C
30E61C
30C61C
30C61C
30C636
30C676
F0C663
70C643
208681
ENDCHAR
STARTCHAR C233d
ENCODING 9021
SWIDTH 400 0
DWIDTH 24 0
BBX 24 24 0 -2
BITMAP
1C01C0
1C11CE
1C09CC
1C0DD8
1C17F7
1D3FFF
FF680E
1C4FFC
1C0C18
1C0C18
1C0C18
1F0FF8
1C09D0
FC01C0
FC01C6
5C7FFF
1C01C0
1C11C0
1C19C8
1C19C4
1C31C6
FC61C3
38C1C1
308180
ENDCHAR
STARTCHAR C233e
ENCODING 9022
SWIDTH 400 0
DWIDTH 24 0
BBX 24 24 0 -2
BITMAP
1C0200
1C7767
1C7F7F
1C7367
1C7367
1D7367
FF7F7F
1C7777
1C7367
1C7367
1C7367
1F7F7F
1C6266
FC0100
FC00E0
5C0E60
1C0E20
1C2E04
1C6E02
1C6E0B
1CEE0B
FCCFF8
3807F8
3003F0
ENDCHAR
STARTCHAR C233f
ENCODING 9023
SWIDTH 400 0
DWIDTH 24 0
BBX 24 24 0 -2
BITMAP
1C0738
1C0738
1C7E3F
1C0630
1C0624
1D3FFE
FF01C0
1C01C2
1C7FFF
1C01C0
1C01C0
1F0180
1C0300
FC0180
FC3FC2
5C00C7
1C0CEC
1CFEF8
1C0ED0
1C0CD8
1C18CF
FC67C7
3981C2
300180
ENDCHAR
STARTCHAR C2340
ENCODING 9024
SWIDTH 400 0
DWIDTH 24 0
BBX 24 24 0 -2
BITMAP
1C00E0
1C00E0
1C1CC4
1C18FE
1C18C0
1D18C0
FF18C2
1CFFFF
1C1800
1C1C07
1C1B07
1F3FB7
1C73B7
FC7B37
FC7F37
5C73B7
1DFFB7
1DF337
1C7F37
1C7F37
1C6327
FC6307
38DF1E
318206
ENDCHAR
STARTCHAR C2341
ENCODING 9025
SWIDTH 400 0
DWIDTH 24 0
BBX 24 24 0 -2
BITMAP
1C0E38
1C0E38
1C0C30
1C1C6C
1C1E66
1D33C3
FF69A3
1CCF38
1C0C30
1C0C38
1C1E6C
1F1346
1C2383
FC4101
FC100C
5C1FFE
1C180C
1C180C
1C1FFC
1C180C
1C180C
FC180C
381FFC
30100C
ENDCHAR
STARTCHAR C2342
ENCODING 9026
SWIDTH 400 0
DWIDTH 24 0
BBX 24 24 0 -2
BITMAP
1C1838
1C1838
1C1932
1C3FBF
1C3266
1D63C3
FF5C80
1C1C00
1C180E
1C3FFF
1C3006
1F70C6
1CDFE6
FC18C6
FC18C6
5C1FC6
1C18C6
1C18C6
1C1FC6
1C10CE
1C000C
FC03FC
380078
300030
ENDCHAR
STARTCHAR C2343
ENCODING 9027
SWIDTH 400 0
DWIDTH 24 0
BBX 24 24 0 -2
BITMAP
1C11C0
1DB9C0
19F980
199B06
199BFF
199A07
FF9CC7
19B8DF
19FADF
199BD7
1999C7
1D98C7
399BFF
F9F8C7
F99BD7
599BDF
199ACF
199ACF
199CC7
1998C7
1B9807
FB787E
3A383C
323008
ENDCHAR
STARTCHAR C2344
ENCODING 9028
SWIDTH 400 0
DWIDTH 24 0
BBX 24 24 0 -2
BITMAP
1C007E
1C07FE
1C3DC0
1C01C8
1C1DCC
1D19CC
FF1DDC
1C37F6
1C67E3
1C01C8
1C1DCC
1F19CC
1C1DDC
FC37F6
FC67E3
5C01C0
1C01C0
1C3FFE
1C01C0
1C01C0
1C01C0
FC01C6
38FFFF
300000
ENDCHAR
STARTCHAR C2345
ENCODING 9029
SWIDTH 400 0
DWIDTH 24 0
BBX 24 24 0 -2
BITMAP
1C118C
1C318C
1C2318
1C6210
1C318C
1D18C4
FF3FFC
1C718C
1C718C
1C734C
1C762C
1F602C
1C0008
FC3FFC
FC318C
5C318C
1C3FFC
1C318C
1C318C
1C3FFD
1C718D
FC618F
38C187
318183
ENDCHAR
STARTCHAR C2346
ENCODING 9030
SWIDTH 400 0
DWIDTH 24 0
BBX 24 24 0 -2
BITMAP
060180
0E4180
7FC198
FFFFFC
318198
27C798
46F398
CE43D9
3FC6D9
060C5F
FFF80F
FC3006
401800
003807
FFFFFF
001840
0FFFE0
0300E0
00C380
007E00
003F00
00F3FF
07007F
FC000F
ENDCHAR
STARTCHAR C2347
ENCODING 9031
SWIDTH 400 0
DWIDTH 24 0
BBX 24 24 0 -2
BITMAP
1C0060
1C4060
FFE060
E06060
E06062
FFFFFF
E06060
E06060
FFE060
40006C
0007FE
FFE20E
30C20C
64C30C
467118
8601B8
0E40F0
7FC0E0
0600F0
0601F8
06039C
FFE70F
F80E07
603803
ENDCHAR
STARTCHAR C2348
ENCODING 9032
SWIDTH 400 0
DWIDTH 24 0
BBX 24 24 0 -2
BITMAP
060300
076302
3FE3FF
06070C
7FF78C
0F0CD8
1EC078
36607C
6631CF
C60F07
200C02
3FFFFF
300C04
300C0E
300FFE
300C10
37FFF8
318078
30E0E0
603980
600F00
403FFF
C0C07F
BF001F
ENDCHAR
STARTCHAR C2349
ENCODING 9033
SWIDTH 400 0
DWIDTH 24 0
BBX 24 24 0 -2
BITMAP
070380
071380
FFFB02
0603FF
7FF70C
E6350C
E6389C
C6F0F8
0F0070
1EE0F8
3671DC
66330F
861C03
060000
7FFFFE
000E00
000E00
070E00
060FF8
060E00
060E00
060E00
0E0E07
FFFFFF
ENDCHAR
STARTCHAR C234a
ENCODING 9034
SWIDTH 400 0
DWIDTH 24 0
BBX 24 24 0 -2
BITMAP
0001C0
0031C0
FFF180
C00180
CCC180
CFE302
CCC3FF
CCC30C
CCC30C
CFC70C
C0050C
C00198
DEF098
DFB098
D6B0F8
D6B070
D6B060
DEF070
D6A0F0
C001D8
C0039C
7FF70F
3FFE07
003803
ENDCHAR
STARTCHAR C234b
ENCODING 9035
SWIDTH 400 0
DWIDTH 24 0
BBX 24 24 0 -2
BITMAP
060060
066060
7FF060
667060
677062
FFF07F
667060
7FE060
060060
7FF066
6777FE
66720E
7FF20C
06010C
38C118
FFF1B8
38E0F0
30C0E0
79C0F0
6F81F8
07C39C
0E770F
183E07
E03803
ENDCHAR
STARTCHAR C234c
ENCODING 9036
SWIDTH 400 0
DWIDTH 24 0
BBX 24 24 0 -2
BITMAP
0601C0
0661C0
7FF180
667180
667180
7FF302
0603FF
FFFB0C
06030C
7FF70C
67750C
667198
7FF098
060098
38C0F8
FFF070
38E060
30C070
79C0F0
6F81D8
07C39C
0E770F
183E07
E03803
ENDCHAR
STARTCHAR C234d
ENCODING 9037
SWIDTH 400 0
DWIDTH 24 0
BBX 24 24 0 -2
BITMAP
2060E0
3FE0E0
3660C0
3660C0
FFF8C2
66C0FF
66C0C0
7FC0C0
0040C0
FFE0C6
E06FFE
E0620E
FFE20C
E0630C
E06118
FFE1B8
E060F0
E060E0
FFE0F0
7081F8
30E39C
60770F
C03E07
803803
ENDCHAR
STARTCHAR C234e
ENCODING 9038
SWIDTH 400 0
DWIDTH 24 0
BBX 24 24 0 -2
BITMAP
038060
038060
031860
03F860
030062
FFF87F
CC1860
CC1060
FFF060
CC0066
CC07FE
CFF20E
C7F20C
C0010C
DFF918
DBB9B8
DBB0F0
DBB0E0
DFF0F0
DBB1F8
DBB39C
DFF70F
983E07
103803
ENDCHAR
STARTCHAR C234f
ENCODING 9039
SWIDTH 400 0
DWIDTH 24 0
BBX 24 24 0 -2
BITMAP
030038
030838
03FC30
030030
7FF830
60D83F
6CD830
679830
679830
6ED836
787BFF
7FF907
030087
431886
FFFCCE
E61C4C
E6187C
EC5838
FFF838
F87878
E018CC
E0198F
E0FB07
C01E03
ENDCHAR
STARTCHAR C2350
ENCODING 9040
SWIDTH 400 0
DWIDTH 24 0
BBX 24 24 0 -2
BITMAP
01F1C0
1FF9C0
F60180
E63180
E73180
7FF302
4613FF
E6330C
FFF30C
06070C
46350C
E63198
FFF098
060098
0700F8
060070
764060
662070
6630F0
4619D8
C61B9C
86070F
3E0E07
043803
ENDCHAR
STARTCHAR C2351
ENCODING 9041
SWIDTH 400 0
DWIDTH 24 0
BBX 24 24 0 -2
BITMAP
1C3038
1DB238
1DB238
19B238
11B238
31B23F
61FE38
C03038
903038
1DFE3A
1831FF
183047
183247
5FFF46
DE306E
DE706C
98783C
18F438
18F638
19B378
1930CC
1A318F
183307
183603
ENDCHAR
STARTCHAR C2352
ENCODING 9042
SWIDTH 400 0
DWIDTH 24 0
BBX 24 24 0 -2
BITMAP
0701C0
0C01C0
30E180
F3C180
1E0180
1CC302
73E3FF
FE630C
F6330C
47070C
07150C
7FF198
061098
FFF898
3060F8
18C070
188060
7FF070
0600F0
0711D8
FFF39C
06070F
060E07
063803
ENDCHAR
STARTCHAR C2353
ENCODING 9043
SWIDTH 400 0
DWIDTH 24 0
BBX 24 24 0 -2
BITMAP
0601C0
0E41C0
7FC198
061FFC
FFE198
318798
67F398
8603D9
7FC3D9
06065F
060C0F
FFF806
F01000
401800
00080E
7FFFFE
030180
018300
00E600
007C00
007F00
01C3FF
06007F
F8001F
ENDCHAR
STARTCHAR C2354
ENCODING 9044
SWIDTH 400 0
DWIDTH 24 0
BBX 24 24 0 -2
BITMAP
038300
1FC1C0
F800C0
10C042
9CFFFF
6C8818
650818
000C18
0E0418
0E0638
0C0630
FFC234
0C0266
0C036C
7D01DE
6D81F6
6CC1EF
6CC3FB
6CC776
CCCE3C
CC5C1C
8C380F
0C7007
0DC003
ENDCHAR
STARTCHAR C2355
ENCODING 9045
SWIDTH 400 0
DWIDTH 24 0
BBX 24 24 0 -2
BITMAP
00300E
FFF80E
E0180C
FFFBFF
E0000E
FFF10C
E000CC
FFF8CC
F3804C
DBB00C
B3980C
A3887C
43000C
000080
00E1C0
0031C0
0019C0
0601C0
0381C0
0181C6
FFFFFF
0001C0
0001C0
000180
ENDCHAR
STARTCHAR C2356
ENCODING 9046
SWIDTH 400 0
DWIDTH 24 0
BBX 24 24 0 -2
BITMAP
180000
0C0007
0CBFFF
FFC360
300364
303FFE
303366
333366
3FB366
33BFFE
33B004
338000
339FFC
338000
338000
338002
33FFFF
6381C0
6399C8
6399CC
6391C6
FF21C3
CE41C1
840180
ENDCHAR
STARTCHAR C2357
ENCODING 9047
SWIDTH 400 0
DWIDTH 24 0
BBX 24 24 0 -2
BITMAP
00C300
7FE307
00C7FF
1D04DC
060878
FFF0FF
0F738F
1F5CE2
3B0FFE
730186
C30306
1F063E
061C0C
000000
100030
1FFFF8
180038
180038
1FFFF8
180038
180038
180038
1FFFF8
180030
ENDCHAR
STARTCHAR C2358
ENCODING 9048
SWIDTH 400 0
DWIDTH 24 0
BBX 24 24 0 -2
BITMAP
060060
064062
FFE7FF
060060
0E4074
3FC3FC
060060
FFE7FF
F60060
460060
1FFFF0
00003A
FFFFFF
000038
000038
1FFFF0
000000
1FFFF8
180038
180038
1FFFF8
180038
1FFFF8
180030
ENDCHAR
STARTCHAR C2359
ENCODING 9049
SWIDTH 400 0
DWIDTH 24 0
BBX 24 24 0 -2
BITMAP
00C300
00C300
00C306
FFFFFF
00C300
20C31C
3FFFFC
30C30C
30C30C
3FFFFC
30C30C
30C30C
3FFFFC
000000
20C41C
3FE7FC
30C60C
30C60C
3FC7FC
30C61C
30C60C
30C60C
3FC7FC
200608
ENDCHAR
STARTCHAR C235a
ENCODING 9050
SWIDTH 400 0
DWIDTH 24 0
BBX 24 24 0 -2
BITMAP
100030
1FFFF8
180038
1FFFF8
180038
180038
1FFFF0
001808
3FFFFC
0600C0
0301C2
FFFFFF
0E1830
1C381C
387E0F
E1D3C7
0318F8
0C303C
30780C
00C600
0183E0
0700FF
1C003F
F00007
ENDCHAR
STARTCHAR C235b
ENCODING 9051
SWIDTH 400 0
DWIDTH 24 0
BBX 24 24 0 -2
BITMAP
000380
000182
467FFF
FF0000
E73274
E63166
E631C6
E631E6
E63336
E63416
E63006
FE1FFC
E601C0
E671C7
E67FFF
E671C7
E671DF
E671FF
FE7FCF
C67E07
007007
00707F
00701E
00600C
ENDCHAR
STARTCHAR C235c
ENCODING 9052
SWIDTH 400 0
DWIDTH 24 0
BBX 24 24 0 -2
BITMAP
000838
000E38
460632
FF7FFF
E701C0
E601C0
E601C0
E601C4
E61FFC
E601C0
E601C0
FE01C2
E67FFF
E60000
E6200E
E63FFF
E63366
E63366
FE3366
C63366
003366
003366
00FFFF
000000
ENDCHAR
STARTCHAR C235d
ENCODING 9053
SWIDTH 400 0
DWIDTH 24 0
BBX 24 24 0 -2
BITMAP
001800
001807
08187F
FCFF70
CE3860
CC1860
CCFF60
CCBB73
CC9B7F
CC9B66
CCFF66
FC9B66
CC9B66
CCBB66
CCFF66
CC1866
CC3966
CCFF66
FC1866
CC1846
8018C6
001986
001906
001206
ENDCHAR
STARTCHAR C235e
ENCODING 9054
SWIDTH 400 0
DWIDTH 24 0
BBX 24 24 0 -2
BITMAP
000000
000007
467FFF
FF7000
E77338
E673FC
E67318
E67318
E67318
E673F8
E67300
FE7000
E67FBE
E67DB6
E67DB6
E67DB6
E67DB6
E67FBE
FE7CB2
C67000
007000
003FFF
001FFF
000000
ENDCHAR
STARTCHAR C235f
ENCODING 9055
SWIDTH 400 0
DWIDTH 24 0
BBX 24 24 0 -2
BITMAP
000000
100038
1FFFF8
180038
1FFFF8
180038
1FFFF8
183830
101804
3FFFFE
003820
071870
0E18F8
1999CC
66DF26
0F1870
1F18D8
31DB86
40DE02
FFFFFF
001800
001800
001800
001000
ENDCHAR
STARTCHAR C2360
ENCODING 9056
SWIDTH 400 0
DWIDTH 24 0
BBX 24 24 0 -2
BITMAP
000000
100038
1FFFF8
180038
1FFFF8
180038
1FFFF8
180000
10100C
031FFE
FF980C
E3980C
E39FFC
E3980C
FF980C
E39FFC
E3990E
FF989C
E39870
E39830
E39B1C
FF1E0F
401C07
000800
ENDCHAR
STARTCHAR C2361
ENCODING 9057
SWIDTH 400 0
DWIDTH 24 0
BBX 24 24 0 -2
BITMAP
600000
600006
7F4CFE
7C7E38
DC6E38
9C6E3A
FF6FFF
1C6E38
186E38
1E7E38
336C38
63C038
C10010
080030
1FFFF8
1C0030
1C0030
1C0030
1FFFF0
1C0030
1C0030
1C0030
1FFFF0
180030
ENDCHAR
STARTCHAR C2362
ENCODING 9058
SWIDTH 400 0
DWIDTH 24 0
BBX 24 24 0 -2
BITMAP
30130E
32198E
7F30EC
E3207C
E3606C
FF1FEC
E319CC
E319CC
FF19CC
E331CC
E36F8C
FFC30C
400000
100038
1FFFF8
180038
180038
180038
1FFFF8
180038
180038
180038
1FFFF8
180030
ENDCHAR
STARTCHAR C2363
ENCODING 9059
SWIDTH 400 0
DWIDTH 24 0
BBX 24 24 0 -2
BITMAP
060070
064072
FFE7FF
060060
0E4076
7FC3FE
060060
FFE7FF
FE0060
460060
040000
1FFFF8
180018
180018
1FFFF8
180018
180018
1FFFF8
080030
040060
060040
060086
FFFFFF
000000
ENDCHAR
STARTCHAR C2364
ENCODING 9060
SWIDTH 400 0
DWIDTH 24 0
BBX 24 24 0 -2
BITMAP
0201C0
6711CE
7F8DCC
630DD8
633FFE
630180
630302
637FFF
7F0630
630C1C
63180F
633007
636006
631FFE
7F19CE
6319CC
6319CC
631FFC
6319CC
6319CC
E319CC
DF1FFC
8E180C
841000
ENDCHAR
STARTCHAR C2365
ENCODING 9061
SWIDTH 400 0
DWIDTH 24 0
BBX 24 24 0 -2
BITMAP
1C0180
1C00C0
1820C2
187FFF
187000
FF713C
1871B8
39F1B8
38F1B8
3CFDB8
3E7DBB
7E7DFF
7A7DB8
D87DB8
D9FDB8
9B7DB8
1B6DB8
186DB8
186DB8
18CDB9
18CDB9
18DFFF
19BE1F
18180E
ENDCHAR
STARTCHAR C2366
ENCODING 9062
SWIDTH 400 0
DWIDTH 24 0
BBX 24 24 0 -2
BITMAP
007060
047060
0670C8
3FFFFC
00C000
018002
7FFFFE
066040
0CF030
19C19F
3B8FEF
EFFC67
060020
07FFE0
060060
060060
07FFE0
001802
FFFFFF
003800
0718E0
1E183C
30180E
C01002
ENDCHAR
STARTCHAR C2367
ENCODING 9063
SWIDTH 400 0
DWIDTH 24 0
BBX 24 24 0 -2
BITMAP
001800
00180C
7FFFFE
001800
003818
1FFFF8
200006
7FFFFF
EC0007
CFFFF4
0C3800
181804
7FFFFE
181818
181838
3FFFF0
001800
001806
FFFFFF
061800
0E1870
18181C
60180E
801002
ENDCHAR
STARTCHAR C2368
ENCODING 9064
SWIDTH 400 0
DWIDTH 24 0
BBX 24 24 0 -2
BITMAP
1C0180
1C0086
1C3FFF
1C7007
1C6004
FF4FFC
1C000C
1C7FFF
1C000C
3E0FFC
3F0000
3F9006
7D3FFF
7C61C6
5C61C0
DC1FFC
9C19CC
1C19CC
1C19CC
1C19CC
1C19FC
1C19CC
1C01C0
180180
ENDCHAR
STARTCHAR C2369
ENCODING 9065
SWIDTH 400 0
DWIDTH 24 0
BBX 24 24 0 -2
BITMAP
1C7000
1C7007
1873FF
187060
187064
FE71FE
18F186
38F9E6
39FDB6
3DF596
3E7186
7E77FF
7A7186
D871E6
D871B6
987196
187186
187186
187306
18721E
18740C
187000
1877FF
186000
ENDCHAR
STARTCHAR C236a
ENCODING 9066
SWIDTH 400 0
DWIDTH 24 0
BBX 24 24 0 -2
BITMAP
1C0180
1C00C0
1C20C2
1C7FFF
1D7208
FFF30C
1C730C
1C7FFF
1C730C
3E730C
3F731C
3FF3F8
7D7060
7C7060
5C7C63
DC7666
9C72E8
1C60F0
1C6190
1C4308
1CC60C
1D8C0F
1D1807
187003
ENDCHAR
STARTCHAR C236b
ENCODING 9067
SWIDTH 400 0
DWIDTH 24 0
BBX 24 24 0 -2
BITMAP
1C0180
1C0082
1C7FFF
1C0C1C
1D0638
FF8370
1C01E0
1C0378
1C0E1F
3E7807
3F1FFC
3F980C
7D180C
7C1FFC
5C0000
DC1FFC
9C180C
1C1BCC
1C18EC
1C182C
1C37EC
1C670C
1CC27C
198008
ENDCHAR
STARTCHAR C236c
ENCODING 9068
SWIDTH 400 0
DWIDTH 24 0
BBX 24 24 0 -2
BITMAP
1C0000
1C0007
1C7FFF
1C0364
1D377E
FFBFFF
1C3366
1C3366
1C33E6
3E2304
3F0302
3FFFFF
7D0630
7C0C18
5C180F
DC3FFF
9C6C1A
1C8C18
1C0C78
1C0C3A
1C0C06
1C0FFE
1C0FFE
1803FC
ENDCHAR
STARTCHAR C236d
ENCODING 9069
SWIDTH 400 0
DWIDTH 24 0
BBX 24 24 0 -2
BITMAP
380238
388738
30FF38
30C338
30C33A
FEC3FF
30C338
30C338
30FF38
389A7C
7C187C
7E187E
F6D8FE
F0DAFB
B0DFBB
B0D9BA
30D838
30D838
319838
31D838
31F838
333FB8
360F38
340030
ENDCHAR
STARTCHAR C236e
ENCODING 9070
SWIDTH 400 0
DWIDTH 24 0
BBX 24 24 0 -2
BITMAP
1C00C0
1C00C4
1C00FE
1C00C0
1D3FFF
FFB183
1C3186
1C3FFE
1C3180
3E31FC
3F30FE
3FB400
7D37FF
7C3667
5C3667
DC37FF
9C3667
1C3667
1C77FE
1C6660
1C6060
1C4060
1C8060
180060
ENDCHAR
STARTCHAR C236f
ENCODING 9071
SWIDTH 400 0
DWIDTH 24 0
BBX 24 24 0 -2
BITMAP
1C00C0
1C00C4
1C00FE
1C00C0
1D30C7
FFBFFF
1C3186
1C3184
1C3FFC
3E3180
3F31FE
3FB07C
7D303E
7C31FE
5C3764
DC3266
9C336C
1C3FFF
1C7060
1C6060
1C6060
1CC3E0
1D80E0
1800C0
ENDCHAR
STARTCHAR C2370
ENCODING 9072
SWIDTH 400 0
DWIDTH 24 0
BBX 24 24 0 -2
BITMAP
1C1818
1C1818
18FF7F
181818
181818
FF0020
183038
381830
381B30
3C03B6
3E8B33
7E6B33
7A6B33
D81A30
D81432
981037
183026
18F00C
18E018
186030
187060
1871C0
183300
180E00
ENDCHAR
STARTCHAR C2371
ENCODING 9073
SWIDTH 400 0
DWIDTH 24 0
BBX 24 24 0 -2
BITMAP
1C1830
1C1830
1C1FBF
1C366C
1D6346
FFC000
1C0300
1C0300
1C0610
3E0C08
3F1804
3FB03E
7D7FF3
7C7003
5C1001
DC0006
9C3FFE
1C3006
1C3006
1C3006
1C3006
1C3006
1C3FFE
183006
ENDCHAR
STARTCHAR C2372
ENCODING 9074
SWIDTH 400 0
DWIDTH 24 0
BBX 24 24 0 -2
BITMAP
1C7000
1C7007
1861FF
18FDB8
18CDB8
FECDB8
18FDB8
38CDB8
38CDB8
3CCDB8
3EFFFF
7E8930
7AC030
D8C030
D8FC7C
98C07C
18C07C
18C66C
18C4EC
18FCCD
187DCD
18018F
18030F
180E06
ENDCHAR
STARTCHAR C2373
ENCODING 9075
SWIDTH 400 0
DWIDTH 24 0
BBX 24 24 0 -2
BITMAP
1C3038
1C3038
187330
1863B0
18C336
FEC33E
199B30
391B30
383332
3C77FF
3E6030
7EE030
7AE230
D9E3B0
D8633E
986330
186330
186330
186730
186730
1866B0
186C7F
18683F
18700C
ENDCHAR
STARTCHAR C2374
ENCODING 9076
SWIDTH 400 0
DWIDTH 24 0
BBX 24 24 0 -2
BITMAP
1C01C0
1C01C0
1C03E0
1C0730
1D0E18
FF9FEF
1C3807
1C701A
1C4FFC
3E0030
3F0024
3FBFFE
7D0360
7C0364
5C3FFE
DC3366
9C3266
1C367E
1C3C3E
1C3006
1C37F6
1C3006
1C3006
183FFE
ENDCHAR
STARTCHAR C2375
ENCODING 9077
SWIDTH 400 0
DWIDTH 24 0
BBX 24 24 0 -2
BITMAP
18000E
18C00E
3FE18C
70C0CC
FFF00C
B3330C
3FF38C
33318C
33300C
3FF7FF
30300E
20300C
61F00C
C0200C
801800
001806
FFFFFF
001800
061840
061870
0C181C
18180E
601806
801000
ENDCHAR
STARTCHAR C2376
ENCODING 9078
SWIDTH 400 0
DWIDTH 24 0
BBX 24 24 0 -2
BITMAP
060060
078060
078460
06BE60
063763
FFB6FF
0636FB
0636BA
FEF7B8
DEB638
D6B638
D6B638
D6B638
D6B638
D7B63C
F7B62C
07366C
1B3E64
F63466
C680C6
0B80C6
138187
218303
018603
ENDCHAR
STARTCHAR C2377
ENCODING 9079
SWIDTH 400 0
DWIDTH 24 0
BBX 24 24 0 -2
BITMAP
003060
01B760
60F662
30FC7F
3030FF
10FCBE
00CF3C
18CE38
FCFE38
1CDE38
30CE38
30DE3C
74FE3C
7EEE64
CCCE66
0CCE66
0CCE47
18FE87
18CD03
300000
7E0000
C7FFFF
00FFFF
001FFC
ENDCHAR
STARTCHAR C2378
ENCODING 9080
SWIDTH 400 0
DWIDTH 24 0
BBX 24 24 0 -2
BITMAP
070380
070380
07F300
060300
473306
FFFBFF
E62367
EE0264
FFF668
E60C60
E60060
E7E060
E3E060
E000E0
E6C0F0
E6B0D0
F6B198
FEA198
DEC10C
C6830C
C6820E
BFF407
BC0807
101003
ENDCHAR
STARTCHAR C2379
ENCODING 9081
SWIDTH 400 0
DWIDTH 24 0
BBX 24 24 0 -2
BITMAP
0C0380
1C7380
3FF300
766300
C3C306
1F83FF
F70367
4C0264
300668
CC0C60
067060
FFF060
004060
7FE0E0
0000F0
3FE0D0
000198
004198
7FE10C
60630C
60620E
606407
7FE807
605003
ENDCHAR
STARTCHAR C237a
ENCODING 9082
SWIDTH 400 0
DWIDTH 24 0
BBX 24 24 0 -2
BITMAP
180380
387380
E1F300
E07300
E07306
F9F3FF
E07367
E07264
FFE668
000C60
003060
FFF060
04C060
6EC0E0
7EC0F0
66C0D0
6EC198
7CC198
40C10C
00C30C
00C20E
1FC407
03C807
019003
ENDCHAR
STARTCHAR C237b
ENCODING 9083
SWIDTH 400 0
DWIDTH 24 0
BBX 24 24 0 -2
BITMAP
180380
387380
E1F300
E07300
E07306
F9F3FF
E07367
E07264
7FE668
600C60
606060
7FF060
C07060
8670E0
3F70F0
3770D0
367198
367198
3E710C
00730C
00620E
1FE407
03C807
019003
ENDCHAR
STARTCHAR C237c
ENCODING 9084
SWIDTH 400 0
DWIDTH 24 0
BBX 24 24 0 -2
BITMAP
060380
0E0380
0F8300
18E300
307306
E633FF
060367
7FF264
00C668
60EC60
30C060
198060
FFF060
0000E0
4060F0
7FF0D0
606198
606198
7FE10C
60630C
60620E
606407
7FE807
605003
ENDCHAR
STARTCHAR C237d
ENCODING 9085
SWIDTH 400 0
DWIDTH 24 0
BBX 24 24 0 -2
BITMAP
060380
070380
0FC300
18E300
30F306
FFB3FF
004367
00E264
7FF668
00CC60
008060
7FF060
607060
6070E0
7FF0F0
6070D0
7FF198
607198
60710C
7FE30C
30620E
307407
603807
C01003
ENDCHAR
STARTCHAR C237e
ENCODING 9086
SWIDTH 400 0
DWIDTH 24 0
BBX 24 24 0 -2
BITMAP
0601C0
0701C0
0FC180
187180
303986
601BFF
FFE367
000366
302264
34BC60
7FF060
E6B060
F6B070
FEB070
E6B078
FEB0F8
EEB0C8
E6B0CC
F6B18C
FEB186
F6B306
C63307
DEF603
8C6C03
ENDCHAR
STARTCHAR C2421
ENCODING 9249
SWIDTH 400 0
DWIDTH 24 0
BBX 24 24 0 -2
BITMAP
0C0070
0C0070
190060
7F8060
61C060
618060
7F8E60
618E60
618E60
7F8E66
600E7E
60CE60
7FCE60
600E60
7FEE60
40EE60
0ACE60
7FCE60
54CE60
C0CE60
C0CE60
9FCE62
07BFFF
030000
ENDCHAR
STARTCHAR C2422
ENCODING 9250
SWIDTH 400 0
DWIDTH 24 0
BBX 24 24 0 -2
BITMAP
060380
0E6380
FFE302
0643FF
FFE718
E66518
FFE9B8
EE60F0
FFC060
0600F8
FFE31C
06060F
061803
001800
001C00
0E1800
0E1C38
0C1FF8
0C1800
0C1800
0C1800
0C1806
FFFFFF
000000
ENDCHAR
STARTCHAR C2423
ENCODING 9251
SWIDTH 400 0
DWIDTH 24 0
BBX 24 24 0 -2
BITMAP
0E0060
0E0070
0CC760
0FE766
0C067E
4DC660
FFC660
E0C662
E0DFFF
FFC060
E1C060
E0C460
E0C760
FFC667
0C8666
0C0C6C
0CC878
FFD070
0C0060
0C00C0
0C0180
0C0700
0C0C00
0C7000
ENDCHAR
STARTCHAR C2424
ENCODING 9252
SWIDTH 400 0
DWIDTH 24 0
BBX 24 24 0 -2
BITMAP
070070
070070
360060
37E060
370060
362060
FFF760
000760
40C660
7FE666
60C67E
7FC660
60C660
60C660
7FC660
070660
060660
7FE660
060660
060660
060660
FFE662
F83FFF
600000
ENDCHAR
STARTCHAR C2425
ENCODING 9253
SWIDTH 400 0
DWIDTH 24 0
BBX 24 24 0 -2
BITMAP
070070
070070
360060
37E060
370060
362060
FFF760
000760
40C660
7FE666
60C67E
7FC660
60C660
60C660
7FC660
0E0660
0C0660
0FE660
0C0660
0C0660
0C0660
FFE662
F83FFF
600000
ENDCHAR
STARTCHAR C2426
ENCODING 9254
SWIDTH 400 0
DWIDTH 24 0
BBX 24 24 0 -2
BITMAP
000E00
040E00
070C18
060FFC
060C00
060C02
FFFFFF
000000
20000C
3FFFFC
31830C
31838C
31838C
3362CC
36346C
3C082C
31C38C
31830C
33C3CC
32666C
340C3C
38180C
3FFFFC
200008
ENDCHAR
STARTCHAR C2427
ENCODING 9255
SWIDTH 400 0
DWIDTH 24 0
BBX 24 24 0 -2
BITMAP
000300
030180
FF90C6
303FFF
306006
326804
3F0FFE
330C70
631860
631864
4318CE
E639FF
FE3986
9E7986
0E7986
0CD986
0C19FE
1C1986
181986
101986
301986
6019FE
C01986
801184
ENDCHAR
STARTCHAR C2428
ENCODING 9256
SWIDTH 400 0
DWIDTH 24 0
BBX 24 24 0 -2
BITMAP
000338
030338
FF8332
303FFF
300730
322332
3F3FFF
333337
633337
633FFF
433337
E63337
FE3FFE
9E0000
0E180C
0C1FFE
0C180C
1C180C
181FFC
101C0C
30180C
60180C
C01FFC
80180C
ENDCHAR
STARTCHAR C2429
ENCODING 9257
SWIDTH 400 0
DWIDTH 24 0
BBX 24 24 0 -2
BITMAP
000200
030707
FFFF3F
300327
301B37
320307
3F0F0F
337377
636327
631FDE
4306C4
E601E0
FE0318
9E066C
0E1CE7
0C3983
0CC330
1C1C78
1800E0
10030E
301E38
6000E0
C00300
803C00
ENDCHAR
STARTCHAR C242a
ENCODING 9258
SWIDTH 400 0
DWIDTH 24 0
BBX 24 24 0 -2
BITMAP
000E60
02EE60
FFCC66
30CC7F
30CCE7
30CC96
3FCD1E
37CE2C
66FDD8
66CDB0
460C6C
E60CCE
FEFF0C
9CEC0E
0CCDFF
0CCC0C
1CCCCC
18CC6C
18CC6C
30CC0C
208C0C
618CFC
C10C3C
830C18
ENDCHAR
STARTCHAR C242b
ENCODING 9259
SWIDTH 400 0
DWIDTH 24 0
BBX 24 24 0 -2
BITMAP
0018C6
0318C6
FFB18C
303318
3019CC
3218C6
3F0842
33100C
631FFE
6319CC
4319CC
E61FFC
FE19CC
9E19CC
0E1FFC
0C01C0
0C7FFF
1C03E0
1807F0
100DF8
3039DF
6061CF
C181C2
800180
ENDCHAR
STARTCHAR C242c
ENCODING 9260
SWIDTH 400 0
DWIDTH 24 0
BBX 24 24 0 -2
BITMAP
000FF0
03FFF8
1F2010
181838
0C0860
041840
1FFFF8
183838
181838
7FFFFC
181838
7FFFFE
181838
1818F0
181034
FFFFFE
1C0700
1FF304
1C73FE
366300
63C301
C303FF
0C03FF
F001FE
ENDCHAR
STARTCHAR C242d
ENCODING 9261
SWIDTH 400 0
DWIDTH 24 0
BBX 24 24 0 -2
BITMAP
060200
060338
0663FC
FFE318
060318
064318
7FE718
00061F
40E60F
FFFC00
C0580C
8007FE
7FC20E
06020C
066118
FFE1B8
0600F0
46C0E0
7FE0F0
60C1F8
60C39C
60C70F
7FCE07
603803
ENDCHAR
STARTCHAR C242e
ENCODING 9262
SWIDTH 400 0
DWIDTH 24 0
BBX 24 24 0 -2
BITMAP
060200
070700
07FF00
080630
1FFFF8
1C0038
1FFFF8
180C00
1FEFF0
180C04
18EC0C
1F8FFC
0C1FFC
083800
3FFFFC
1FFFF8
183818
181818
1FFFF8
03F000
00F800
03FFFF
0E03FF
F0007F
ENDCHAR
STARTCHAR C242f
ENCODING 9263
SWIDTH 400 0
DWIDTH 24 0
BBX 24 24 0 -2
BITMAP
046004
4E300E
FE327E
E7FFF8
E40438
ED8E38
F8CC38
F86C38
E878FE
EC3838
E63238
E6FE38
E60038
E60638
E6FFFF
E6C738
EEC638
FCC638
E8C638
E0C639
E0C639
E0FE3F
E0C61F
C0800E
ENDCHAR
STARTCHAR C2430
ENCODING 9264
SWIDTH 400 0
DWIDTH 24 0
BBX 24 24 0 -2
BITMAP
001004
1C381E
FEF8FE
0C9B60
3CF860
0C5860
3CF860
ED9864
0C1FFE
3C7860
1C3060
000060
7FF060
070062
0607FF
067060
267060
366060
1EC060
1F8061
060061
06307F
FFF87F
00003E
ENDCHAR
STARTCHAR C2431
ENCODING 9265
SWIDTH 400 0
DWIDTH 24 0
BBX 24 24 0 -2
BITMAP
000004
1C701E
FDF8FE
5CB360
7CF060
3C3060
1C7060
FDF064
DDB7FE
7CF060
187060
170060
060060
647062
7FF7FF
607060
607060
607060
7FF060
607061
607061
60707F
7FF07F
60603E
ENDCHAR
STARTCHAR C2432
ENCODING 9266
SWIDTH 400 0
DWIDTH 24 0
BBX 24 24 0 -2
BITMAP
070004
47301E
E630FE
E63360
FFF060
003060
360060
330064
31B7FE
3FF860
338060
738060
F38060
FFF062
3387FF
338060
338060
3FF060
338060
338061
339061
3FF87F
30007F
20003E
ENDCHAR
STARTCHAR C2433
ENCODING 9267
SWIDTH 400 0
DWIDTH 24 0
BBX 24 24 0 -2
BITMAP
000004
07830E
3F9FBF
DC1F36
1C0F16
1C070E
1C1F76
1D9B26
FF9F3E
1C030C
1C00E0
1C08CC
1C0FFE
1D8C0C
FF8C0C
1C0FFC
1C0C0C
1C0C0C
1C0FFD
1C080D
1C0003
1FFFFF
0FFFFF
07FFFE
ENDCHAR
STARTCHAR C2434
ENCODING 9268
SWIDTH 400 0
DWIDTH 24 0
BBX 24 24 0 -2
BITMAP
0001C0
0781C8
3F9FFC
DC19CC
1C3FFE
1C19CC
1C1FFC
1D81C0
FF9FFC
1C19CC
1C1FFC
1C0710
1C3FFE
1D8E38
FF9C70
1C1FE0
1C03BC
1C1E0E
1C7002
1C0001
1C0001
1FFFFF
0FFFFF
07FFFE
ENDCHAR
STARTCHAR C2435
ENCODING 9269
SWIDTH 400 0
DWIDTH 24 0
BBX 24 24 0 -2
BITMAP
000000
0798E4
3F9CC6
DC18C6
1C1FFE
1C0C44
1C0E60
1D8E36
FF8FFE
1C1E60
1C1E74
1C2FFC
1C0E60
1D8E74
FF8FFC
1C0E60
1C0E60
1C0FFE
1C0C00
1C0001
1C0001
1FFFFF
0FFFFF
07FFFE
ENDCHAR
STARTCHAR C2436
ENCODING 9270
SWIDTH 400 0
DWIDTH 24 0
BBX 24 24 0 -2
BITMAP
001800
079C0C
3F9FFE
DC39BC
1C2DAC
1C1FFC
1C01AC
1D8DBC
FF998C
1C013C
1C0008
1C0638
1C3FFE
1D8E38
FF8C30
1C1E30
1C1BE0
1C01F8
1C0F1C
1C380D
1C0001
1FFFFF
0FFFFF
07FFFE
ENDCHAR
STARTCHAR C2437
ENCODING 9271
SWIDTH 400 0
DWIDTH 24 0
BBX 24 24 0 -2
BITMAP
180000
18C406
FFEFFE
E0EE60
FFCC62
E0DFFF
FFC8E0
E001B1
FFC3B1
E1C733
FF0E3F
78381F
200FE0
03FFF0
1E3000
003018
3FFFFC
003002
FFFFFF
003002
003002
003FFE
001FFE
000FFC
ENDCHAR
STARTCHAR C2438
ENCODING 9272
SWIDTH 400 0
DWIDTH 24 0
BBX 24 24 0 -2
BITMAP
070060
070062
7FE07F
060060
0737FE
7FF10E
0F80DC
1EE070
3670FF
E6238F
060E02
3FFFFF
300018
3001FC
33FFFC
300C00
300C0C
33FFFC
300C00
6FFFFF
600C00
400C01
C00FFF
8003FF
ENDCHAR
STARTCHAR C2439
ENCODING 9273
SWIDTH 400 0
DWIDTH 24 0
BBX 24 24 0 -2
BITMAP
066380
666380
36C302
B6A3FF
FFF30C
C6758C
DFF8DC
DEF078
E67070
C670FC
C7E18F
C46E07
000FE2
03FFF0
1E3000
003018
3FFFFC
003002
FFFFFF
003002
003002
003FFE
001FFE
000FFC
ENDCHAR
STARTCHAR C243a
ENCODING 9274
SWIDTH 400 0
DWIDTH 24 0
BBX 24 24 0 -2
BITMAP
1C0000
1C0008
1FFFFC
180000
380018
3FFFF8
600020
DFFFF0
80C030
0CE630
06CE30
00C930
3FFFB0
04D830
0EC730
18C330
60C130
1FFF30
18C338
18E719
1FFF1D
18C30F
1FFF07
180203
ENDCHAR
STARTCHAR C243b
ENCODING 9275
SWIDTH 400 0
DWIDTH 24 0
BBX 24 24 0 -2
BITMAP
700000
700006
60DFFE
7FC124
4019BE
C01FFF
BF9926
001DB6
001FFC
018000
7FCFFC
038000
031FFE
0600C0
0C08C0
180CCC
3018C6
6010C7
C020C2
C000C1
C00001
FFFFFF
7FFFFF
1FFFFE
ENDCHAR
STARTCHAR C243c
ENCODING 9276
SWIDTH 400 0
DWIDTH 24 0
BBX 24 24 0 -2
BITMAP
0001D8
0001CC
4001C4
7FFFFF
6001C0
6FFDC4
6081C6
6CC8CC
66D8F8
66E070
61C071
6338F9
C6199F
9C0E0F
101803
004006
7FE7FE
000000
000002
FFFFFF
000000
004006
7FE7FE
000000
ENDCHAR
STARTCHAR C243d
ENCODING 9277
SWIDTH 400 0
DWIDTH 24 0
BBX 24 24 0 -2
BITMAP
001800
181C38
0C1FF8
0C3034
00606E
017FFF
817006
E27006
727FFE
361800
061802
043FFF
0C3000
083006
183FFF
182007
300067
F0A337
30999F
319987
3B8806
3903FE
38007C
100038
ENDCHAR
STARTCHAR C243e
ENCODING 9278
SWIDTH 400 0
DWIDTH 24 0
BBX 24 24 0 -2
BITMAP
000002
703FFF
600180
619FFE
7FDC06
601FFE
601806
601FFE
61D806
7F1FFE
780E0C
303807
006003
001C00
001C10
01983C
7FD860
039CC0
031B80
0619C0
0C187F
19F81F
607806
803000
ENDCHAR
STARTCHAR C243f
ENCODING 9279
SWIDTH 400 0
DWIDTH 24 0
BBX 24 24 0 -2
BITMAP
1C301C
1C181C
181B18
19FF18
183018
1A601A
1B441B
DE87FE
7DFF7C
78C378
7C007C
7CD47C
7CDE7C
7ED67E
5ED65E
DED65F
DBD65B
DBD6DB
9AD69A
98D618
18D618
189618
799778
331230
ENDCHAR
STARTCHAR C2440
ENCODING 9280
SWIDTH 400 0
DWIDTH 24 0
BBX 24 24 0 -2
BITMAP
1C1C1C
1C1C1C
18D818
18DE18
18DC18
1AD81A
1BD8FB
DFFF7E
7C187C
781878
7CF87C
7CDA7C
7CDF7C
7EDF7E
5E9E5E
DE1E5F
DB0CDB
DB0C9B
9A199A
983118
186018
18C018
798078
360030
ENDCHAR
STARTCHAR C2441
ENCODING 9281
SWIDTH 400 0
DWIDTH 24 0
BBX 24 24 0 -2
BITMAP
000300
180180
0C20C6
0C7FFF
00E426
01CE30
817FFE
E20E30
720E30
363FFE
060E30
040E30
0C7FFF
080E30
181C18
183A0F
307187
F0C0E3
310070
300600
380380
3800E0
380030
100018
ENDCHAR
STARTCHAR C2442
ENCODING 9282
SWIDTH 400 0
DWIDTH 24 0
BBX 24 24 0 -2
BITMAP
200300
300180
184186
087FFF
00C006
0299FC
82180C
E6300E
6433FF
24600C
0C61FC
0CF000
19F7FF
197607
187C06
3073FC
30708C
F0708C
307078
307030
387078
3871CF
387307
106E03
ENDCHAR
STARTCHAR C2443
ENCODING 9283
SWIDTH 400 0
DWIDTH 24 0
BBX 24 24 0 -2
BITMAP
000300
180184
0C7FFE
0C1838
000C38
010E32
81FFFF
E30180
72018C
367FFE
06718E
04718C
0C718C
087FFC
180180
180180
30218C
F07FFE
30700C
30700C
38700C
387FFC
38700C
106000
ENDCHAR
STARTCHAR C2444
ENCODING 9284
SWIDTH 400 0
DWIDTH 24 0
BBX 24 24 0 -2
BITMAP
000300
180182
0CFFFF
0C0008
00380C
01334C
813F7F
E2634C
72764C
365E4C
068CFF
04184C
0C310C
0861CC
18818A
18FFFF
300180
F02180
303988
303184
386186
38C183
398181
100180
ENDCHAR
STARTCHAR C2445
ENCODING 9285
SWIDTH 400 0
DWIDTH 24 0
BBX 24 24 0 -2
BITMAP
20C1C0
3061C0
186182
0BFDFF
018180
018360
C58670
659873
65FFFF
0D9CE0
0D98C4
19998E
199FFB
119B81
319900
3199B6
7199B6
E399B6
6399B6
3319B6
3319B6
32FB36
367237
046421
ENDCHAR
STARTCHAR C2446
ENCODING 9286
SWIDTH 400 0
DWIDTH 24 0
BBX 24 24 0 -2
BITMAP
200200
300180
1818C0
081C40
005806
02D807
83D80B
E79810
641FF0
240FF0
0C0000
0C2010
18180C
180804
186030
306030
306632
F166B3
3162B1
3361B0
3B65B2
3A7D3E
387C3E
10180C
ENDCHAR
STARTCHAR C2447
ENCODING 9287
SWIDTH 400 0
DWIDTH 24 0
BBX 24 24 0 -2
BITMAP
200000
300007
181BFF
0FF860
00C060
00C0C0
C4C1E7
64C327
6CC676
08C47C
1BF8F8
18C3B8
10C3B8
30C7FC
30DCFC
30C0FE
60C1FB
E0FBFB
67C718
331818
300038
3001F0
3000E0
000040
ENDCHAR
STARTCHAR C2448
ENCODING 9288
SWIDTH 400 0
DWIDTH 24 0
BBX 24 24 0 -2
BITMAP
000004
18000E
0C7FFF
0C1FE6
000706
010326
813FF6
E20006
727FFC
3667F8
0660C0
04E0CC
0CCFFC
08E007
18FFFF
180047
307FE7
F07067
307FE7
302047
380006
3807FE
38007C
100038
ENDCHAR
STARTCHAR C2449
ENCODING 9289
SWIDTH 400 0
DWIDTH 24 0
BBX 24 24 0 -2
BITMAP
000004
18000E
0C7FFF
0C0006
003006
013FFC
813000
E27007
727FFF
360027
06FFF7
04DEF7
0CCF67
08DF67
18D5E7
18FFE7
300707
F07FE7
300607
300637
38FFF6
3803FE
38007C
100038
ENDCHAR
STARTCHAR C244a
ENCODING 9290
SWIDTH 400 0
DWIDTH 24 0
BBX 24 24 0 -2
BITMAP
200004
320E6E
1BFF7F
0B0666
030666
03FE66
C70066
67FE66
6F68C3
0B6880
1B6806
1B4AFF
13CC47
338C47
330026
337C26
636C3C
E34C1C
634C18
334D3C
32CE76
36C6E7
3581C3
000303
ENDCHAR
STARTCHAR C244b
ENCODING 9291
SWIDTH 400 0
DWIDTH 24 0
BBX 24 24 0 -2
BITMAP
004006
187FFF
0C6007
0C7FFF
006008
01607C
816FFE
E260C0
727FFE
3660C0
067FFF
0460C1
0CC0FF
08807F
1941C4
186186
306186
F0FFFE
304180
30C182
38E187
38C187
38FFFF
100006
ENDCHAR
STARTCHAR C244c
ENCODING 9292
SWIDTH 400 0
DWIDTH 24 0
BBX 24 24 0 -2
BITMAP
000180
180182
0CFFFF
0C0180
004186
017FFF
816186
E26186
727FFE
366186
066186
047FFE
0C6180
086186
187FFF
18C007
308327
F1599F
304CDF
30CC07
388006
3801FE
38007C
100038
ENDCHAR
STARTCHAR C244d
ENCODING 9293
SWIDTH 400 0
DWIDTH 24 0
BBX 24 24 0 -2
BITMAP
200004
300E1E
1BFEFE
099838
019838
019838
C59838
65F83B
6599FF
0D9838
0D9838
199838
19F838
1198BF
3199FF
3199C7
7199C7
E1B9C7
67D9C7
3319C7
3019C7
3019FF
3019C6
001980
ENDCHAR
STARTCHAR C244e
ENCODING 9294
SWIDTH 400 0
DWIDTH 24 0
BBX 24 24 0 -2
BITMAP
000000
180007
0CFFFF
0C0E60
000E60
014E6E
817C7F
E26006
726006
366406
06FE7E
044E64
0C0E60
080E77
18FFFF
180380
3001C0
F01CC0
309806
30980B
39981B
3B1FF1
381FF0
100FE0
ENDCHAR
STARTCHAR C244f
ENCODING 9295
SWIDTH 400 0
DWIDTH 24 0
BBX 24 24 0 -2
BITMAP
203800
303847
18307F
09FE67
003067
003067
C5FE67
65877F
65866F
0D8667
0DFE67
198667
198667
11867F
31FE6F
313067
7030C7
E1FFC7
6030C7
3030C7
303187
3031BF
30330E
00360C
ENDCHAR
STARTCHAR C2450
ENCODING 9296
SWIDTH 400 0
DWIDTH 24 0
BBX 24 24 0 -2
BITMAP
000000
180007
0CFFFF
0C1838
001C38
011FF8
811838
E21C38
721FF8
361838
06DC3F
04FFFF
0CC807
08CE37
18C667
18DFF7
30C187
F0C197
30DFFF
30C187
38C187
38C1BF
38C10E
10C00C
ENDCHAR
STARTCHAR C2451
ENCODING 9297
SWIDTH 400 0
DWIDTH 24 0
BBX 24 24 0 -2
BITMAP
001C1C
181C1C
0C1A18
0CFFFF
001E18
013B3E
81797B
E3D8D9
729818
360000
06300C
043FFE
0C320C
08338C
1830EC
18306C
30300C
F030FC
303F8C
30360C
38320C
3860FC
38C03C
118018
ENDCHAR
STARTCHAR C2452
ENCODING 9298
SWIDTH 400 0
DWIDTH 24 0
BBX 24 24 0 -2
BITMAP
200000
310007
1BFFFF
0B8C07
038C07
03CDA7
C7EF37
67AC37
6F9C37
0B9E37
1B9337
1BA337
13C137
338837
338E37
33CDB7
63EF37
E3BE37
630C27
331E07
331307
3223BF
34418E
00800C
ENDCHAR
STARTCHAR C2453
ENCODING 9299
SWIDTH 400 0
DWIDTH 24 0
BBX 24 24 0 -2
BITMAP
000060
180066
0C4063
0C7FFF
006060
017FE7
816076
E27FBC
7279B9
367FB9
06597F
04C0C7
0D8383
080C18
180C18
18FFFF
300C18
F01838
303830
307E60
3803F0
3803BC
380E0E
10F807
ENDCHAR
STARTCHAR C2454
ENCODING 9300
SWIDTH 400 0
DWIDTH 24 0
BBX 24 24 0 -2
BITMAP
000000
180007
0CFFFF
0C0304
00460E
017FFF
816666
E26666
726666
366666
06667E
04604C
0C0000
08FFFF
180300
184606
307FFE
F06666
306666
306666
386666
386666
38667E
10604C
ENDCHAR
STARTCHAR C2455
ENCODING 9301
SWIDTH 400 0
DWIDTH 24 0
BBX 24 24 0 -2
BITMAP
200060
300060
180062
099FFF
00C8E3
00C797
C4430F
640607
6CDC03
0FE7FC
18C060
188060
110066
33EFFE
306060
306060
606060
E0C060
60C060
318060
33E040
373FFF
300FFF
0003FC
ENDCHAR
STARTCHAR C2456
ENCODING 9302
SWIDTH 400 0
DWIDTH 24 0
BBX 24 24 0 -2
BITMAP
200060
300060
180062
099FFF
00C1F0
00C39C
C4476F
640E67
6CC86C
0FE7FC
18C060
188060
11034C
33E30C
307FFF
30630C
60630C
E0C60C
60CC0C
319808
33E000
373FFF
300FFF
0003FC
ENDCHAR
STARTCHAR C2457
ENCODING 9303
SWIDTH 400 0
DWIDTH 24 0
BBX 24 24 0 -2
BITMAP
000000
180E07
0CFF7F
0C6667
002637
010E0F
817E7F
E2E667
725F1F
360D86
0603C0
040660
0C0E38
081B9C
18338F
186303
318300
F01324
303336
30631B
386300
381F00
380700
100600
ENDCHAR
STARTCHAR C2458
ENCODING 9304
SWIDTH 400 0
DWIDTH 24 0
BBX 24 24 0 -2
BITMAP
000006
18FFFE
0CC006
0CFFFE
00E006
01C006
81FFFE
E22010
727338
367FB8
0663BE
04E63B
0DBC39
091C30
183FFF
18E3FE
338000
F07FFC
30600C
30600C
38600C
38600C
387FFC
10600C
ENDCHAR
STARTCHAR C2459
ENCODING 9305
SWIDTH 400 0
DWIDTH 24 0
BBX 24 24 0 -2
BITMAP
200238
310738
1BFF38
0BB338
03B33B
03FF3F
C3B338
67B338
6FB338
0BFFFF
0800C7
180347
13FF46
10CC46
30CC6E
30CC2C
70CC3C
E0CC38
60CC38
30CC7C
318C4E
310C87
320D07
040E03
ENDCHAR
STARTCHAR C245a
ENCODING 9306
SWIDTH 400 0
DWIDTH 24 0
BBX 24 24 0 -2
BITMAP
203038
303038
19FCFF
083038
003030
000200
C5FF06
65CFFF
64CE47
0CCE47
0CCE46
18FE66
18CE66
10CE2C
30CE2C
30FE3C
70CE18
E0CE38
60CE3C
31DE6C
33EE66
318EC7
300F83
000F03
ENDCHAR
STARTCHAR C245b
ENCODING 9307
SWIDTH 400 0
DWIDTH 24 0
BBX 24 24 0 -2
BITMAP
000006
18FFFE
0CC006
0CFFFE
00E006
01C006
81FFFE
E2201C
72731C
367F98
06639C
04E636
0DBC63
091CC1
183FFF
18E3FE
338000
F07FFC
30600C
30600C
38600C
38600C
387FFC
10600C
ENDCHAR
STARTCHAR C245c
ENCODING 9308
SWIDTH 400 0
DWIDTH 24 0
BBX 24 24 0 -2
BITMAP
2001C0
3001C0
1839CC
0839FE
0031C0
0231C2
83FFFF
E63000
643407
247E06
0CE776
0CE666
18F666
18DE66
18C766
31FE66
30E666
F0F666
30DE66
30C666
38C606
39863E
39BE1C
130C08
ENDCHAR
STARTCHAR C245d
ENCODING 9309
SWIDTH 400 0
DWIDTH 24 0
BBX 24 24 0 -2
BITMAP
200000
308E47
18FE7F
08CE67
00FE7F
02CE67
82FE7F
E6CC47
64C007
24CFF7
0CC007
0CC017
18DFFF
18C6C7
18C6C7
30C6CF
30CCCF
F0DCFF
30F87F
30E007
38C007
38C07F
38C01E
10800C
ENDCHAR
STARTCHAR C245e
ENCODING 9310
SWIDTH 400 0
DWIDTH 24 0
BBX 24 24 0 -2
BITMAP
000008
18201C
0C7FFC
0C76CC
0076CC
0174FC
81787C
E277CC
72764C
36764C
0676DC
047FF8
0C2000
080004
18FFFE
18CE66
30CE66
F0CE66
30CE66
30CE66
38CE66
38CE66
39FFFF
100000
ENDCHAR
STARTCHAR C245f
ENCODING 9311
SWIDTH 400 0
DWIDTH 24 0
BBX 24 24 0 -2
BITMAP
200380
30E38E
18E30E
08C30C
00E38C
02FFFC
820004
E60E4E
64FE7F
24CC6C
0C6C38
0C3B18
18338F
186307
19C30F
33FFFC
3007C0
F00FE0
301B70
303338
387FFE
39C30C
380300
100300
ENDCHAR
STARTCHAR C2460
ENCODING 9312
SWIDTH 400 0
DWIDTH 24 0
BBX 24 24 0 -2
BITMAP
000307
180307
0C0386
0C06C6
000C66
0113A6
810306
E20386
7206E6
361C66
06D026
04FFFC
0CC804
08CFFE
18CC06
18CC06
30CFFE
F0CC06
30CC06
30CFFE
388C06
398C06
3B0FFE
120C06
ENDCHAR
STARTCHAR C2461
ENCODING 9313
SWIDTH 400 0
DWIDTH 24 0
BBX 24 24 0 -2
BITMAP
000600
180E10
0C1C1C
0C3FFC
003004
003010
826030
E24623
768E4F
36FB79
044320
040780
0C0C60
081B3C
18338F
186307
318300
F01364
303332
306333
38631B
381F00
380700
100600
ENDCHAR
STARTCHAR C2462
ENCODING 9314
SWIDTH 400 0
DWIDTH 24 0
BBX 24 24 0 -2
BITMAP
001800
181830
0C1FF8
0C3038
006022
01FFFF
816338
E26638
72641F
36680F
067000
046FFE
0C6060
086060
186062
187FFF
30C000
F0CFFE
30CC06
308C06
398C06
3B0C06
3E0FFE
100C06
ENDCHAR
STARTCHAR C2463
ENCODING 9315
SWIDTH 400 0
DWIDTH 24 0
BBX 24 24 0 -2
BITMAP
000300
180300
0C460E
0C7FFF
006006
017FFE
816006
E26006
727FFE
366006
067FFE
0441C4
0C0980
08FDBE
180180
180980
30FDBE
F00180
300182
30FFFF
380180
380180
380180
100180
ENDCHAR
STARTCHAR C2464
ENCODING 9316
SWIDTH 400 0
DWIDTH 24 0
BBX 24 24 0 -2
BITMAP
20C0E0
30C0E0
189CC2
09FEFF
018CF8
018DB8
C5FF38
658C38
658C38
0D8C38
0DFC3B
198DFF
198C38
118E38
37FE38
379C38
733C6C
E06C6C
60CC64
318C46
330CC6
36FD87
303903
001203
ENDCHAR
STARTCHAR C2465
ENCODING 9317
SWIDTH 400 0
DWIDTH 24 0
BBX 24 24 0 -2
BITMAP
2018E0
3398E6
1B98C3
0B9FFF
0398C0
0398E6
C7986C
67F879
679079
0F80DF
0F8307
1B9200
1BF8E0
13B8E6
3398C3
339FFF
7398C6
E398CE
63987C
339879
331871
3318FF
32198F
021E07
ENDCHAR
STARTCHAR C2466
ENCODING 9318
SWIDTH 400 0
DWIDTH 24 0
BBX 24 24 0 -2
BITMAP
20801E
30E0FF
18C382
08C047
00DA66
00DB2C
C7FD08
67F804
6DDBFE
08D830
199830
199830
119830
3333FF
333030
33B030
60F3B7
E0F337
60DB37
309B37
310B37
320337
3403FF
000006
ENDCHAR
STARTCHAR C2467
ENCODING 9319
SWIDTH 400 0
DWIDTH 24 0
BBX 24 24 0 -2
BITMAP
00C800
30CDC3
318DCF
118DC0
010DC0
03CDC0
CAFFE0
6CCDC1
68CDDF
198DC6
118DC6
138DC6
138DC6
37BFE6
318006
318C86
618C46
E19C66
619866
319866
31B066
31E026
31801E
01800C
ENDCHAR
STARTCHAR C2468
ENCODING 9320
SWIDTH 400 0
DWIDTH 24 0
BBX 24 24 0 -2
BITMAP
0010C6
1830C6
0C218C
0C6308
0031C6
0118C3
814002
E27FFF
7261C7
3661C7
0661C7
047FFE
0C6802
086FFF
186C07
186C07
306FFF
F0CC07
30CC07
30CFFF
388C07
398C07
3B0FFF
120C06
ENDCHAR
STARTCHAR C2469
ENCODING 9321
SWIDTH 400 0
DWIDTH 24 0
BBX 24 24 0 -2
BITMAP
003800
383807
38305F
31FE70
303060
363060
B7FE60
BDB767
F9B67F
71B666
31FE66
31B666
31B666
31B666
31FE66
303066
303266
39FEC6
3430C6
6630C6
623186
C03186
803306
003606
ENDCHAR
STARTCHAR C246a
ENCODING 9322
SWIDTH 400 0
DWIDTH 24 0
BBX 24 24 0 -2
BITMAP
000000
1E2007
1C7FFF
1C7367
1C7367
9D7FFF
DDA002
7F01E0
7E01C4
3C1FFE
1C01C0
1C01C0
1C01C0
1C01C7
187FFF
1C01E0
1E01C0
3301CC
33BFFE
2181C0
6181C0
C001C2
807FFF
000000
ENDCHAR
STARTCHAR C246b
ENCODING 9323
SWIDTH 400 0
DWIDTH 24 0
BBX 24 24 0 -2
BITMAP
000300
1E0610
1C0C1C
1C1FFC
1C1804
1D3010
9FB838
DF3632
7E6363
7CFF7F
1C61F1
1C03A0
1C0760
1C0E38
181CDF
18318F
1CC73A
379CE0
333186
23861C
61B878
C001E0
800700
007800
ENDCHAR
STARTCHAR C246c
ENCODING 9324
SWIDTH 400 0
DWIDTH 24 0
BBX 24 24 0 -2
BITMAP
003000
201807
7FFFFF
CFFFE6
800000
3FFFFC
030301
060302
0C01FE
3800FE
7FFFF0
180038
1FFFF8
180038
180038
1FFFF0
001C00
18381C
0C3030
046C40
01C780
0301FF
0C003F
F0000F
ENDCHAR
STARTCHAR C246d
ENCODING 9325
SWIDTH 400 0
DWIDTH 24 0
BBX 24 24 0 -2
BITMAP
1C0002
1C7FFF
1C0360
FFBFFE
1C3776
1C3266
3E347E
3FB83E
7DB026
DC37F6
9C3006
1C3FFE
182006
001000
001C00
101830
1C1878
0E38E0
066C80
00C600
0183C0
0700FF
1C003F
F0000F
ENDCHAR
STARTCHAR C246e
ENCODING 9326
SWIDTH 400 0
DWIDTH 24 0
BBX 24 24 0 -2
BITMAP
0600C0
0640C6
FFEFFF
0601C0
0F83E0
1EC6DC
364CC7
6618C3
86A0C1
01C000
018007
FFFFFF
061840
0C1830
18181F
36387F
C338E2
036580
00C300
018180
0300E0
0E007F
18001F
E00007
ENDCHAR
STARTCHAR C246f
ENCODING 9327
SWIDTH 400 0
DWIDTH 24 0
BBX 24 24 0 -2
BITMAP
0661C0
6661C0
36C182
B6A3FF
FFF30E
C6770C
DFFC8C
DEF058
E67070
C67078
C670DC
C7F38F
C46E07
001800
001C00
101830
1C1878
0E38E0
066C80
00C600
0183C0
0700FF
1C003F
F0000F
ENDCHAR
STARTCHAR C2470
ENCODING 9328
SWIDTH 400 0
DWIDTH 24 0
BBX 24 24 0 -2
BITMAP
060008
3C181C
30347C
30EE0C
36781C
3E307C
30640C
36FE1C
3EF37C
30430C
70001D
FFFFFF
001800
001800
101838
0C3830
063860
026400
00C300
018180
0300E0
0E007F
18001F
E00007
ENDCHAR
STARTCHAR C2471
ENCODING 9329
SWIDTH 400 0
DWIDTH 24 0
BBX 24 24 0 -2
BITMAP
380006
384FFE
3FE060
386060
66C062
C39FFF
1B0060
E60060
CC0060
180060
300060
E00040
0E0060
0E0062
8CEC67
6CC666
6C826C
2C0060
0C00F0
1A01D8
19C39C
30C70F
604E07
C03803
ENDCHAR
STARTCHAR C2472
ENCODING 9330
SWIDTH 400 0
DWIDTH 24 0
BBX 24 24 0 -2
BITMAP
001800
303830
1C3078
0C68E0
00C780
0381E0
060078
18000E
E00007
3FFFFC
30C30C
30C30C
3FFFFC
200008
040060
064070
E66767
E66667
E66667
FFE7FF
0C6066
180060
300060
E00060
ENDCHAR
STARTCHAR C2473
ENCODING 9331
SWIDTH 400 0
DWIDTH 24 0
BBX 24 24 0 -2
BITMAP
070060
070066
76366E
366378
1603C0
0CC0D0
18718C
303306
601E03
3FFFFF
610087
E3C1E6
C381C4
0381CC
3FFFFC
0399C0
038DC0
0381C6
FFFFFF
0301C0
0601C0
0C01C0
1801C0
700180
ENDCHAR
STARTCHAR C2474
ENCODING 9332
SWIDTH 400 0
DWIDTH 24 0
BBX 24 24 0 -2
BITMAP
070060
070066
76366E
366378
1603C0
0CC0D0
18718C
303306
601E03
000002
3FFFFF
600007
D00018
9FFFFC
180018
188318
18FF98
18C398
18C318
18FF18
188318
180018
1800F8
180030
ENDCHAR
STARTCHAR C2475
ENCODING 9333
SWIDTH 400 0
DWIDTH 24 0
BBX 24 24 0 -2
BITMAP
1C421C
1C621C
183418
DBFFDB
5A187B
7C187E
18FF98
181C18
341838
361836
331823
631843
C01881
000060
0FFFF0
0600F0
0301C0
018380
00EE00
003C00
00FF80
03C3FF
0E007F
F0000F
ENDCHAR
STARTCHAR C2476
ENCODING 9334
SWIDTH 400 0
DWIDTH 24 0
BBX 24 24 0 -2
BITMAP
001070
391270
399360
309660
30D660
367462
B65C7F
BDB0CC
F9FFCC
7193CC
31934C
31BB6C
31BB6C
31FF3C
31FF3C
31DF38
31D738
399338
359338
67933C
63936E
C19367
819FC7
018783
ENDCHAR
STARTCHAR C2477
ENCODING 9335
SWIDTH 400 0
DWIDTH 24 0
BBX 24 24 0 -2
BITMAP
00E000
67E403
7ECFFF
66CC3F
66CC37
66CFFF
66CC73
66CFFF
66CF7F
66CF7F
66CFFF
66CC7B
66CC73
66CFB7
66CF7F
666CCF
666C83
667FFF
663C02
461800
C60E00
C607FF
8601FF
04007C
ENDCHAR
STARTCHAR C2478
ENCODING 9336
SWIDTH 400 0
DWIDTH 24 0
BBX 24 24 0 -2
BITMAP
0003F0
003FF8
3FF020
103030
1C1860
0C1840
1FFFF0
180038
180038
1FFFF8
003800
40180C
7FFFFE
60380C
63FFCC
6301CC
63FF8C
60000C
61FF8C
60C30C
603C0C
607FCC
60C3DC
6F01C8
ENDCHAR
STARTCHAR C2479
ENCODING 9337
SWIDTH 400 0
DWIDTH 24 0
BBX 24 24 0 -2
BITMAP
0007F8
01FFFC
3FA038
181830
0C1820
0C0840
181818
303038
666773
CCEC66
78783C
34341A
FE7E7F
F6F77B
626323
000060
1FFFF0
0300E0
01C380
007E00
003F00
01E7FF
07007F
FC001F
ENDCHAR
STARTCHAR C247a
ENCODING 9338
SWIDTH 400 0
DWIDTH 24 0
BBX 24 24 0 -2
BITMAP
03E000
1FE006
F047FE
CC61C0
66C1C0
2081C2
7FCFFF
006180
006180
7FE180
002304
FFF3FE
CC7306
DD7006
FFF006
D0F006
FF7006
DB7006
CE7006
CE7006
DB700E
F171FC
C3E078
C06030
ENDCHAR
STARTCHAR C247b
ENCODING 9339
SWIDTH 400 0
DWIDTH 24 0
BBX 24 24 0 -2
BITMAP
00C006
FFE7FE
E0E606
E0C606
E0C606
FFC7FE
40C404
000300
020382
010367
07031C
7F861E
188E63
18CC00
187C63
18783E
1A301C
FE7877
00CEC1
018700
0301E0
0E00FF
18003F
E0000F
ENDCHAR
STARTCHAR C247c
ENCODING 9340
SWIDTH 400 0
DWIDTH 24 0
BBX 24 24 0 -2
BITMAP
003800
007800
00CE00
0393E0
061C7F
3E187F
C318E2
019988
3FFFFC
30180C
30783C
3EFF7C
3399CC
36FB7C
3C7E3C
30180C
30783C
3EFF7C
3399CC
36FB7C
3C7E3C
30180C
30187C
201018
ENDCHAR
STARTCHAR C247d
ENCODING 9341
SWIDTH 400 0
DWIDTH 24 0
BBX 24 24 0 -2
BITMAP
0381C0
7381C0
6301C2
637FFF
6301C0
6301C4
633FFE
6301C0
7F01C2
437FFF
030000
031FFE
7F180E
63180C
631FFC
63180C
631FFC
63180C
63180C
631FFC
630E18
C31C0E
C33007
83C003
ENDCHAR
STARTCHAR C247e
ENCODING 9342
SWIDTH 400 0
DWIDTH 24 0
BBX 24 24 0 -2
BITMAP
038300
738306
6307FF
630F07
6319CC
6311F8
631F30
6318C0
7F0300
431C00
033007
037FFF
7F0364
63377E
633FFF
633366
633676
63343E
633806
633036
6337F6
C33006
C33FFE
833006
ENDCHAR
STARTCHAR C2521
ENCODING 9505
SWIDTH 400 0
DWIDTH 24 0
BBX 24 24 0 -2
BITMAP
038C00
738C07
631FFF
631E18
633330
6301F0
6303BF
631C0F
7F7802
430C00
030FFF
031C18
7F3330
6321E0
6303FF
630F1F
637006
630202
633F7E
630000
633F7E
C30000
C30003
837FFF
ENDCHAR
STARTCHAR C2522
ENCODING 9506
SWIDTH 400 0
DWIDTH 24 0
BBX 24 24 0 -2
BITMAP
0381C0
7381C0
6301C2
637FFF
6301C0
6301C4
633FFE
7F01C0
6301C2
607FFF
600000
621FFE
7F180E
63180C
631FFC
63180C
631FFC
63180C
E3180C
E31FFC
C30E18
C31C0E
833007
83C003
ENDCHAR
STARTCHAR C2523
ENCODING 9507
SWIDTH 400 0
DWIDTH 24 0
BBX 24 24 0 -2
BITMAP
038006
73BFFE
633006
633006
633FFE
633006
633006
7F3FFE
6301C6
6001C3
607FFF
6201C0
7F3FFE
6331C6
6331C6
633FFE
6331C6
6331C6
E33FFE
E331C6
C331C6
C331C6
83319E
83300C
ENDCHAR
STARTCHAR C2524
ENCODING 9508
SWIDTH 400 0
DWIDTH 24 0
BBX 24 24 0 -2
BITMAP
0380C0
7380C4
6300FE
6300C0
6330C7
633FFF
633186
7F3184
633FFC
603180
6031FE
62307C
7F303E
6331FE
633764
633266
63336C
633FFF
E33060
E33060
C37060
C363E0
8340E0
8300C0
ENDCHAR
STARTCHAR C2525
ENCODING 9509
SWIDTH 400 0
DWIDTH 24 0
BBX 24 24 0 -2
BITMAP
038338
738338
633F3F
630338
631330
631A02
631FFF
7F3007
632007
605037
601FF7
621B37
7F1B37
631FF7
631B37
631B37
631FF7
631B37
E31B37
E31337
C333F7
C36067
83001E
830006
ENDCHAR
STARTCHAR C2526
ENCODING 9510
SWIDTH 400 0
DWIDTH 24 0
BBX 24 24 0 -2
BITMAP
0E01C0
0E11CE
EC09CC
EC0DD8
EC05D6
ED3FFF
FFF007
CC6004
CC5FFC
8C180C
0C180C
0C180C
0F9FFC
3E19C8
FC01C0
6C01C0
0C01CC
0C1FFC
0C01C0
0C01C0
0C01C0
0C01C2
0C7FFF
0C0000
ENDCHAR
STARTCHAR C2527
ENCODING 9511
SWIDTH 400 0
DWIDTH 24 0
BBX 24 24 0 -2
BITMAP
060338
060338
763F3F
660338
661330
66DA02
7FDFFF
663007
C62007
C65037
861FF7
061B37
07DB37
0E1FF7
FE1B37
F61B37
461FF7
061B37
061B37
061337
0633F7
066067
06001E
040006
ENDCHAR
STARTCHAR C2528
ENCODING 9512
SWIDTH 400 0
DWIDTH 24 0
BBX 24 24 0 -2
BITMAP
1C70E0
1C70E0
FC70C2
FC60FF
FC69C6
FCEF4E
FFCA6C
DCC838
9DC83C
9DC86F
1CC8C7
1CCB00
1FC9FE
3CC9C6
FCC9F6
7CC9DE
1CC9C6
1CC9DE
1CC9F6
1CC1A6
1CC186
1CC306
1CC23E
18C40C
ENDCHAR
STARTCHAR C2529
ENCODING 9513
SWIDTH 400 0
DWIDTH 24 0
BBX 24 24 0 -2
BITMAP
060218
0643FC
FFE318
060318
0E461C
7FC40F
404800
FFF7FC
C0610C
BFC098
31C0F0
30C0F8
30E31F
60CE07
C0F880
003860
003036
FFFFFF
006000
00C180
018070
06001C
1C000E
F00007
ENDCHAR
STARTCHAR C252a
ENCODING 9514
SWIDTH 400 0
DWIDTH 24 0
BBX 24 24 0 -2
BITMAP
0C0070
061070
FFF864
000066
004062
3FE062
3063FF
306070
306060
3FE060
000060
403070
FFF870
E0B070
F8F0D8
EDB0C8
EF30C8
FFF1CC
E6318C
E63106
E63306
E63307
E0F603
C06C03
ENDCHAR
STARTCHAR C252b
ENCODING 9515
SWIDTH 400 0
DWIDTH 24 0
BBX 24 24 0 -2
BITMAP
0001C0
4701C0
6601C2
3C7FFF
1801C0
3C01CC
6C3FFE
C62000
863FFF
066007
06C00C
0F1FF8
1B1008
131FFC
23180C
43180C
83181C
031FF8
031018
070818
060C30
7E0622
3CFFFF
180000
ENDCHAR
STARTCHAR C252c
ENCODING 9516
SWIDTH 400 0
DWIDTH 24 0
BBX 24 24 0 -2
BITMAP
003860
8E3860
5C3260
39FF60
303063
7930FF
D9FEBB
0DB23A
0DB238
0DFE38
1DB638
1DB238
3DB238
2DFE38
4C323C
8C783C
0C7C6C
0CF664
0CF366
0DB346
1F30C6
F83187
703103
203203
ENDCHAR
STARTCHAR C252d
ENCODING 9517
SWIDTH 400 0
DWIDTH 24 0
BBX 24 24 0 -2
BITMAP
000000
470007
667FFF
3C0630
180636
3C7E7F
6C7427
C67007
867007
067E3F
066736
0F0630
1B0630
133636
233FFF
4331C6
8331C6
0331C6
033FFE
0731C6
0631C6
7E31C6
3C3FFE
183006
ENDCHAR
STARTCHAR C252e
ENCODING 9518
SWIDTH 400 0
DWIDTH 24 0
BBX 24 24 0 -2
BITMAP
000E00
470E06
66FFFF
3C0C00
18180C
3C1FFE
6C3C0E
C66C0C
86CC0C
060FFC
060800
0F2006
1B7FFF
137367
237677
43743F
8379C7
037DD7
037DDF
077DDF
067FFF
7E7417
3C701E
186006
ENDCHAR
STARTCHAR C252f
ENCODING 9519
SWIDTH 400 0
DWIDTH 24 0
BBX 24 24 0 -2
BITMAP
000000
8E8007
5CFFFF
38860E
309F3E
78BC78
D88C18
0C8C18
0CFF7F
0C8C18
1C8C18
1E9C3C
369E3C
269F7C
46BD7E
86BCDE
06ACDB
06ED9B
068D1A
0E8C18
0D8C18
FD8C18
390C18
300C18
ENDCHAR
STARTCHAR C2530
ENCODING 9520
SWIDTH 400 0
DWIDTH 24 0
BBX 24 24 0 -2
BITMAP
000000
47CE47
66FF7F
3CC667
18E667
3CFE7F
6CC667
C6E667
86FE7F
06C107
06C1C7
0EC187
1EDFFF
16C187
26C387
46C3C7
86C7A7
06CDB7
06C99F
06D187
06C187
FEC13F
3CC00E
18C00C
ENDCHAR
STARTCHAR C2531
ENCODING 9521
SWIDTH 400 0
DWIDTH 24 0
BBX 24 24 0 -2
BITMAP
0000C0
4700C4
6600FE
3C00C0
1820C7
3C7FFF
6C7386
C67384
867FFC
067300
067380
0F71FC
1B7100
1371B8
237DBE
437DBE
837DBE
037DBE
036FBE
076DBE
0661B8
7EC1B8
3C9FFF
180000
ENDCHAR
STARTCHAR C2532
ENCODING 9522
SWIDTH 400 0
DWIDTH 24 0
BBX 24 24 0 -2
BITMAP
0001C4
4739C6
6631C6
3C3FFE
180000
3C3FFE
6C3006
C63006
863FFE
063006
063006
0F3FFE
1B1804
131807
233FFF
433187
835DA7
0319E7
031987
071DB7
063FF6
7E00FE
3C003C
180018
ENDCHAR
STARTCHAR C2533
ENCODING 9523
SWIDTH 400 0
DWIDTH 24 0
BBX 24 24 0 -2
BITMAP
041818
86191F
4C1F9B
383198
3839FF
386F18
4CC738
8C363C
0CCC76
0ED8E3
0E31C3
1EC301
1E0100
3601C4
666186
C6318C
061BC8
060360
060730
060E38
0E1C1C
FC380F
3C7007
19C003
ENDCHAR
STARTCHAR C2534
ENCODING 9524
SWIDTH 400 0
DWIDTH 24 0
BBX 24 24 0 -2
BITMAP
00180C
8E381C
5C3018
386030
30CE67
798CC6
DDD8EC
0C783C
0C3018
0C6834
1C4C26
1C8643
3FFFFF
2DB2D9
4CB058
8C3018
0DB4DA
0DB6DB
0DB2D9
0D3299
1F3199
FA3118
70F078
206030
ENDCHAR
STARTCHAR C2535
ENCODING 9525
SWIDTH 400 0
DWIDTH 24 0
BBX 24 24 0 -2
BITMAP
000300
470182
667FFF
3C0000
183006
3C3FFF
6C31C6
C631C6
863FFE
0631C6
0631C6
0F3FFC
1B01C0
1301C7
237FFF
430740
830E47
031C6C
033C30
077C38
06EC9C
7F8F0F
3C0E07
180603
ENDCHAR
STARTCHAR C2536
ENCODING 9526
SWIDTH 400 0
DWIDTH 24 0
BBX 24 24 0 -2
BITMAP
000004
00700E
FFF7FF
30C266
3FC32C
30C98C
3FC6D8
30C270
30C070
FFC0DC
F8C30F
60C607
00D802
00000C
7FFFFE
001800
001800
001818
3FFFFC
0018C0
001860
001866
FFFFFF
000000
ENDCHAR
STARTCHAR C2537
ENCODING 9527
SWIDTH 400 0
DWIDTH 24 0
BBX 24 24 0 -2
BITMAP
006004
FFE00E
E60FFF
E60266
E7632C
FFF98C
E066D8
E06270
FFE070
E600DC
E6030F
E64607
FFF802
00000C
7FFFFE
001800
001800
001818
3FFFFC
0018C0
001860
001826
FFFFFF
000000
ENDCHAR
STARTCHAR C2538
ENCODING 9528
SWIDTH 400 0
DWIDTH 24 0
BBX 24 24 0 -2
BITMAP
03E20C
1FE3FE
76030E
06030C
07760F
FFF407
060FFC
660306
77E18C
6600F8
660070
66F0DF
FFC30F
601C02
20000C
7FFFFE
001800
001800
1FFFF8
003880
0018E0
001860
003827
FFFFFF
ENDCHAR
STARTCHAR C2539
ENCODING 9529
SWIDTH 400 0
DWIDTH 24 0
BBX 24 24 0 -2
BITMAP
0003F8
00FFFC
1FC008
38301C
0E1C30
04C840
03E018
3E07FC
300018
300018
3FC7F8
300018
300018
3FFFF8
300000
00000C
7FFFFE
001800
001818
3FFFFC
0018E0
001860
003827
7FFFFF
ENDCHAR
STARTCHAR C253a
ENCODING 9530
SWIDTH 400 0
DWIDTH 24 0
BBX 24 24 0 -2
BITMAP
000060
006030
04701A
FE21FF
31FE04
300C86
300CC6
310C44
318C6C
30986C
FED9FF
305838
307838
303038
30303A
3078FE
305838
30CC38
FF8C38
E30E38
C60638
040038
000038
000030
ENDCHAR
STARTCHAR C253b
ENCODING 9531
SWIDTH 400 0
DWIDTH 24 0
BBX 24 24 0 -2
BITMAP
000000
000807
011FFF
FFBB36
1C3334
1C063E
1C0C1F
1C1800
1C100C
1C03FE
7F1FC4
1C10C6
1C1CC6
1C0CCC
1C06D8
1C1FFF
1C01C0
1F83E0
FE07F0
F00ED8
601CCF
0038C7
00C0C2
0000C0
ENDCHAR
STARTCHAR C253c
ENCODING 9532
SWIDTH 400 0
DWIDTH 24 0
BBX 24 24 0 -2
BITMAP
0001C8
0000CC
010458
FF8E30
1C0E60
1C3EC6
1C7F87
1C6F0D
1C47FC
1C0FFC
7F1880
1CE1E0
1C01C4
1C31CE
1C3FFF
1C31C6
1C31C6
1FBFFE
FE21C4
F001C8
6001C6
007FFF
007E03
003003
ENDCHAR
STARTCHAR C253d
ENCODING 9533
SWIDTH 400 0
DWIDTH 24 0
BBX 24 24 0 -2
BITMAP
000E1C
000E1C
010C18
FFFFFF
1C0C18
1C0C18
1C0FF8
1C09D8
1C01C0
1C01C6
7F7FFF
1C71C7
1C71C7
1C73C7
1C7FFF
1C71C7
1C71C7
1FFFFF
FE71C7
F071C7
6071C7
0071FF
00718E
00600C
ENDCHAR
STARTCHAR C253e
ENCODING 9534
SWIDTH 400 0
DWIDTH 24 0
BBX 24 24 0 -2
BITMAP
0000C0
0000C2
0100FF
FF80C0
1C30C7
1C3FFF
1C3186
1C3184
1C3FFC
1C3180
7F31C0
1C30FE
1C3600
1C3604
1C37FE
1C3DB6
1C31B6
1FBFB6
FE77E6
F063F6
6066FF
00CD8F
019B7E
002218
ENDCHAR
STARTCHAR C253f
ENCODING 9535
SWIDTH 400 0
DWIDTH 24 0
BBX 24 24 0 -2
BITMAP
000E0C
000E0C
013F3F
FF8E0C
1C0C8C
1C01CA
1C0FF7
1C01C6
1C01CC
1C01D8
7F3FFF
1C0060
1C00C0
1C0180
1C03E0
1C0CE0
1C18C4
1FA0FE
FE00C0
F000C0
6000C0
0000C2
003FFF
000000
ENDCHAR
STARTCHAR C2540
ENCODING 9536
SWIDTH 400 0
DWIDTH 24 0
BBX 24 24 0 -2
BITMAP
000004
00300E
013FFF
FFB366
1C3366
1C3366
1C3FFE
1C0002
1C7FFF
1C0300
7F0718
1C0C38
1C1860
1C0EC0
1C0380
1C0347
1C064E
1F8C38
FE1C30
F07C18
61CC7E
000F8F
000E07
000600
ENDCHAR
STARTCHAR C2541
ENCODING 9537
SWIDTH 400 0
DWIDTH 24 0
BBX 24 24 0 -2
BITMAP
000E1C
000E1C
010C18
FF8E18
1C1B36
1C3363
1C61C3
1C0000
1C040E
1C07FF
7F0606
1C2606
1C77FE
1C7606
1C7606
1C77FE
1C7300
1FF306
FE7603
F07C03
607001
007FFE
003FFF
001FFF
ENDCHAR
STARTCHAR C2542
ENCODING 9538
SWIDTH 400 0
DWIDTH 24 0
BBX 24 24 0 -2
BITMAP
001000
039C07
FF99FF
1C1838
1D183A
7F38FE
1C3438
1FE63B
FEE3FF
61C180
0380C0
062078
1C391F
31198F
C38B82
038700
138E0C
339C06
73B827
63F023
01FFE0
03FFE0
060000
3C0000
ENDCHAR
STARTCHAR C2543
ENCODING 9539
SWIDTH 400 0
DWIDTH 24 0
BBX 24 24 0 -2
BITMAP
00E000
67E60C
7EC7FE
66C66C
66C66C
66C6FC
66C71C
66C60C
66C7FC
66C000
66C406
66CFFF
66CFB6
66CFB6
66CFB6
666FB6
6C7FFF
6C7000
6D3000
589800
D8CE00
FFC7FF
BCC1FF
10407C
ENDCHAR
STARTCHAR C2544
ENCODING 9540
SWIDTH 400 0
DWIDTH 24 0
BBX 24 24 0 -2
BITMAP
1C000E
1C627F
1FF3E6
307366
66C366
C38366
1B0366
E60366
CC0366
380366
F02366
3FF366
660366
C60366
860366
FFF366
070366
462356
7673DF
6676CB
66768F
6677FF
7FF5CF
006C01
ENDCHAR
STARTCHAR C2545
ENCODING 9541
SWIDTH 400 0
DWIDTH 24 0
BBX 24 24 0 -2
BITMAP
03E00E
1FF27F
F023E6
8C7366
E66366
62C366
208366
070366
0C4366
30E366
638366
7F0366
0CC366
306366
7FF366
7E3366
260366
260356
36C6DF
3666CB
66368F
C63DFF
BE0DCF
040801
ENDCHAR
STARTCHAR C2546
ENCODING 9542
SWIDTH 400 0
DWIDTH 24 0
BBX 24 24 0 -2
BITMAP
000000
003007
FFF3FF
0D81C0
4DF1C0
FFF9C0
EDB1CC
E9B1FE
F9F18E
F0318C
E0318C
FFF1EC
4001FC
0011BC
FFF18C
06030C
06230C
7FF30C
06030C
06030D
06032D
FFFBEF
FC0707
600303
ENDCHAR
STARTCHAR C2547
ENCODING 9543
SWIDTH 400 0
DWIDTH 24 0
BBX 24 24 0 -2
BITMAP
000004
00700E
FFF7FF
30C266
3FC32C
30C98C
3FC6D8
30C270
30C070
FFC0DC
F8C30F
60C607
00D802
000000
FFFFFF
060020
07FFF0
0C6070
0C3860
0C1861
1C0061
7FF87F
7E003F
70001E
ENDCHAR
STARTCHAR C2548
ENCODING 9544
SWIDTH 400 0
DWIDTH 24 0
BBX 24 24 0 -2
BITMAP
000000
600007
7FFFFF
6039C0
6031C7
6FFFFF
6031C0
6431CC
67FFFE
6631CC
67FFFC
640002
67FFFF
640007
6C000E
7BFFFC
60C020
60FFF0
618830
618E31
C38231
C7FF3F
87E03F
03000E
ENDCHAR
STARTCHAR C2549
ENCODING 9545
SWIDTH 400 0
DWIDTH 24 0
BBX 24 24 0 -2
BITMAP
301800
301807
FEFEFF
301860
301860
001060
181866
18187E
303066
307066
646466
66CE76
CCCC7E
ECD86E
3878C6
1838C6
3030C6
3070C6
6068C6
64CCC7
C6C6CF
FFFEF7
E3C2E7
0000C1
ENDCHAR
STARTCHAR C254a
ENCODING 9546
SWIDTH 400 0
DWIDTH 24 0
BBX 24 24 0 -2
BITMAP
000000
407007
FFFBFF
EDB1C0
EDB1C0
EDB1C0
FFF1CC
0001FE
00318E
FFF98C
03018C
0301EC
2301FC
3B01BC
33F18C
33030C
33030C
33030C
33030C
33030D
33032D
FFF3EF
FC0707
600303
ENDCHAR
STARTCHAR C254b
ENCODING 9547
SWIDTH 400 0
DWIDTH 24 0
BBX 24 24 0 -2
BITMAP
006070
FFE670
060760
FFE660
EE6662
EF67FF
F9E660
E06C60
E07860
E3E060
44C060
0607FE
07E060
760060
66C060
7FE060
70C060
D98062
8F0FFF
070000
0F8000
19FFFF
307FFF
E01FFC
ENDCHAR
STARTCHAR C254c
ENCODING 9548
SWIDTH 400 0
DWIDTH 24 0
BBX 24 24 0 -2
BITMAP
000200
000707
027F7F
FF0307
DB0307
930307
933F3F
933236
933030
937260
DB7777
FF7F7F
930307
933367
931B1F
930B0F
930707
931F1F
FFF3F7
826367
800307
003F3E
000E1C
000C08
ENDCHAR
STARTCHAR C254d
ENCODING 9549
SWIDTH 400 0
DWIDTH 24 0
BBX 24 24 0 -2
BITMAP
000738
000738
010638
FF9FFE
EDC638
ED8638
ED8638
ED8638
EDBFFF
ED8630
ED8C18
FF99CF
EDB187
EDC182
ED8180
ED8984
ED99B7
ED99BB
FFB99B
C1B180
000180
000F80
000700
000200
ENDCHAR
STARTCHAR C254e
ENCODING 9550
SWIDTH 400 0
DWIDTH 24 0
BBX 24 24 0 -2
BITMAP
00003E
0001FE
013F82
FF8187
EDD8C6
ED98CC
ED8988
ED8300
ED8638
ED8C70
ED9CC0
FF8798
ED873C
ED8FEE
ED9F86
ED99C2
ED81C0
ED8182
FFBFFF
C18300
00061C
000C0E
001807
00E003
ENDCHAR
STARTCHAR C254f
ENCODING 9551
SWIDTH 400 0
DWIDTH 24 0
BBX 24 24 0 -2
BITMAP
1801C0
1841C0
FFE1CC
180FFE
3041CC
3FE1CC
70618C
F0610D
B0630D
3FE60F
000C07
002803
FFE1C0
0001C0
40E1CC
FFFFFE
E661CC
E661CC
FFE18C
EE610D
E6630D
E6660F
FFEC07
C07803
ENDCHAR
STARTCHAR C2550
ENCODING 9552
SWIDTH 400 0
DWIDTH 24 0
BBX 24 24 0 -2
BITMAP
001800
001804
7FFFFE
001800
0E1870
0C1860
1E18F8
3399CC
69DB66
0E1870
0C1860
1F18F8
31998E
60DB06
301018
3FFFFC
301818
301818
3FFFF8
383818
301818
301818
3FFFF8
300018
ENDCHAR
STARTCHAR C2551
ENCODING 9553
SWIDTH 400 0
DWIDTH 24 0
BBX 24 24 0 -2
BITMAP
001820
003870
1FFFF8
001832
FFFFFF
001830
1FFFF0
003820
001810
3FFFF8
001802
FFFFFF
000000
000020
0FFFE0
64004E
67FFEE
66186C
67FFEC
6638EC
66186C
67FFEC
60000C
0FFFE0
ENDCHAR
STARTCHAR C2552
ENCODING 9554
SWIDTH 400 0
DWIDTH 24 0
BBX 24 24 0 -2
BITMAP
001800
001808
3FFFFC
001800
203807
7FFFFF
CFFFE6
9C3834
1C1830
1FFFF0
1C1830
1FFFF0
038000
070060
0C0038
3FFFFC
3FB80C
181814
1C1FF8
1C1800
1E1800
1FFFFF
30FFFF
E07FFC
ENDCHAR
STARTCHAR C2553
ENCODING 9555
SWIDTH 400 0
DWIDTH 24 0
BBX 24 24 0 -2
BITMAP
001800
000C00
100606
1FFFFF
180000
98C1E0
D861C0
7FFFC6
7861FF
18E1B7
18C130
199C30
3F1830
7FB030
D8E430
58CE78
318C78
331868
36306C
3078CC
60CCC6
630787
C60303
880603
ENDCHAR
STARTCHAR C2554
ENCODING 9556
SWIDTH 400 0
DWIDTH 24 0
BBX 24 24 0 -2
BITMAP
001800
000C00
100606
1FFFFF
180204
99C38E
D8E318
786322
7FFFFF
180300
186300
18F338
39C30E
7B0307
DC0203
580600
304300
32710C
326006
366013
6E6033
6C7FF1
C07FF0
801FE0
ENDCHAR
STARTCHAR C2555
ENCODING 9557
SWIDTH 400 0
DWIDTH 24 0
BBX 24 24 0 -2
BITMAP
001800
000C00
100606
1FFFFF
187070
987064
DBFFFE
787060
787062
1FFFFF
19C000
18C00C
39FFFE
79E38E
DBC30C
5EFFFC
30E38C
30C30C
30FFFC
30C38C
60C30C
61830C
C3037C
860008
ENDCHAR
STARTCHAR C2556
ENCODING 9558
SWIDTH 400 0
DWIDTH 24 0
BBX 24 24 0 -2
BITMAP
001800
000C00
100606
1FFFFF
180000
9FFFFF
D81800
79B00C
79FFFE
19800C
19FFFC
19800C
39FFFC
79800C
D9800C
59FFFC
336000
31FFFC
31F038
339860
670FC0
6C1FFF
C0707F
8FC00F
ENDCHAR
STARTCHAR C2557
ENCODING 9559
SWIDTH 400 0
DWIDTH 24 0
BBX 24 24 0 -2
BITMAP
001800
000C00
100606
1FFFFF
180000
99FFFE
D9800E
79800C
79FFFC
19800C
19FFFC
1801CC
3A01C6
7BFFFF
DB01C0
5B0DC6
33FCCE
330CCC
330C78
330C71
661C71
66F8DF
CC318F
980607
ENDCHAR
STARTCHAR C2558
ENCODING 9560
SWIDTH 400 0
DWIDTH 24 0
BBX 24 24 0 -2
BITMAP
001800
000C00
100606
1FFFFF
180000
987FF8
D86038
786638
7867F8
19663A
1BFFFF
1F0007
3E7FF8
786038
D86438
5863B8
3061B8
306078
307FB8
30DE38
60C838
6181F8
C30070
860060
ENDCHAR
STARTCHAR C2559
ENCODING 9561
SWIDTH 400 0
DWIDTH 24 0
BBX 24 24 0 -2
BITMAP
001800
000C00
100606
1FFFFF
180200
99C30E
D9830C
79870C
79FFFC
180304
1B8306
1B8306
3BFFFE
7B0004
D80080
5FFCE0
3318C0
33FCC1
370CC3
37987F
66703F
6C7FFF
D98FFF
B603FC
ENDCHAR
STARTCHAR C255a
ENCODING 9562
SWIDTH 400 0
DWIDTH 24 0
BBX 24 24 0 -2
BITMAP
001800
000C00
100606
1FFFFF
18C0C0
98E0E0
D8C0C2
7988FF
7B3CC0
1FE6C0
1B02E0
1800FF
3BFC7F
7B8C00
DBECE0
5BBCE0
338CC7
339CFF
33ECC0
33CCC1
634CC1
630CFF
C67C7F
8C183E
ENDCHAR
STARTCHAR C255b
ENCODING 9563
SWIDTH 400 0
DWIDTH 24 0
BBX 24 24 0 -2
BITMAP
001800
000C00
100606
1FFFFF
180E00
983830
D8FFFC
79F80E
78C006
186030
18C060
1988C6
3FFDFF
7B07C3
D80001
58FFFC
30DE0C
30C3EC
30C0EC
30C07C
60BFCC
61BC0C
C3187C
860008
ENDCHAR
STARTCHAR C255c
ENCODING 9564
SWIDTH 400 0
DWIDTH 24 0
BBX 24 24 0 -2
BITMAP
001800
000C00
100606
1FFFFF
1800C0
9900C0
D98086
78C7FE
780606
184606
1FE606
1867FE
38C600
798606
DFE7FF
5A7607
306607
306607
30C7FF
318606
630000
6FFFFF
C4FFFF
803FFC
ENDCHAR
STARTCHAR C255d
ENCODING 9565
SWIDTH 400 0
DWIDTH 24 0
BBX 24 24 0 -2
BITMAP
001800
000C00
100606
1FFFFF
180000
98EE60
D8CE30
78CE33
78CFFF
198C60
199C60
1B9C60
3BAFFE
7DCC70
D98C60
598C60
318C60
318FFE
318C60
318C60
618C60
618C62
C18FFF
818C00
ENDCHAR
STARTCHAR C255e
ENCODING 9566
SWIDTH 400 0
DWIDTH 24 0
BBX 24 24 0 -2
BITMAP
001800
000C00
100606
1FFFFF
184010
98E038
D8C030
799864
7F19CE
1FF1FC
186038
18D07C
3998E6
7FFDFE
DB8DE3
590480
300700
30E30C
32C006
36C013
6EC033
6CFFF1
C07FF0
803FE0
ENDCHAR
STARTCHAR C255f
ENCODING 9567
SWIDTH 400 0
DWIDTH 24 0
BBX 24 24 0 -2
BITMAP
00C218
7FE238
00E160
21C1C7
3380CE
1FFFF8
0E0038
1FFFFC
3E006F
E60067
07FFE0
0600E0
0300C0
010184
7FFFFE
0300C0
0300C0
0300C2
FFFFFF
0300C0
0600C0
0E00C0
1C00C0
3000C0
ENDCHAR
STARTCHAR C2560
ENCODING 9568
SWIDTH 400 0
DWIDTH 24 0
BBX 24 24 0 -2
BITMAP
000E00
100E00
180E06
30FFFF
220C00
7F180C
E31FFE
E33C0C
E36C0C
E3CFFC
E30C0C
E30802
FF7FFF
E37007
E37007
E377F7
E37637
E37637
FF77F7
E37627
C27007
00707F
00701E
00600C
ENDCHAR
STARTCHAR C2561
ENCODING 9569
SWIDTH 400 0
DWIDTH 24 0
BBX 24 24 0 -2
BITMAP
0001C0
1001C0
1801C0
300360
220638
7F0C1C
E31BFF
E33007
E3FFFE
E3180C
E3180C
E31FFC
FF180C
E3180C
E31FFC
E31800
E33006
E33FFF
FF3C06
E36C06
C26C06
00CC06
018FFE
000C06
ENDCHAR
STARTCHAR C2562
ENCODING 9570
SWIDTH 400 0
DWIDTH 24 0
BBX 24 24 0 -2
BITMAP
060060
060862
060E67
060C67
6ECC67
7FFFFF
66C862
668060
660062
661FFF
6EC000
7FC002
60CFFF
60CC07
798C07
6F8DF7
670DB7
E78DB7
CFCDB7
9CCDF7
B84C07
700C07
000FFF
000C06
ENDCHAR
STARTCHAR C2563
ENCODING 9571
SWIDTH 400 0
DWIDTH 24 0
BBX 24 24 0 -2
BITMAP
180600
30C604
6067FE
FFF600
E03700
7FF3FF
346000
366704
33E7FE
3F6600
246601
63E7FF
C0D3FF
001800
40180E
7FFFFF
601804
6FFFF8
630070
60C1C0
607F00
C07FFF
C1C1FF
BE003F
ENDCHAR
STARTCHAR C2564
ENCODING 9572
SWIDTH 400 0
DWIDTH 24 0
BBX 24 24 0 -2
BITMAP
000318
18030C
0DFFFE
820300
E6C38C
64FFFE
0CC30C
08FFFC
18C30C
18FFFC
70E38C
38C30C
38C33C
38C31C
100008
000030
1FFFF0
1CC630
1CC630
1CC630
1CC630
1CC632
FFFFFF
000000
ENDCHAR
STARTCHAR C2565
ENCODING 9573
SWIDTH 400 0
DWIDTH 24 0
BBX 24 24 0 -2
BITMAP
060070
060070
064062
7FE7FE
060060
060060
066062
FFE7FF
0C0060
1800C8
10818C
204306
FFE7FF
F837C3
600601
000030
1FFFF0
1CC630
1CC630
1CC630
1CC630
1CC632
FFFFFF
000000
ENDCHAR
STARTCHAR C2566
ENCODING 9574
SWIDTH 400 0
DWIDTH 24 0
BBX 24 24 0 -2
BITMAP
001800
001800
001804
7FFFFE
003800
011808
3F9BFC
31DB9C
319B0C
3F9BFC
319B0C
3F9BFC
319B0C
319B9C
3F9BF8
001800
003807
FFFFFF
060040
060060
0C001C
18000E
300007
E00003
ENDCHAR
STARTCHAR C2567
ENCODING 9575
SWIDTH 400 0
DWIDTH 24 0
BBX 24 24 0 -2
BITMAP
000000
021007
FF3FFF
E37006
E32004
E31FFC
E30000
E30006
FF3FFE
E30300
E30786
E30CCF
E319FC
FF6370
E30660
E30CF0
E319F8
E373FC
E3076F
FF0C67
E33863
406FE0
0003C0
000180
ENDCHAR
STARTCHAR C2568
ENCODING 9576
SWIDTH 400 0
DWIDTH 24 0
BBX 24 24 0 -2
BITMAP
0001C0
0201C0
FF01CC
E33FFE
E301C0
E301C2
E37FFF
E301C0
FF01C0
E301C4
E33FFE
E301C0
E301C0
FF01C7
E37FFF
E301C0
E300E0
E30C40
E34C06
FF4C0B
E2CC0B
40CFF8
000FF8
0003F0
ENDCHAR
STARTCHAR C2569
ENCODING 9577
SWIDTH 400 0
DWIDTH 24 0
BBX 24 24 0 -2
BITMAP
000000
020007
FF7FFF
E30360
E30366
E37F7F
E37367
E37367
FF7367
E37F7F
E36776
E30360
E303E0
FF01C0
E301C0
E301C0
E301CC
E31FFC
E301C0
FF01C0
E301C0
4001C2
007FFF
000000
ENDCHAR
STARTCHAR C256a
ENCODING 9578
SWIDTH 400 0
DWIDTH 24 0
BBX 24 24 0 -2
BITMAP
000606
027F7F
FF2327
E31B1F
E30707
E31F1F
E37377
E36727
FF0E0E
E30404
E3001C
E307FE
E33D80
FF0180
E30186
E33FFE
E30180
E30182
E37FFF
FF0181
E30181
4001FF
0001FF
00007E
ENDCHAR
STARTCHAR C256b
ENCODING 9579
SWIDTH 400 0
DWIDTH 24 0
BBX 24 24 0 -2
BITMAP
00180C
02180C
FF7F7F
E3180C
E3190C
E300C8
E300C2
E37FFF
FF1800
E31800
E31800
E31800
E31FFE
FF0000
E3108C
E319CE
E319CC
E319CC
E319CC
FF19CC
E311CC
4031CE
006187
00C003
ENDCHAR
STARTCHAR C256c
ENCODING 9580
SWIDTH 400 0
DWIDTH 24 0
BBX 24 24 0 -2
BITMAP
000870
020E70
FF0C60
E36D62
E36FFF
E36C60
E36C61
E36C61
FF6FF3
E37E7F
E3F03F
E361E0
E301C0
FF01C2
E37FFF
E301C0
E301C0
E31DC8
E319CC
FF31C6
E321C3
4041C3
0081C0
000180
ENDCHAR
STARTCHAR C256d
ENCODING 9581
SWIDTH 400 0
DWIDTH 24 0
BBX 24 24 0 -2
BITMAP
0001C0
0231C4
FF39C7
E331C6
E331C6
E33FFE
E32184
E30100
FF0202
E37FFF
E301E0
E301C0
E301C6
FF3FFE
E331C6
E331C6
E331C6
E33FFE
E321C0
FF01CC
E301C6
407FFF
007E03
003003
ENDCHAR
STARTCHAR C256e
ENCODING 9582
SWIDTH 400 0
DWIDTH 24 0
BBX 24 24 0 -2
BITMAP
00007E
0207FE
FF3DC0
E301C0
E311CC
E31DCE
E319CC
E319CC
FF39CE
E32DDB
E347F1
E301E1
E301C0
FF11CC
E31DCE
E319CC
E319CC
E339CE
E32DDB
FF47F1
E301E1
4001C0
0001C0
000180
ENDCHAR
STARTCHAR C256f
ENCODING 9583
SWIDTH 400 0
DWIDTH 24 0
BBX 24 24 0 -2
BITMAP
001006
439FFE
FF9806
E39806
E39FFE
FF98C0
E39FFF
E398C0
FF9861
E39871
E39B3B
FF9C1F
410867
0FFFF0
0C0070
0C0060
0FFFE0
0C0060
0C0060
0FFFE0
0C0060
0C0060
0FFFE0
0C0060
ENDCHAR
STARTCHAR C2570
ENCODING 9584
SWIDTH 400 0
DWIDTH 24 0
BBX 24 24 0 -2
BITMAP
0E0004
0E000E
0C0FFF
0FE20C
0C0118
0C00F0
0C00F0
0C61FC
FFE30F
000C07
000000
7FC40E
000FFF
000E06
006E06
FFEFFE
060E06
460E06
768FFE
66CE06
666E06
C66E06
860FFE
040C06
ENDCHAR
STARTCHAR C2571
ENCODING 9585
SWIDTH 400 0
DWIDTH 24 0
BBX 24 24 0 -2
BITMAP
1C3030
1C1830
1803B6
18EB33
186B33
181A33
5C1437
5E301C
DB7030
D930E0
D83300
981600
181006
181FFE
181806
181806
181FFE
181806
181806
181FFE
181806
181806
181FFE
181006
ENDCHAR
STARTCHAR C2572
ENCODING 9586
SWIDTH 400 0
DWIDTH 24 0
BBX 24 24 0 -2
BITMAP
0E0060
0E0230
0C8318
FFC70C
0C0606
0C8C07
FFC803
E1D00C
E0CFFE
E0CE0E
FFCE0C
E0CE0C
E0CFFC
E1CE0C
FF8E0C
0C0E0C
0C8E0C
FFCFFC
0C0E0C
0C0E0C
0C0E0C
0C0E0C
0C0FFC
0C0C0C
ENDCHAR
STARTCHAR C2573
ENCODING 9587
SWIDTH 400 0
DWIDTH 24 0
BBX 24 24 0 -2
BITMAP
000008
20001C
3FFFFC
30C30C
30C30C
30C30C
30C30C
30C30C
30C30C
3FFFFC
200000
000000
000000
FFE7FF
DB66DB
DB66DB
DB66DB
DB66DB
DB66DB
DB66DB
DB66DB
DB66DB
FFE7FF
C06603
ENDCHAR
STARTCHAR C2574
ENCODING 9588
SWIDTH 400 0
DWIDTH 24 0
BBX 24 24 0 -2
BITMAP
000C07
038C07
FFCFFF
030C07
620C07
340C06
1C0000
1C8FFE
FFCC07
0CCC07
1D8FFF
1C0C07
3C0C07
3C0FFE
6C2870
4C7860
CC7060
8C70F8
0C718E
0C7306
0C7E03
FC7000
3C7FFF
180000
ENDCHAR
STARTCHAR C2575
ENCODING 9589
SWIDTH 400 0
DWIDTH 24 0
BBX 24 24 0 -2
BITMAP
0000C0
0380C0
FFC1E0
030198
62030C
34061F
1C0FFB
1CB000
FFDFFE
0CD806
1D9806
1C1FFE
3C1806
3C1806
6C1FFE
4C1800
CC1807
8C1FFF
0C3E07
0C2E07
0C6E07
FCCE07
3C0FFF
180C06
ENDCHAR
STARTCHAR C2576
ENCODING 9590
SWIDTH 400 0
DWIDTH 24 0
BBX 24 24 0 -2
BITMAP
700600
70FF06
60C67E
60C600
66C600
7EC600
D8C600
98FEFF
180060
184060
186E66
FF6EFF
186E47
18FF07
186E07
186E07
3C6E07
366E07
366E07
236E07
636E06
417E7E
806C1C
004018
ENDCHAR
STARTCHAR C2577
ENCODING 9591
SWIDTH 400 0
DWIDTH 24 0
BBX 24 24 0 -2
BITMAP
300300
3017A7
301C3F
301B37
219B37
7F9B37
6C1B37
CC1F37
8C1F3F
0C1B36
0C8230
FFC434
0C0FFE
0C1CC6
0C18C6
0E18C6
1F18C6
199FFE
1998C6
30D8C6
20D8C6
4018C6
801FFE
001806
ENDCHAR
STARTCHAR C2578
ENCODING 9592
SWIDTH 400 0
DWIDTH 24 0
BBX 24 24 0 -2
BITMAP
3000C0
3000C0
3001E0
300198
21830C
7F861F
6C0FFB
CC3000
8C1FFE
0C1806
0C9806
FFDFFE
0C1806
0C1806
0C1FFE
0E1800
1F1C06
199FFF
18DE06
30FE06
203E06
406E06
80CFFE
000C06
ENDCHAR
STARTCHAR C2579
ENCODING 9593
SWIDTH 400 0
DWIDTH 24 0
BBX 24 24 0 -2
BITMAP
387070
387270
30FF62
FEC37F
30C360
30FF60
30C361
30C361
FCFF7F
F0C33F
400000
180000
180018
1FFFFC
301800
601800
001806
FFFFFF
003000
006000
01C1E0
03007C
0C000F
F00007
ENDCHAR
STARTCHAR C257a
ENCODING 9594
SWIDTH 400 0
DWIDTH 24 0
BBX 24 24 0 -2
BITMAP
000300
019186
FFDFFF
183337
187330
300630
300C3E
30181E
312000
7F9FFE
739C0E
73980C
F3980C
F39C0C
339FFC
33980C
33980C
33980C
3F9FFC
33180C
30180C
20180C
007FFF
000000
ENDCHAR
STARTCHAR C257b
ENCODING 9595
SWIDTH 400 0
DWIDTH 24 0
BBX 24 24 0 -2
BITMAP
0000E0
0180E0
FFC0C2
183FFF
1800C0
30018C
3003FE
30330E
31330C
7FB3FC
73B30C
73B30C
F3B3FC
F3B30C
33B30C
33B3FC
33B20C
33B002
3FBFFF
333400
300E18
201C0E
007007
01C003
ENDCHAR
STARTCHAR C257c
ENCODING 9596
SWIDTH 400 0
DWIDTH 24 0
BBX 24 24 0 -2
BITMAP
000000
013007
FFBFFF
18318C
18318C
30318C
3033FE
30319C
31318C
7FB18C
73B18C
73B7FF
F3B000
F3B004
33B3FE
33B306
33B306
33B306
3FB3FE
333306
303306
206306
0043FE
000206
ENDCHAR
STARTCHAR C257d
ENCODING 9597
SWIDTH 400 0
DWIDTH 24 0
BBX 24 24 0 -2
BITMAP
00180C
02180C
FF7F7F
18180C
18180C
300008
300C0C
300C0C
321818
7F1838
733030
733367
F36766
F37666
331E3C
330C0C
331818
331818
3F3830
333634
327362
207FFF
00F1F1
006161
ENDCHAR
STARTCHAR C257e
ENCODING 9598
SWIDTH 400 0
DWIDTH 24 0
BBX 24 24 0 -2
BITMAP
000870
010E70
FF8C60
186D62
186FFF
306C60
306C61
306C61
326DF3
7F7F7F
73783F
7331E0
F301C0
F301C2
337FFF
3301C0
3301C0
331DC8
3F19CC
3331C6
3221C3
2041C3
0081C0
000180
ENDCHAR
STARTCHAR C2621
ENCODING 9761
SWIDTH 400 0
DWIDTH 24 0
BBX 24 24 0 -2
BITMAP
001860
021860
FF3062
18737F
18DFC7
30EE87
303D07
303807
363807
7FCCC7
770E67
761E37
F63E17
F67607
36C607
360E07
361E07
363607
3FC607
360607
300606
20FC7E
00781C
001018
ENDCHAR
STARTCHAR C2622
ENCODING 9762
SWIDTH 400 0
DWIDTH 24 0
BBX 24 24 0 -2
BITMAP
000180
010380
FF8300
180618
180C0C
303FFE
303F06
301800
320000
7F180C
73180C
731018
F32436
F36663
33FF7F
336361
330000
330000
3F4800
334C44
324666
20C663
00C223
008001
ENDCHAR
STARTCHAR C2623
ENCODING 9763
SWIDTH 400 0
DWIDTH 24 0
BBX 24 24 0 -2
BITMAP
000E0E
023F7E
FF58F8
181838
181838
301838
30FE7F
301C38
361838
7F1838
773C3C
763E7C
F67F7C
F67B7C
3658FE
36D9BF
3799BB
379B3B
3F1B3A
361E38
301838
201838
001838
001830
ENDCHAR
STARTCHAR C2624
ENCODING 9764
SWIDTH 400 0
DWIDTH 24 0
BBX 24 24 0 -2
BITMAP
000300
018300
FFD21C
181FFC
18180C
30180C
30180C
30181C
311FF8
7F9800
739806
739FFE
F39800
F39807
339FFF
338027
338137
33AD9F
3FE6C7
336407
304006
2003FE
00007C
000038
ENDCHAR
STARTCHAR C2625
ENCODING 9765
SWIDTH 400 0
DWIDTH 24 0
BBX 24 24 0 -2
BITMAP
060200
060338
0663FC
FFE318
060318
064318
7FE718
00061F
40E60F
FFFC00
C0580C
8007FE
7FE20E
00020C
FFE118
3001B8
30C0F0
3FE0E0
70E0F0
B0C1F8
30C39C
30C70F
3FCE07
303803
ENDCHAR
STARTCHAR C2626
ENCODING 9766
SWIDTH 400 0
DWIDTH 24 0
BBX 24 24 0 -2
BITMAP
18000C
0C0FFE
0C000E
003FFF
03800C
7FCFFC
038FFF
0318C7
0630C6
0E1FFE
0C18C6
1F18C6
3D98FE
2CD8CC
4C00C0
8C1FFE
0C0C0C
0C0618
0C0330
0C01E0
0C00F0
0C03BF
0C0E0F
0C3807
ENDCHAR
STARTCHAR C2627
ENCODING 9767
SWIDTH 400 0
DWIDTH 24 0
BBX 24 24 0 -2
BITMAP
180000
0C0007
0C1FFF
000E0C
038E0C
7FCFFC
038E0C
030E0C
060E0C
0E0FFC
0C0E0C
1F0E0C
3D9FFF
2DB0C3
4CB0C3
8C30C3
0C30C3
0C3FFF
0C30C3
0C30C3
0C30C3
0C30C3
0C3FFF
0C3003
ENDCHAR
STARTCHAR C2628
ENCODING 9768
SWIDTH 400 0
DWIDTH 24 0
BBX 24 24 0 -2
BITMAP
180000
0C080C
0C0FFE
000C0C
038CCC
7FCCFC
038CCC
030CCC
061FFF
0E3003
0C6002
1F0FFC
3D8C0C
2CCD8C
4C0CEC
8C0C6C
0C0C1C
0C0FEC
0C0F8C
0C198C
0C180C
0C18FC
0C303C
0C6018
ENDCHAR
STARTCHAR C2629
ENCODING 9769
SWIDTH 400 0
DWIDTH 24 0
BBX 24 24 0 -2
BITMAP
0000C0
00C0C4
FFC0FE
0C00C0
0C10C7
4C1FFF
7D1986
6D9984
6D9FFC
6C9980
6CD9C0
6CD8FC
6CDA00
ECDBFC
CCDB0C
CCDB0C
8C1BFC
0C1B0C
0C330C
0C33FC
0C330C
0C630C
0CDFFF
0C8000
ENDCHAR
STARTCHAR C262a
ENCODING 9770
SWIDTH 400 0
DWIDTH 24 0
BBX 24 24 0 -2
BITMAP
000C00
00CC06
FFCFFF
0C1807
0C1C67
4C0FF7
7D0FE7
6D8E67
6D8FE7
6C8467
6CC03E
6CC00C
6CC804
ECCFFE
CCCC06
CCCC06
8C0FFE
0C0C06
0C0C06
0C0FFE
0C0804
0C0002
0C3FFF
0C0000
ENDCHAR
STARTCHAR C262b
ENCODING 9771
SWIDTH 400 0
DWIDTH 24 0
BBX 24 24 0 -2
BITMAP
00C018
3FE7FC
30E618
30C618
3FC7F8
000000
1FFFF0
1C3830
1C1830
1FFFF0
1C3830
1C1830
1FFFF0
603800
60180C
FFFFFE
60188C
6018CC
67FFEC
6FC06C
66002C
6001FC
60003C
600018
ENDCHAR
STARTCHAR C262c
ENCODING 9772
SWIDTH 400 0
DWIDTH 24 0
BBX 24 24 0 -2
BITMAP
00C600
38C61C
30C618
3FC7F8
30C618
00C620
1FFFF0
1D81B0
1DE7B0
1C3E30
1C7730
1FC1F0
1FFFF0
083820
70180C
FFFFFE
60388E
60188C
601FCC
6FFE6C
6FC02C
6601FC
60003C
600018
ENDCHAR
STARTCHAR C262d
ENCODING 9773
SWIDTH 400 0
DWIDTH 24 0
BBX 24 24 0 -2
BITMAP
001800
003C00
00F700
01C3C0
060078
1C003F
FFFFEF
001800
119B30
1FDBF8
199B38
199B38
1F9BF0
601800
60180C
FFFFFE
60188C
6018CC
67FFEC
6FC06C
66002C
6001FC
60003C
600018
ENDCHAR
STARTCHAR C262e
ENCODING 9774
SWIDTH 400 0
DWIDTH 24 0
BBX 24 24 0 -2
BITMAP
070380
1F01DC
FC0E38
1C1E36
1C3E63
1C7EC7
FF6F84
1C0708
1C0FFC
1C1BF8
1E6100
3F0182
3FBFFF
3D7007
7C6806
5C4E08
DC0C3C
9C0DFC
1C1F00
1C0C02
1C0C06
1C0FFE
1C0FFE
1803FC
ENDCHAR
STARTCHAR C262f
ENCODING 9775
SWIDTH 400 0
DWIDTH 24 0
BBX 24 24 0 -2
BITMAP
070630
1F0630
FC3FFE
1C0630
1C0634
1C1FFC
FF8630
1C7FFF
1C01C0
1C11CC
1E1FFE
3F19CE
3F99CC
3D19CC
7C1FFC
5C19CC
DC19CC
9C7FFF
1C180C
1C180C
1C180C
1C187C
1C181C
181018
ENDCHAR
STARTCHAR C2630
ENCODING 9776
SWIDTH 400 0
DWIDTH 24 0
BBX 24 24 0 -2
BITMAP
0701C8
1F01CC
FC01C6
1C7FFF
1C01C0
1C3FFE
FFB1C6
1C31C6
1C3FFE
1C31C6
1E31C6
3F3FFE
3FB1C6
3D319E
7C300C
5C000C
DC7FFF
9C100C
1C1C0C
1C0C0C
1C000C
1C01FC
1C0078
180030
ENDCHAR
STARTCHAR C2631
ENCODING 9777
SWIDTH 400 0
DWIDTH 24 0
BBX 24 24 0 -2
BITMAP
070008
1F101C
FC1FFC
1C19CC
1C19CC
1C198C
FF998C
1C1B4C
1C1E6C
1C1C2C
1E181C
3F1FF8
3F8000
3D0004
7C7FFE
5C7666
DC7666
9C7666
1C7666
1C7666
1C7666
1C7666
1CFFFF
180000
ENDCHAR
STARTCHAR C2632
ENCODING 9778
SWIDTH 400 0
DWIDTH 24 0
BBX 24 24 0 -2
BITMAP
0701C0
1F31C4
FC39C7
1C31C6
1C31C6
1C3FFE
FFA004
1C0002
1C7FFF
1C0000
1E000C
3F1FFE
3F980E
3D180C
7C180C
5C180C
DC1FFC
9C1000
1C000C
1C081C
1C0C18
1C0630
1C0667
187FFF
ENDCHAR
STARTCHAR C2633
ENCODING 9779
SWIDTH 400 0
DWIDTH 24 0
BBX 24 24 0 -2
BITMAP
070000
1F3997
FC34FF
1C3337
1C31E7
1C3DFF
FFB7FF
1C3337
1C3E9F
1C30C7
1E3FFE
3F0000
3FB800
3D380C
7C303E
5C30F0
DC3380
9C3C00
1C3000
1C3001
1C3003
1C3FFE
1C1FFE
180FFC
ENDCHAR
STARTCHAR C2634
ENCODING 9780
SWIDTH 400 0
DWIDTH 24 0
BBX 24 24 0 -2
BITMAP
07180E
1F180E
FC1B6C
1C3F7F
1C336C
1C3B6C
FF7F6C
1CCE7F
1C060C
1C0C0C
1E180C
3F31EC
3FC1CC
3D01C2
7C7FFF
5C01C0
DC01C0
9C1DC8
1C19CC
1C31C6
1C21C7
1C41C3
1C81C1
180180
ENDCHAR
STARTCHAR C2635
ENCODING 9781
SWIDTH 400 0
DWIDTH 24 0
BBX 24 24 0 -2
BITMAP
070300
1F0304
FC1FFE
1C1806
1C1806
1C1FFE
FF9806
1C1806
1C1FFE
1C1304
1E0302
3F3FFF
3F8700
3D0E08
7C1C1C
5C3870
DC61C4
9C1E1E
1C0070
1C01C6
1C3E0F
1C0078
1C01C0
183E00
ENDCHAR
STARTCHAR C2636
ENCODING 9782
SWIDTH 400 0
DWIDTH 24 0
BBX 24 24 0 -2
BITMAP
078300
3FC300
660300
066706
FFE7FF
0E0407
1F8807
3EC007
666187
C62187
060307
040307
060367
464637
76EFFF
36CF1F
0EA407
FFE007
060007
768006
66600E
C671FC
862078
040030
ENDCHAR
STARTCHAR C2637
ENCODING 9783
SWIDTH 400 0
DWIDTH 24 0
BBX 24 24 0 -2
BITMAP
060218
0643FC
FFE318
060318
0E460F
7FC407
404BFC
FFE118
C060B0
804070
0060FC
FFE31F
000C07
0000F0
01FFF8
3F1800
001806
FFFFFF
001800
041800
0E1870
18181E
601807
801001
ENDCHAR
STARTCHAR C2638
ENCODING 9784
SWIDTH 400 0
DWIDTH 24 0
BBX 24 24 0 -2
BITMAP
007000
00700C
7FFFFE
006000
006008
3FFFFC
00C000
018002
FFFFFF
060060
0C0038
18001F
33C07F
FFE3FA
3606C0
0660C6
7FEFFE
0600E0
0F81F0
1FC3D8
3E46CF
760CC7
C630C2
0640C0
ENDCHAR
STARTCHAR C2639
ENCODING 9785
SWIDTH 400 0
DWIDTH 24 0
BBX 24 24 0 -2
BITMAP
003000
201806
3FFFFF
61C307
C38304
C601FE
0800FE
7FFFFE
008000
1FFFF8
1C0038
1FFFF8
1C0038
1FFFF8
1C0038
0FFFF0
370000
0FFFF8
0F80E0
18C1C0
703F00
00FFFF
0781FF
FC003F
ENDCHAR
STARTCHAR C263a
ENCODING 9786
SWIDTH 400 0
DWIDTH 24 0
BBX 24 24 0 -2
BITMAP
003000
201806
3FFFFF
61C307
C38304
C701FE
1CC0FE
00C000
3FFFF0
01C070
038061
070063
0E007E
18003E
20181C
FFFC04
387FFE
3FF306
3FF18C
3870D8
33F070
FE70FF
E0718F
006E07
ENDCHAR
STARTCHAR C263b
ENCODING 9787
SWIDTH 400 0
DWIDTH 24 0
BBX 24 24 0 -2
BITMAP
00C300
00C304
7FC3FE
00C301
01C301
FFC3FF
F0C3FF
601800
200802
7FFFFF
E18306
C30380
8601FE
180000
0FFFF0
1C0038
1C0038
1C0038
1FFFF0
018301
030301
0E03FF
1801FF
E000FE
ENDCHAR
STARTCHAR C263c
ENCODING 9788
SWIDTH 400 0
DWIDTH 24 0
BBX 24 24 0 -2
BITMAP
2000C0
3000C2
183FFF
080180
01810C
FF83FE
00030E
03BB0C
03B30C
C3B3FC
43330C
63330C
6333FC
22330C
36330C
36330C
3633FC
04F202
1F3FFF
F83400
E00E18
401C0E
003007
00C003
ENDCHAR
STARTCHAR C263d
ENCODING 9789
SWIDTH 400 0
DWIDTH 24 0
BBX 24 24 0 -2
BITMAP
200600
300608
1807FC
080E0C
018C0C
FF9FF8
000818
03803F
039FFF
C386E0
430DE0
633BE0
630760
220063
360C67
36066C
360278
04C0E0
1F077C
F83C67
E03863
401FE1
0001C0
000180
ENDCHAR
STARTCHAR C263e
ENCODING 9790
SWIDTH 400 0
DWIDTH 24 0
BBX 24 24 0 -2
BITMAP
201800
301804
181FFE
081800
019800
FF9FFE
000FFF
038000
03820C
C383FE
433B0C
6333FC
63330C
22330C
3633FC
36330C
3633FC
04F002
1F3FFF
F83400
E00E18
401C0E
003007
00C003
ENDCHAR
STARTCHAR C263f
ENCODING 9791
SWIDTH 400 0
DWIDTH 24 0
BBX 24 24 0 -2
BITMAP
200C00
300C07
180FFF
0809C7
0195D7
FF87F7
0007F7
0387F7
038187
C3813E
43020C
631C00
631FFF
221887
3611C7
362DDF
360DDF
04CDDF
1F0FFF
F80D97
E00307
40067E
00183C
001008
ENDCHAR
STARTCHAR C2640
ENCODING 9792
SWIDTH 400 0
DWIDTH 24 0
BBX 24 24 0 -2
BITMAP
1C0300
1C2302
3FF7FF
330460
618830
C0B002
3FFFFF
603807
E83826
CC3074
0668C0
02C600
0183C0
0600F0
0C003F
FFFFFF
060070
0300E0
00C180
007700
003E00
00F7FF
0780FF
FC001F
ENDCHAR
STARTCHAR C2641
ENCODING 9793
SWIDTH 400 0
DWIDTH 24 0
BBX 24 24 0 -2
BITMAP
1C0300
1C3306
1FFFFF
330C70
218830
419018
800700
180700
1C0602
09FFFF
820C10
66181C
66307E
04FFC6
0CFC03
186000
104308
30638C
F0630C
70630C
30630C
30C30E
30830F
010007
ENDCHAR
STARTCHAR C2642
ENCODING 9794
SWIDTH 400 0
DWIDTH 24 0
BBX 24 24 0 -2
BITMAP
1C0300
1C3306
1FFFFF
330C70
218830
419018
80000C
1800FE
1CFFFE
08C004
82C03E
66CFFE
66CC40
04CC46
0CCC4F
18CC5C
10CC70
30CC20
F0CC30
70CC18
308CDC
318F8F
330E07
060603
ENDCHAR
STARTCHAR C2643
ENCODING 9795
SWIDTH 400 0
DWIDTH 24 0
BBX 24 24 0 -2
BITMAP
1C0300
1C2302
3FF7FF
330C60
618830
C0B000
001818
3FFFFC
0201C0
010180
018106
FFFFFF
000030
001030
1FF830
1C1830
1C1830
1C1830
1FF830
081030
000030
000FF0
0001E0
000040
ENDCHAR
STARTCHAR C2644
ENCODING 9796
SWIDTH 400 0
DWIDTH 24 0
BBX 24 24 0 -2
BITMAP
1C0300
1C2302
3FF7FF
330C60
618830
C0B000
003006
FFFFFF
000000
1FFFF0
1C0030
1C0030
1C0030
1C0030
1FFFF0
001C00
003807
FFFFFF
001800
071860
0C1838
18180E
601806
801002
ENDCHAR
STARTCHAR C2645
ENCODING 9797
SWIDTH 400 0
DWIDTH 24 0
BBX 24 24 0 -2
BITMAP
1C0300
1C3306
1FFFFF
330C70
218830
419018
A00000
200007
7FFFFF
E00006
CE0038
9C7FFC
1A1818
331818
E71FFE
0E1C06
1C1A0C
3C330C
7C3198
CC20F0
0C60F0
0CC1BF
0D860F
0C3807
ENDCHAR
STARTCHAR C2646
ENCODING 9798
SWIDTH 400 0
DWIDTH 24 0
BBX 24 24 0 -2
BITMAP
1C0300
1C3306
1FFFFF
330C70
218830
419018
800008
1E007C
1C07FC
1C9CC0
9CC0C0
7D80C2
7F1FFF
1C00C0
1C00C0
1C01E0
1C03F0
1C06D8
1E0CCF
3318C7
33B0C3
6160C0
C000C0
8000C0
ENDCHAR
STARTCHAR C2647
ENCODING 9799
SWIDTH 400 0
DWIDTH 24 0
BBX 24 24 0 -2
BITMAP
1C0300
1C2302
3FF7FF
330C60
618830
C08000
3FFFFC
00000C
1FFF8C
00000C
0C030C
0FFF8C
0C030C
0FFF0C
00001C
0003F8
000030
261C20
270E0C
260426
660023
C7FFE3
83FFE0
01FFC0
ENDCHAR
STARTCHAR C2648
ENCODING 9800
SWIDTH 400 0
DWIDTH 24 0
BBX 24 24 0 -2
BITMAP
180300
187307
3FF7FF
618C30
C10810
8FFFF0
000000
00000C
3FFFFC
0300E0
060038
3FFFFC
3FD80C
181830
1FFFF8
181838
18383A
7FFFFE
181838
FFFFFF
180038
180038
1801F0
180030
ENDCHAR
STARTCHAR C2649
ENCODING 9801
SWIDTH 400 0
DWIDTH 24 0
BBX 24 24 0 -2
BITMAP
1C0300
1C3306
1FFFFF
330C70
218830
419018
8381C8
0381CC
031986
7FF983
030180
030182
FFFFFF
000180
00218C
3FF1CE
3038CC
3030D8
303070
3030E1
3FF3B1
20271F
00180F
01F007
ENDCHAR
STARTCHAR C264a
ENCODING 9802
SWIDTH 400 0
DWIDTH 24 0
BBX 24 24 0 -2
BITMAP
1C0300
1C3306
1FFFFF
330C70
218830
419018
800004
001B0E
FFFBFF
30730C
307308
3FF310
307318
30730C
307306
3FF306
387307
307307
307307
3BF3FE
FE731C
607308
007300
006300
ENDCHAR
STARTCHAR C264b
ENCODING 9803
SWIDTH 400 0
DWIDTH 24 0
BBX 24 24 0 -2
BITMAP
1C0300
1C3306
1FFFFF
330C70
218830
479058
870060
0700EC
3FFFFC
060060
07FFE0
060060
07FFE0
0700E0
060066
FFFFFF
30C180
318180
3300FE
3C0000
300000
3FFFFC
1FFFFE
0FFFFC
ENDCHAR
STARTCHAR C264c
ENCODING 9804
SWIDTH 400 0
DWIDTH 24 0
BBX 24 24 0 -2
BITMAP
1C0300
1C2302
3FF7FF
330C60
618830
C08000
004FF8
7FE71C
060318
061F18
060719
0607D9
FFECDF
F8180F
667040
070060
060062
FFFFFF
060060
060060
0C0060
180060
300060
600040
ENDCHAR
STARTCHAR C264d
ENCODING 9805
SWIDTH 400 0
DWIDTH 24 0
BBX 24 24 0 -2
BITMAP
1C0300
1C2302
3FF7FF
330C60
618830
C08000
004FF8
7FEE1C
060E18
060E18
060C19
060C19
FFF81F
F8300F
60F006
001C00
001806
FFFFFF
001800
071860
0C1838
18180E
601806
801002
ENDCHAR
STARTCHAR C264e
ENCODING 9806
SWIDTH 400 0
DWIDTH 24 0
BBX 24 24 0 -2
BITMAP
1C0300
1C3306
1FFFFF
330C70
218830
419018
800E00
000E00
430C02
FF9FFF
E39B80
E3B300
E3E300
E38386
FF83FE
E38300
E38300
E38306
E383FE
E38300
FF8300
C10300
000300
000300
ENDCHAR
STARTCHAR C264f
ENCODING 9807
SWIDTH 400 0
DWIDTH 24 0
BBX 24 24 0 -2
BITMAP
1C0300
1C3306
1FFFFF
330C70
218830
419018
800800
638C00
7FCC06
618FFF
799807
6FB047
67AFE7
618CE7
618C67
678C67
7D8FE7
798C47
618007
618007
618006
6F81FE
C3803C
830018
ENDCHAR
STARTCHAR C2650
ENCODING 9808
SWIDTH 400 0
DWIDTH 24 0
BBX 24 24 0 -2
BITMAP
1C0300
1C3306
1FFFFF
330C70
218830
419018
8000C0
7FFFE0
060060
060064
06FEFE
06664E
0C3C0C
1C3C0C
38E7FC
718318
C00000
1FFFF0
1CC630
1CC630
1CC630
1CC632
FFFFFF
000000
ENDCHAR
STARTCHAR C2651
ENCODING 9809
SWIDTH 400 0
DWIDTH 24 0
BBX 24 24 0 -2
BITMAP
1C0300
1C2302
3FF7FF
330C60
618830
DC8000
1FFFFC
18001C
34060C
67FF0C
46060C
07FE0C
06060C
06060C
07FE1C
0003F8
000030
000022
FFFFFF
060000
0E0030
1C000C
300007
E00003
ENDCHAR
STARTCHAR C2652
ENCODING 9810
SWIDTH 400 0
DWIDTH 24 0
BBX 24 24 0 -2
BITMAP
1C0300
1C3306
1FFFFF
330C70
218830
419018
860004
06FFFE
0C1800
0C1800
183807
19FFFF
383000
38300C
583FFC
9861C0
1861C2
18FFFF
18C180
198300
1B0638
1E0C0E
181807
18E003
ENDCHAR
STARTCHAR C2653
ENCODING 9811
SWIDTH 400 0
DWIDTH 24 0
BBX 24 24 0 -2
BITMAP
0000C0
0FFFE0
000060
0FFFE0
0000EC
3FFFFC
01B070
0678C0
0CDF80
33BF00
0677C0
38C67E
030E1E
1CFC04
301800
300600
304602
3FE7FF
660C38
C61838
862038
060038
0601F0
060030
ENDCHAR
STARTCHAR C2654
ENCODING 9812
SWIDTH 400 0
DWIDTH 24 0
BBX 24 24 0 -2
BITMAP
1C01C0
1C01C0
9D81C2
DDFFFF
7F01C0
7F01C4
3E3FFE
1C31C6
FFB9D6
1C35DE
7C37F6
7E33E6
7F31C6
7F3FFE
5DB3E4
DD83E0
9C07F0
9C07D8
1C0DCC
1C19CF
1C31C7
1CC1C2
1C01C0
180180
ENDCHAR
STARTCHAR C2655
ENCODING 9813
SWIDTH 400 0
DWIDTH 24 0
BBX 24 24 0 -2
BITMAP
1C0000
1C0007
9DFFFF
DD8008
7F181C
7F1FFC
3E180C
1C180C
FF980C
1C1FFC
7C1808
7E0000
7F0006
7F3FFE
5DB1C6
DDB1C6
9C31C6
9C3FFE
1C31C6
1C31C6
1C31C6
1C3FFE
1C3006
183004
ENDCHAR
STARTCHAR C2656
ENCODING 9814
SWIDTH 400 0
DWIDTH 24 0
BBX 24 24 0 -2
BITMAP
1C1000
1C180C
9D9FFE
DD99CC
7F19CC
7F19CC
3E1FFC
1C19CC
FF99CC
1C19CC
7C19CC
7E1FFC
7F180C
7F0100
5D80C0
DD8660
9C0660
9C160C
1C3606
1C360E
1C661F
1C67F3
1C03F0
1801E0
ENDCHAR
STARTCHAR C2657
ENCODING 9815
SWIDTH 400 0
DWIDTH 24 0
BBX 24 24 0 -2
BITMAP
1C01C0
1C01C0
9DA1C4
DDBFFE
7F31C6
7F31C6
3E3FFE
1C31C6
FFBFFE
1C2004
7C0008
7E1FFC
7F180C
7F1B0C
5D99EC
DD980C
9C183C
9C1FCC
1C1F0C
1C1B0C
1C300C
1C21FC
1C4078
188030
ENDCHAR
STARTCHAR C2658
ENCODING 9816
SWIDTH 400 0
DWIDTH 24 0
BBX 24 24 0 -2
BITMAP
1C01C0
1C31C4
9DB9C7
DDB1C6
7F31C6
7F31C6
3E3FFE
1C3004
FF8002
1C3FFF
7C0180
7E0380
7F0306
7F3FFE
5DB366
DDB366
9C3366
9C3366
1C3366
1C3366
1C3366
1C3366
1C337E
18300C
ENDCHAR
STARTCHAR C2659
ENCODING 9817
SWIDTH 400 0
DWIDTH 24 0
BBX 24 24 0 -2
BITMAP
001C00
001C08
001FF8
001820
0FFFF0
0C1C30
0C3C30
0C7730
0CDD30
0C9C30
0C3330
0C61B0
0FFFF0
0C1020
081C20
0E1870
0319C0
001906
FFFFFF
021800
071870
1C181C
30180E
401004
ENDCHAR
STARTCHAR C265a
ENCODING 9818
SWIDTH 400 0
DWIDTH 24 0
BBX 24 24 0 -2
BITMAP
001840
041860
0318C0
019900
01380C
3FFFFC
039BC0
079870
1E183C
70180C
0718E0
3FFFF8
0618C0
3FFFF8
0618C0
3FFFF8
041040
061862
FFFFFF
0E38E0
0C1860
0C1860
181860
301040
ENDCHAR
STARTCHAR C265b
ENCODING 9819
SWIDTH 400 0
DWIDTH 24 0
BBX 24 24 0 -2
BITMAP
021C00
039C70
01D8C0
00D984
001C0E
3FFFFE
01D980
039860
071838
1F98DC
6398CC
3FFFFC
0398C0
0398C0
0398C2
FFFFFF
061860
0C1C30
18183F
37FFFF
C01806
001800
001C03
FFFFFF
ENDCHAR
STARTCHAR C265c
ENCODING 9820
SWIDTH 400 0
DWIDTH 24 0
BBX 24 24 0 -2
BITMAP
000060
1E3060
1C3840
181AC2
31FFFF
367080
6771B0
C67330
CC70F0
F87EF6
1076FF
3477F7
6676F7
6376F6
FF66F6
F166F6
4266F4
12C6F0
13C6F0
59C6C1
D886C1
C1FCFF
8318FF
06107E
ENDCHAR
STARTCHAR C265d
ENCODING 9821
SWIDTH 400 0
DWIDTH 24 0
BBX 24 24 0 -2
BITMAP
0001C0
1E01CC
1C39CE
181DCC
100DD8
3201C0
333FFE
660180
F60180
3C0180
180387
3E7FFF
330760
630E30
FF9DDC
F119CF
4031C7
037FFF
5981C0
4981C0
CC01C0
C801C0
8001C7
007FFF
ENDCHAR
STARTCHAR C265e
ENCODING 9822
SWIDTH 400 0
DWIDTH 24 0
BBX 24 24 0 -2
BITMAP
00000C
1E383E
1C30F0
183030
303030
363430
663730
C6B7FE
CCFC30
F8F878
10F078
34307C
6630FC
6330F4
FF70F6
F171B3
427933
126A30
136C30
59C630
D8C630
C18230
830030
060030
ENDCHAR
STARTCHAR C265f
ENCODING 9823
SWIDTH 400 0
DWIDTH 24 0
BBX 24 24 0 -2
BITMAP
00000C
1E3FFE
1C000E
18000C
10000C
321FFC
33180C
661800
F63004
3C3FFE
183006
3E2026
333FF6
633626
FFB7A6
F13DA6
403FA6
033326
59B626
49BC2E
CC3FEC
C801FC
800078
000030
ENDCHAR
STARTCHAR C2660
ENCODING 9824
SWIDTH 400 0
DWIDTH 24 0
BBX 24 24 0 -2
BITMAP
0001C0
1E01C0
1C0180
18018C
103FFC
320198
3301B0
6601E2
F67FFF
3C0180
180300
3E06E0
330C66
631FFF
FFBC07
F14C04
400800
030FFC
598060
498060
CC0060
C800E0
8007C0
000180
ENDCHAR
STARTCHAR C2661
ENCODING 9825
SWIDTH 400 0
DWIDTH 24 0
BBX 24 24 0 -2
BITMAP
000C18
1E0C18
1C7F7F
180C18
100818
320370
330370
660360
F63FFE
3C0366
180366
3E2366
333FFE
633360
FFB360
F13366
403FFF
030367
598667
498677
CC0C7E
C81864
803060
00C060
ENDCHAR
STARTCHAR C2662
ENCODING 9826
SWIDTH 400 0
DWIDTH 24 0
BBX 24 24 0 -2
BITMAP
000000
1E7007
1C7FFF
18701F
10731F
327B9F
337F77
667677
F67737
3C777F
18754F
3E7CCF
337887
637087
FFF1C7
F17DDF
407DDF
037DDF
59FFFF
49F417
CC7007
C8703F
80701E
00600C
ENDCHAR
STARTCHAR C2663
ENCODING 9827
SWIDTH 400 0
DWIDTH 24 0
BBX 24 24 0 -2
BITMAP
000000
1E3000
1C3666
18737F
3061E7
36C1E7
67C867
C69C67
CC1867
F81E67
103367
3431E7
6661E7
634067
FFC767
F1FF67
426367
12637F
136366
596360
D87F60
C06360
806060
004000
ENDCHAR
STARTCHAR C2664
ENCODING 9828
SWIDTH 400 0
DWIDTH 24 0
BBX 24 24 0 -2
BITMAP
000E00
1E0E00
1C0E1C
180FFC
100C18
321830
333022
663FFF
F63400
3C3700
183606
3E37FE
333460
633860
FFB060
F13FFF
4030E0
0330C0
59F0D8
49E18C
CC6386
C84707
808E03
003803
ENDCHAR
STARTCHAR C2665
ENCODING 9829
SWIDTH 400 0
DWIDTH 24 0
BBX 24 24 0 -2
BITMAP
000E00
1E0E00
1C0C02
180FFF
101880
3230E0
3370E6
66D8C6
F60CCC
3C06CC
1802D8
3E1FFE
331806
631B06
FF98F6
F11836
40181E
0318E6
599FC6
499B06
CC3006
C8307E
80603C
004008
ENDCHAR
STARTCHAR C2666
ENCODING 9830
SWIDTH 400 0
DWIDTH 24 0
BBX 24 24 0 -2
BITMAP
004000
1E7070
1C6070
187C60
30CC60
36CC64
679A7E
C6FF76
CC9B66
F89B66
109B66
349B66
66FF66
63BF66
FF1C46
F11C46
423CC6
123CBE
136D9D
596D09
D8CC03
C0C7FF
8181FF
030000
ENDCHAR
STARTCHAR C2667
ENCODING 9831
SWIDTH 400 0
DWIDTH 24 0
BBX 24 24 0 -2
BITMAP
000018
1E007C
1C3FFC
1801C0
100180
320182
337FFF
660360
F60630
3C0C1C
181C1F
3E3637
336322
630144
FF9FFC
F101C0
4001C2
037FFF
5981C0
4981C0
CC01C0
C801C0
8001C0
000180
ENDCHAR
STARTCHAR C2668
ENCODING 9832
SWIDTH 400 0
DWIDTH 24 0
BBX 24 24 0 -2
BITMAP
00180C
1E1B0C
1C198C
1830C8
3030D8
366012
674FFF
C68C00
CC1808
F8180C
10330C
343198
6671D8
6370D8
FFB030
F03030
423060
123040
133080
593380
D833E0
C0307F
80300F
003002
ENDCHAR
STARTCHAR C2669
ENCODING 9833
SWIDTH 400 0
DWIDTH 24 0
BBX 24 24 0 -2
BITMAP
000240
0E0360
0C0630
1C0618
180C0C
311C0E
339807
63380F
F77FFC
7E180C
0C180C
1A180C
13180C
219FFC
7F8308
F88180
6000C0
030EC0
5B8E44
59AE0E
CC6E1B
C86FF3
80C7F3
0003E1
ENDCHAR
STARTCHAR C266a
ENCODING 9834
SWIDTH 400 0
DWIDTH 24 0
BBX 24 24 0 -2
BITMAP
000CCC
1E1CCC
1C1998
183110
106233
327FFF
331198
6619CC
F60CCC
3C0CCC
180000
3E100C
331FFE
6319CE
FF99CC
F119CC
4019CC
031FFC
5999CC
4999CC
CC19CC
C819CC
801FFC
00100C
ENDCHAR
STARTCHAR C266b
ENCODING 9835
SWIDTH 400 0
DWIDTH 24 0
BBX 24 24 0 -2
BITMAP
01C300
27E300
3E07FC
30670C
3FED18
3068F0
3060F8
3061DF
3FE337
604C12
603040
C02030
80F110
038380
0E0F00
0FB840
01E060
0787F8
3FFE18
1A1800
0718E0
0E1838
18F80C
601004
ENDCHAR
STARTCHAR C266c
ENCODING 9836
SWIDTH 400 0
DWIDTH 24 0
BBX 24 24 0 -2
BITMAP
01E060
0FE060
3F046E
03366C
7FFB78
0780E0
0FC0F0
1B61D8
33339F
C3470F
02F806
01C300
030780
0E0E00
073880
01E060
038038
3FFFF8
3F1818
1A1860
071838
1C181C
30F80C
E01004
ENDCHAR
STARTCHAR C266d
ENCODING 9837
SWIDTH 400 0
DWIDTH 24 0
BBX 24 24 0 -2
BITMAP
006000
00E060
01FFF0
0380F0
0C61C0
103700
007C00
01E080
3F01C0
03019C
060338
0C8670
19C7E0
3F0188
060604
188FFE
3BDEE3
FE6860
460668
26C664
266C66
666863
5E13E2
8C00C0
ENDCHAR
STARTCHAR C266e
ENCODING 9838
SWIDTH 400 0
DWIDTH 24 0
BBX 24 24 0 -2
BITMAP
0007E0
00FFF0
1FFC00
00180C
7FFFFE
061840
075860
3FFBFC
061860
061840
3FFFFC
001800
001806
7FFFFE
0E0010
0FFFF8
183800
301802
FFFFFF
103810
181838
181838
3FFFF8
100030
ENDCHAR
STARTCHAR C266f
ENCODING 9839
SWIDTH 400 0
DWIDTH 24 0
BBX 24 24 0 -2
BITMAP
600000
603007
603FFF
603007
FF3007
D83FFF
983000
98320E
18310C
193198
FFB7FE
183198
183198
593198
DB3198
DB3FFF
DB3198
DB7198
DB7318
DB6318
FF6318
41C618
008C18
001818
ENDCHAR
STARTCHAR C2670
ENCODING 9840
SWIDTH 400 0
DWIDTH 24 0
BBX 24 24 0 -2
BITMAP
600808
600C1C
600FFC
610C0C
7F8C0C
DC0FFC
9C0C0C
9C0C0C
1C0C0C
1D8FFC
FFC000
1C0002
1C3FFF
5D80C0
DD88C0
DD8EC4
DD8CFE
DD9CC0
DD9CC0
DD9EC0
DDB3C0
FFA1FF
01C0FF
00807C
ENDCHAR
STARTCHAR C2671
ENCODING 9841
SWIDTH 400 0
DWIDTH 24 0
BBX 24 24 0 -2
BITMAP
300018
3FFFFC
30408C
3664CC
33C38C
31C38C
3264CC
30003C
003008
001800
3FFFFC
0201C0
018180
018102
FFFFFF
000000
0C0060
0FFFF0
0C0060
0FFFE0
0C0060
0FFFE0
0C0060
000000
ENDCHAR
STARTCHAR C2672
ENCODING 9842
SWIDTH 400 0
DWIDTH 24 0
BBX 24 24 0 -2
BITMAP
300018
3FFFFC
30408C
3664CC
33C38C
31C38C
3264CC
30003C
180008
0C1FFE
0CC706
7FC306
000306
3F0306
000306
3F0306
000606
010606
3F8E06
338C0E
338C0C
3399FC
3F3078
206030
ENDCHAR
STARTCHAR C2673
ENCODING 9843
SWIDTH 400 0
DWIDTH 24 0
BBX 24 24 0 -2
BITMAP
300018
3FFFFC
30408C
3664CC
33C38C
31C38C
3264CC
30003C
00C008
3FE7FC
30C61C
30C60C
3FC7FC
300600
3FE7FE
3FF3FF
000000
000002
FFFFFF
018300
03C0E0
070078
1C001E
70000E
ENDCHAR
STARTCHAR C2674
ENCODING 9844
SWIDTH 400 0
DWIDTH 24 0
BBX 24 24 0 -2
BITMAP
300018
3FFFFC
30408C
3664CC
33C38C
31C38C
3264CC
30003C
000008
1FFFF0
1C3830
1C1830
1FFFF0
1C3830
1C1830
1FFFF0
081020
021800
038E00
23044C
630046
E3FFC7
C3FFC2
80FF80
ENDCHAR
STARTCHAR C2675
ENCODING 9845
SWIDTH 400 0
DWIDTH 24 0
BBX 24 24 0 -2
BITMAP
000006
7FFFFE
602066
636266
61C1C6
61C1C6
636366
662626
630886
630CE6
66C8C6
6CC8C6
6F88C6
6308C6
6649E6
6FE9E6
6F29A6
6309B6
67C91E
674B16
6F6A06
7B2FF6
61001E
60000C
ENDCHAR
STARTCHAR C2676
ENCODING 9846
SWIDTH 400 0
DWIDTH 24 0
BBX 24 24 0 -2
BITMAP
200018
3FFFFC
30C30C
30C30C
31C71C
3FFFF8
2C0010
0C07F8
1FF638
386638
66C638
C38C1E
030C0E
061800
1E0FFC
37021C
867218
0FF338
1C61B0
3EC0E0
6381F0
07031F
1C0E0F
707806
ENDCHAR
STARTCHAR C2677
ENCODING 9847
SWIDTH 400 0
DWIDTH 24 0
BBX 24 24 0 -2
BITMAP
200018
3FFFFC
30180C
30380C
307F0C
31C3CC
3700C8
201818
3FFC1C
301C18
301818
3FF81A
301BFF
300018
37F018
300018
300198
6FFCD8
60C058
4ED018
CCD818
98CCF8
30CC78
208030
ENDCHAR
STARTCHAR C2678
ENCODING 9848
SWIDTH 400 0
DWIDTH 24 0
BBX 24 24 0 -2
BITMAP
200018
3FFFFC
30180C
30380C
307F0C
31C38C
370088
100038
1FFFF8
181838
1FFFF8
181838
1FFFF8
0C38C0
061862
FFDBFF
061860
7FFFFE
001800
001800
3FFFFC
001800
001800
001000
ENDCHAR
STARTCHAR C2679
ENCODING 9849
SWIDTH 400 0
DWIDTH 24 0
BBX 24 24 0 -2
BITMAP
003000
001802
FFFFFF
000000
03FFC0
0300C0
03FFC0
000000
0FFFF8
1C0018
1C0018
0FFFF8
01C380
018387
FF83FF
018300
010008
3FFFF8
001800
003807
FFFFFF
001800
001800
001000
ENDCHAR
STARTCHAR C267a
ENCODING 9850
SWIDTH 400 0
DWIDTH 24 0
BBX 24 24 0 -2
BITMAP
000300
438180
6310C6
323FFF
343006
FFE000
1C0004
1C3FFE
1C01C0
7F01C0
1C01C0
1C01C2
1C7FFF
1C0000
FF8000
1C100C
1C1FFE
1C180E
18180C
10180C
30180C
301FFC
60180C
C01000
ENDCHAR
STARTCHAR C267b
ENCODING 9851
SWIDTH 400 0
DWIDTH 24 0
BBX 24 24 0 -2
BITMAP
000008
43801C
631FFC
320238
340360
FF81C2
1C7FFF
1C01E7
1C0366
7F0664
1C0C60
1C3BE0
1C60C0
1C0080
FF81C2
1C7FFF
1C01C0
1C19C0
181DC8
1019C4
3031C6
3061C3
60C1C1
C08180
ENDCHAR
STARTCHAR C267c
ENCODING 9852
SWIDTH 400 0
DWIDTH 24 0
BBX 24 24 0 -2
BITMAP
007060
43F060
637060
327262
347F7F
FFF060
1C7061
1C7061
1C7663
7F7C7F
1C303F
1C0380
1C0304
1C160E
FF9FFF
1C1806
1C1806
1C1FFE
181806
101806
301806
301FFE
601806
C01004
ENDCHAR
STARTCHAR C267d
ENCODING 9853
SWIDTH 400 0
DWIDTH 24 0
BBX 24 24 0 -2
BITMAP
004300
1CE300
FFF300
1C6706
1C67FF
1C6C07
5F6987
7D7087
3DEFF7
1C6007
1C6027
1C63E7
1C6027
1CE7F7
7DE007
DF67F7
DE6677
1C6667
1C67E7
1C6667
1C6006
7FE07E
18E03C
18C008
ENDCHAR
STARTCHAR C267e
ENCODING 9854
SWIDTH 400 0
DWIDTH 24 0
BBX 24 24 0 -2
BITMAP
0041C0
1CE1C0
FFF19C
1C61FC
1C630C
1C6218
5F6432
7D6FFF
3DEE80
1C6FC0
1C6FC6
1C6FFE
1C6FB8
1CEF38
7DEE38
DF6FFF
DE6E38
1C6E30
1C6C38
1C6C64
1C7866
7FF8C3
18F183
18C601
ENDCHAR
STARTCHAR C2721
ENCODING 10017
SWIDTH 400 0
DWIDTH 24 0
BBX 24 24 0 -2
BITMAP
00C000
20C1C7
1187FF
1900C7
1B18C7
FFF8C7
0006D7
5C3BDF
7C33CF
6DB0C7
6DB0C7
6DB0C7
7DB0C7
6DB1C7
6DB3DF
6DBEF7
7DB4F7
6DB0C7
6DB0C7
6C30C7
4C30C7
FCF3DF
9871C6
186186
ENDCHAR
STARTCHAR C2722
ENCODING 10018
SWIDTH 400 0
DWIDTH 24 0
BBX 24 24 0 -2
BITMAP
004000
C171C7
FB6FFF
EE61C7
EF61C7
F9E1C7
F16DF7
FFE7DF
1BC7DF
1B83CF
31F1C7
71F1C7
D801C7
18C3CF
BFE7DF
70FDF7
6189E7
7981C7
CF01C7
8F01C7
0F81C7
19CFFF
30C38E
C0430C
ENDCHAR
STARTCHAR C2723
ENCODING 10019
SWIDTH 400 0
DWIDTH 24 0
BBX 24 24 0 -2
BITMAP
000000
0061C7
3FE7FF
0600C7
0600C7
0600C7
FFF6D7
0703DF
0603CF
0600C7
1E60C7
76F0C7
6670C7
6671C7
6673DF
667EF7
7EF4F7
6670C7
6670C7
6670C7
6670C7
7FF3DF
6061C6
600186
ENDCHAR
STARTCHAR C2724
ENCODING 10020
SWIDTH 400 0
DWIDTH 24 0
BBX 24 24 0 -2
BITMAP
1C0000
1C71C7
1BF3FF
1870C7
3070C7
3070C7
37FED7
3383DF
7383CF
7300C7
F310C7
F3F0C7
B6C0C7
34C1C7
30C7DF
37F6F7
31C0F7
30C0C7
31C0C7
31A0C7
3330C7
331BDF
3619C6
2C0986
ENDCHAR
STARTCHAR C2725
ENCODING 10021
SWIDTH 400 0
DWIDTH 24 0
BBX 24 24 0 -2
BITMAP
00600C
7FE7FE
10630E
0C618C
04608C
0760EC
7C6F8C
706E0C
6FE6FC
00E01C
003808
00309C
0FFFB8
003060
0033C6
7FFFFE
001C18
00F00C
07FFFC
1F0038
E3FFF8
030038
030038
03FFF0
ENDCHAR
STARTCHAR C2726
ENCODING 10022
SWIDTH 400 0
DWIDTH 24 0
BBX 24 24 0 -2
BITMAP
007000
007118
1FFFB8
0070E0
0073C7
7FFFFF
00F000
03FFFC
3F8000
E1FFFE
000000
1FFFFC
18000C
1FFFFC
18000C
1FFFFC
180000
1FFFFC
19FF0C
1B818C
33FF8C
3101FC
60003C
C00018
ENDCHAR
STARTCHAR C2727
ENCODING 10023
SWIDTH 400 0
DWIDTH 24 0
BBX 24 24 0 -2
BITMAP
003000
7FF80E
06000C
0C3018
7FF830
65B060
65B0C0
65B300
65B00E
65B00C
65F018
646030
000060
FFF8C0
060180
0C3307
7FF807
65B00C
65B018
65B030
65B060
65B0C0
65F180
646600
ENDCHAR
STARTCHAR C2728
ENCODING 10024
SWIDTH 400 0
DWIDTH 24 0
BBX 24 24 0 -2
BITMAP
00E060
63F664
7E0667
600666
600666
603666
7FFFFE
600604
602002
6FF7FF
6C70C0
6C70C0
6C7186
6C77FE
6C76F6
6FF6F6
6C26F6
6C06F6
EC06F6
CC16F6
CC16F6
8FF6F6
87F69E
03E60C
ENDCHAR
STARTCHAR C2729
ENCODING 10025
SWIDTH 400 0
DWIDTH 24 0
BBX 24 24 0 -2
BITMAP
00E060
63F664
7E0667
600666
600666
682666
6FF7FE
6DF604
6DF002
6DF7FF
6DF0C0
6DF0C0
6DF186
6DF7FE
6FE6F6
6C06F6
6C06F6
6C06F6
EC06F6
CC16F6
CC16F6
8FF6F6
87F69E
03E60C
ENDCHAR
STARTCHAR C272a
ENCODING 10026
SWIDTH 400 0
DWIDTH 24 0
BBX 24 24 0 -2
BITMAP
0C007C
0C03FE
0F9FC0
7FC1C0
0C01C6
0C3FFE
0C81C0
7FD1CC
0C1FFE
0C19CC
0CD9CC
FFDFFC
0C19CC
1E19CC
1D19CC
3D9FFC
3CC1C0
6CC1C0
4C1FFC
8C01C0
0C01C0
0C01C0
0C01C6
0C3FFE
ENDCHAR
STARTCHAR C272b
ENCODING 10027
SWIDTH 400 0
DWIDTH 24 0
BBX 24 24 0 -2
BITMAP
000180
00C0C0
FFD0C2
339FFF
33B007
33F406
33A730
3F8618
338C8C
3399C4
33B1C0
338330
3F861C
338C1F
339FFF
33A23A
33C330
3781F0
FF80E0
F380E0
6381B8
03831F
038C0E
033000
ENDCHAR
STARTCHAR C272c
ENCODING 10028
SWIDTH 400 0
DWIDTH 24 0
BBX 24 24 0 -2
BITMAP
000840
00CC20
FFDC10
331818
33300E
337FFF
334243
3F8240
330248
333FFC
3336DC
33324C
3F324C
33325C
33367C
333C7C
33380C
37300C
FB37EC
F3300C
63300C
033FFC
03301C
033008
ENDCHAR
STARTCHAR C272d
ENCODING 10029
SWIDTH 400 0
DWIDTH 24 0
BBX 24 24 0 -2
BITMAP
001800
019800
FF984E
361FFF
361BE6
3633E6
363366
3E3B66
366E66
364E66
36067E
360E6C
3E0C60
361861
361063
36207F
36403F
3E0000
FE0000
F61644
663366
067367
066323
064000
ENDCHAR
STARTCHAR C272e
ENCODING 10030
SWIDTH 400 0
DWIDTH 24 0
BBX 24 24 0 -2
BITMAP
003000
001806
7FFFFF
E0C307
C18304
8303FE
0E00FE
302000
7FF03C
30C1FE
30CFC0
30C1C0
3FC1C4
30DFFE
30C1C0
3FC1C0
39C1C6
30DFFE
33C1C0
FFC1C1
F0C1C3
40C1FE
00C0FE
00807C
ENDCHAR
STARTCHAR C272f
ENCODING 10031
SWIDTH 400 0
DWIDTH 24 0
BBX 24 24 0 -2
BITMAP
060008
0607FC
07F218
060238
670330
7FF130
6DF0E0
7FF0E0
6DF1FC
6DF31F
69F60E
607800
000018
3FFFFC
0600C0
07FFC0
0700C0
0600C0
07FFC0
0600C6
FFFFFF
0000C0
0000C0
0000C0
ENDCHAR
STARTCHAR C2730
ENCODING 10032
SWIDTH 400 0
DWIDTH 24 0
BBX 24 24 0 -2
BITMAP
004000
60E007
7FFFFF
60630C
60630C
7FE30C
6603FC
66239C
7FF30C
67030C
63130C
6D930C
78F3FC
60730C
20330C
3FE30C
30630C
307FFF
3FE00C
30600C
30600C
30600C
3FE00C
206008
ENDCHAR
STARTCHAR C2731
ENCODING 10033
SWIDTH 400 0
DWIDTH 24 0
BBX 24 24 0 -2
BITMAP
001800
001830
3FFFF8
001838
FFFFFF
001838
3FFFF0
003800
1FFFF2
FFFFFF
003800
001808
0FFF9C
0038F0
001BC6
7FFFFE
00781C
03FFFC
1F003C
730038
83FFF8
030038
03FFF8
030030
ENDCHAR
STARTCHAR C2732
ENCODING 10034
SWIDTH 400 0
DWIDTH 24 0
BBX 24 24 0 -2
BITMAP
060E38
060E38
060C30
064C32
4EEFFF
FFFC30
E66C31
EF6C31
E9EDB3
F0EF3F
E46E1F
E660E0
E660C4
E6678E
EF67FF
F9E606
F1E606
E0E606
E067FE
E06606
E06606
E3E606
E1C7FE
C08606
ENDCHAR
STARTCHAR C2733
ENCODING 10035
SWIDTH 400 0
DWIDTH 24 0
BBX 24 24 0 -2
BITMAP
00C00C
7FE7FE
00E00E
7FCFFC
00C00C
00C00C
7FC7FC
000002
FFFFFF
000040
1E0070
1C0062
1CCFFF
7FECE7
1CECF7
1CCD9F
18CF47
18CC67
18CCF7
30CCDF
30CD9F
30CF07
6FCC1E
C18C06
ENDCHAR
STARTCHAR C2734
ENCODING 10036
SWIDTH 400 0
DWIDTH 24 0
BBX 24 24 0 -2
BITMAP
000180
6600C0
7F60C2
667FFF
667060
66706C
6677FE
7E706C
6E7FFF
66706C
6670EC
6673FC
6E7064
7E7FFE
767E66
667E66
666FFE
666E66
666E66
664FFE
E6CE66
DECE66
8E8E7E
8C0C4C
ENDCHAR
STARTCHAR C2735
ENCODING 10037
SWIDTH 400 0
DWIDTH 24 0
BBX 24 24 0 -2
BITMAP
000018
660818
7F0430
660622
667FFF
6601C0
6601C0
7E01CC
6E1FFC
6601C0
6601C2
667FFF
6E0C00
7E0C00
761FFC
6619CC
6619CC
6631CC
663FFF
66618C
E6C18C
DF818C
8E3FFF
8C0000
ENDCHAR
STARTCHAR C2736
ENCODING 10038
SWIDTH 400 0
DWIDTH 24 0
BBX 24 24 0 -2
BITMAP
046638
6E4638
7E4630
67FFB0
664630
664632
667EFF
7E1837
7E1837
66FF37
66BB37
669B37
7E9B37
7EBB27
66FF67
661867
661867
67FF67
661867
6618C6
E618CE
DE19BC
9E191C
8C1208
ENDCHAR
STARTCHAR C2737
ENCODING 10039
SWIDTH 400 0
DWIDTH 24 0
BBX 24 24 0 -2
BITMAP
02000C
673FFE
7F8380
630E86
6319CE
6373EC
730778
7F1CF8
6F73FC
63076F
631C66
6370E0
630FC0
6F018C
7B1FFE
73180E
63180C
63180C
631FFC
63180C
E3180C
DF180C
8E1FFC
84100C
ENDCHAR
STARTCHAR C2738
ENCODING 10040
SWIDTH 400 0
DWIDTH 24 0
BBX 24 24 0 -2
BITMAP
0201C0
6701C0
7F8180
630302
63FFFF
630620
730D10
7F19D8
6F3D8F
636D87
63F9BE
63318C
63318C
6F319C
7B39BC
73318C
63318C
633DBC
633188
630181
E30181
DF01FF
8E01FF
84007E
ENDCHAR
STARTCHAR C2739
ENCODING 10041
SWIDTH 400 0
DWIDTH 24 0
BBX 24 24 0 -2
BITMAP
0200C0
6700C4
7F80FE
6300C0
6330C7
633FFF
733186
7F3184
6F3FFC
633180
6331C0
6330FC
633200
6F33FC
7B330C
73330C
6333FC
63330C
63730C
6363FC
E3630C
DF430C
8F9FFF
840000
ENDCHAR
STARTCHAR C273a
ENCODING 10042
SWIDTH 400 0
DWIDTH 24 0
BBX 24 24 0 -2
BITMAP
0218C6
6718C6
7FB18C
633318
6319CC
6318C6
730842
7F100C
6F1FFE
6319CC
6319CC
631FFC
6319CC
6F19CC
7B1FFC
7301C0
637FFF
6303E0
6307F0
630FF8
E31DDF
DF39CF
8E61C2
848180
ENDCHAR
STARTCHAR C273b
ENCODING 10043
SWIDTH 400 0
DWIDTH 24 0
BBX 24 24 0 -2
BITMAP
000FF8
00FFF8
1FF880
0398E0
0398E0
06D9B0
0C5918
139E48
031860
0798F0
0CD998
185B1A
FFFFFF
000000
040060
07FFF0
067060
061C60
060760
06FC60
0CF060
0847E0
1001E0
2000C0
ENDCHAR
STARTCHAR C273c
ENCODING 10044
SWIDTH 400 0
DWIDTH 24 0
BBX 24 24 0 -2
BITMAP
064380
266380
1EC300
0EA3FE
7FF61C
66770C
7F7998
7FF0F8
7EF0F0
7670F8
66631E
66E60E
44D862
07FFF0
066070
061C60
060C60
0603E0
06FE60
0DF060
0CC060
1807E0
1001E0
2000C0
ENDCHAR
STARTCHAR C273d
ENCODING 10045
SWIDTH 400 0
DWIDTH 24 0
BBX 24 24 0 -2
BITMAP
006000
00C020
0FFFF0
0C0030
0FFFF0
0C0030
0FFFF0
0C0030
0FFFF0
001800
200C07
7FFFFF
E1C306
43C188
0700C0
0E0070
1FFFFC
3E00DF
767CCE
C6EEC0
06CEC0
06CEC0
06C4C0
0400C0
ENDCHAR
STARTCHAR C273e
ENCODING 10046
SWIDTH 400 0
DWIDTH 24 0
BBX 24 24 0 -2
BITMAP
001800
0039F0
1FFFF0
001800
003808
1FFFF8
001806
7FFFFE
00C440
3FE6E0
00C3CC
1981B8
0F00F0
07003F
1FFFCF
F1C0C4
038070
0FFFF8
061810
003860
07FFE0
001800
003807
FFFFFF
ENDCHAR
STARTCHAR C273f
ENCODING 10047
SWIDTH 400 0
DWIDTH 24 0
BBX 24 24 0 -2
BITMAP
300018
3FFFFC
30000C
30000C
38001C
3FC3F8
0CC304
7CC37E
70C306
7EC37E
60C306
60C306
7EC37E
00C300
0202E0
0101C0
008380
006700
003C00
007E00
00E780
0381FE
1E007E
F0001C
ENDCHAR
STARTCHAR C2740
ENCODING 10048
SWIDTH 400 0
DWIDTH 24 0
BBX 24 24 0 -2
BITMAP
001C00
009C00
07D80C
3E19FE
30180C
30980C
3FD9FC
30180C
30180C
3FD9FC
30180C
201800
019800
07D80C
3E19FE
30180C
30980C
3FD9FC
30180C
30180C
3FD9FC
30180C
001800
001800
ENDCHAR
STARTCHAR C2741
ENCODING 10049
SWIDTH 400 0
DWIDTH 24 0
BBX 24 24 0 -2
BITMAP
018000
07C00C
3E03FE
30000C
30C00C
3FC1FC
30000C
3FC3FC
201C0C
001C00
03D800
2F980C
381BFE
30180C
30D80C
3FDBFC
30180C
30180C
3FDBFC
20180D
001801
001FFF
000FFF
0003FE
ENDCHAR
STARTCHAR C2742
ENCODING 10050
SWIDTH 400 0
DWIDTH 24 0
BBX 24 24 0 -2
BITMAP
018000
03C038
3E03FC
300018
38C018
3FC3F8
300018
38C018
3FC3F8
31C210
038100
0700E0
0E0078
18C03F
71E00F
DF03FA
180038
184038
1FE3F8
180038
180038
180038
1FFFF8
180030
ENDCHAR
STARTCHAR C2743
ENCODING 10051
SWIDTH 400 0
DWIDTH 24 0
BBX 24 24 0 -2
BITMAP
1000E0
1818E4
381CC7
3198C6
E7D8C6
E198C6
E19FFE
E19804
E18002
E19FFF
E181C0
E18180
F78106
E19FFE
E19926
E19926
E19926
E19926
E19926
E19926
FF9926
C11926
00193E
00180C
ENDCHAR
STARTCHAR C2744
ENCODING 10052
SWIDTH 400 0
DWIDTH 24 0
BBX 24 24 0 -2
BITMAP
100000
18000C
380FFC
3180C0
E7C0C0
E180C2
E19FFF
E180C0
E180C0
E182C0
E187C4
E19CDE
F798C6
E198C6
E198C6
E19AC6
E19FDE
E198C6
E198C6
E198C6
FF98C6
C11FFE
001C06
001804
ENDCHAR
STARTCHAR C2745
ENCODING 10053
SWIDTH 400 0
DWIDTH 24 0
BBX 24 24 0 -2
BITMAP
100004
18180E
381FFF
3018C6
E398C6
E3D8C6
E19FFE
E198C6
E198C6
F398C6
E19FFE
E19884
E181C0
E181C6
F7BFFF
E18187
E18187
E18307
E18307
FF8607
E18C06
4018FE
00303C
00C018
ENDCHAR
STARTCHAR C2746
ENCODING 10054
SWIDTH 400 0
DWIDTH 24 0
BBX 24 24 0 -2
BITMAP
008000
03C007
0FCFFF
7840C7
0C60C7
46E0C7
26C1C7
318187
000186
00033E
0C021C
58E408
71E804
60660E
6067FF
606606
79E606
606606
606606
606606
606606
7FE7FE
604606
000604
ENDCHAR
STARTCHAR C2747
ENCODING 10055
SWIDTH 400 0
DWIDTH 24 0
BBX 24 24 0 -2
BITMAP
000808
018C1C
7F8FFC
0C0C0C
0C0C0C
0C0FFC
0C0C0C
0CCC0C
FFCC0C
0C0FFC
0C0000
0C0002
0C3FFF
6D80C0
7FC8C0
618EC4
618CFE
619CC0
619CC0
619EC0
61B3C0
7FA1FF
61C0FF
60803C
ENDCHAR
STARTCHAR C2748
ENCODING 10056
SWIDTH 400 0
DWIDTH 24 0
BBX 24 24 0 -2
BITMAP
000600
018608
7F87FC
0C0E0C
0C0C0C
0C1FF8
0C0818
0CC03F
FFDFFF
0C0180
0C0384
0C078E
0C0CDC
6D99F0
7FC3F0
618730
618E78
61B8FC
6181B7
618637
619C73
7FB3E0
6181C0
600180
ENDCHAR
STARTCHAR C2749
ENCODING 10057
SWIDTH 400 0
DWIDTH 24 0
BBX 24 24 0 -2
BITMAP
006000
3FF00C
3073FC
307060
387060
3FF060
3073FE
307070
3FF060
302060
001860
FFFF6C
0303FE
03030C
3B030C
331B0C
33FF0C
33030C
7B03FC
6F0300
6F0000
C7FFFF
81FFFF
007FFC
ENDCHAR
STARTCHAR C274a
ENCODING 10058
SWIDTH 400 0
DWIDTH 24 0
BBX 24 24 0 -2
BITMAP
1C0070
1C1870
1A1864
7F09FE
630076
630066
7BC266
6B67FF
6F3666
630C66
678C76
FF0DFE
E30860
631860
7B1BFE
6F3060
6B7060
637062
6373FF
633060
E33860
DF3860
9E3860
841060
ENDCHAR
STARTCHAR C274b
ENCODING 10059
SWIDTH 400 0
DWIDTH 24 0
BBX 24 24 0 -2
BITMAP
1C01C0
1C01CC
1A398E
7F198C
630998
633FFE
7B0300
6B0300
6F0302
637FFF
678EB0
FF1DDC
E339CF
6371C7
7BDFFC
6F19DC
6B19D8
6319D8
6319D8
6319F8
E319F8
DF19D0
9E01C0
840180
ENDCHAR
STARTCHAR C274c
ENCODING 10060
SWIDTH 400 0
DWIDTH 24 0
BBX 24 24 0 -2
BITMAP
1C01C0
1C01CC
1A398E
7F198C
630998
633FFE
7B0300
6B0300
6F0302
637FFF
678E30
FF1E1C
E33B0F
637327
7BC336
6F3FFE
6B0630
630660
630E60
630FC0
E30CF0
DF039C
9E0E0C
847804
ENDCHAR
STARTCHAR C274d
ENCODING 10061
SWIDTH 400 0
DWIDTH 24 0
BBX 24 24 0 -2
BITMAP
0C00C0
0C00C0
1900CE
7F9FFF
6380C6
63BFFF
6B80C6
6F80C6
678FFE
6380C0
67DFFE
FF80C0
E3BFFF
6386C0
6B8CC0
6F99C0
67B3C0
63E6C0
638DC0
639BC0
E3E6C0
DF8CC0
8F18C0
8670C0
ENDCHAR
STARTCHAR C274e
ENCODING 10062
SWIDTH 400 0
DWIDTH 24 0
BBX 24 24 0 -2
BITMAP
181800
181800
361B26
7F7FBF
673BB7
661B37
761B37
7E1337
7E3337
66373F
6F6736
FE6220
E6C1C0
6601C0
7601C2
7EFFFF
6E01C0
660DD8
661DCC
6619C6
E631C7
DE61C3
9E81C0
8C0180
ENDCHAR
STARTCHAR C274f
ENCODING 10063
SWIDTH 400 0
DWIDTH 24 0
BBX 24 24 0 -2
BITMAP
0C1000
0C180C
191FFE
7F980C
63980C
639FFC
6B980C
6F980C
67980C
639FFC
67CC00
FF9C02
E39FFF
6399E7
6BB9C7
6FF9C7
67DB27
639A37
639C1F
639C07
E39FF7
DF807E
8F003C
860008
ENDCHAR
STARTCHAR C2750
ENCODING 10064
SWIDTH 400 0
DWIDTH 24 0
BBX 24 24 0 -2
BITMAP
0001C0
0071C0
FFF1CC
0C01FC
080318
582230
FFF426
DB77FE
DB7666
DB7666
DB7666
DF7666
DB7666
DB77FE
DB7606
DB7600
DF7600
DB7600
DB7601
DB7601
DB7603
FFF7FF
C063FF
C001FE
ENDCHAR
STARTCHAR C2751
ENCODING 10065
SWIDTH 400 0
DWIDTH 24 0
BBX 24 24 0 -2
BITMAP
1C0000
1C000C
198FFC
3FC0C0
3380C8
6307FC
C6660C
FFE60C
E667FC
E6660C
E6660C
E667FC
E6660C
FFE60C
E067FC
E00320
E00738
E00E1C
E0180C
E03001
E00001
FFFFFF
7FFFFF
3FFFFE
ENDCHAR
STARTCHAR C2752
ENCODING 10066
SWIDTH 400 0
DWIDTH 24 0
BBX 24 24 0 -2
BITMAP
01E1C0
1FE1C0
F0C198
08E3FC
6CC338
658630
210C66
006FFE
FFEE66
180E66
182E66
FFFE66
180E66
184FFE
3FEE06
38EE00
38CE00
24CE00
678E01
438E01
C7CE03
8CFFFF
1877FF
6003FE
ENDCHAR
STARTCHAR C2753
ENCODING 10067
SWIDTH 400 0
DWIDTH 24 0
BBX 24 24 0 -2
BITMAP
001840
071860
061860
07FFE0
001800
071060
36666C
36666C
36666C
3FE7FC
0C0060
380040
6FFFF8
00C030
018070
070FE0
1C01C0
302002
7FF7FF
0C70C7
187187
33E33F
61C61E
C08C0C
ENDCHAR
STARTCHAR C2754
ENCODING 10068
SWIDTH 400 0
DWIDTH 24 0
BBX 24 24 0 -2
BITMAP
0600C0
0640C2
FFE7FF
0600C0
0630C0
001802
7FFFFF
600007
E00006
401804
7FFC08
186FFC
18621C
1FE218
186338
186130
1FE1B0
1860E0
1860E0
1FE0E0
FC61B8
40631F
00660F
007806
ENDCHAR
STARTCHAR C2755
ENCODING 10069
SWIDTH 400 0
DWIDTH 24 0
BBX 24 24 0 -2
BITMAP
0600C0
0640C2
FFE7FF
0600C0
360380
1C0380
089B18
719B0C
333307
06631A
0C4338
188370
7901E0
300F00
187E00
1FE040
038060
038062
FFE7FF
030060
070060
0E0060
180060
700040
ENDCHAR
STARTCHAR C2756
ENCODING 10070
SWIDTH 400 0
DWIDTH 24 0
BBX 24 24 0 -2
BITMAP
0600C0
0640C2
FFE7FF
0600C0
0638C0
00180C
7FFFFE
0380E0
01C1C2
FFFFFF
003800
001804
7FFFFE
001800
001000
001800
001806
FFFFFF
021800
0718C0
0E1870
18181C
60180E
801004
ENDCHAR
STARTCHAR C2757
ENCODING 10071
SWIDTH 400 0
DWIDTH 24 0
BBX 24 24 0 -2
BITMAP
0600C0
0640C2
FFE7FF
0600C0
0630C0
003804
7FFFFE
000000
07FFE0
060060
07FFE0
200006
7FFFFF
E001C6
CFFFCC
003000
003FF0
3FF000
003FFC
FFF001
003001
003FFF
001FFF
000FFE
ENDCHAR
STARTCHAR C2758
ENCODING 10072
SWIDTH 400 0
DWIDTH 24 0
BBX 24 24 0 -2
BITMAP
0600C0
0640C2
FFE7FF
0600C0
060CC0
080E02
1FFFFF
1C1000
1C1C40
DC1870
7C1860
7DD860
1D9860
1D9F7E
3D9860
FD9860
D99860
199860
319861
319861
219F63
63FC7F
47C03F
030000
ENDCHAR
STARTCHAR C2759
ENCODING 10073
SWIDTH 400 0
DWIDTH 24 0
BBX 24 24 0 -2
BITMAP
0600C0
0640C2
FFE7FF
0600C0
0600C0
0071C0
13B980
138318
339E0E
33F827
23F062
1FFFE0
F8FFE0
001C00
081C30
0FFFF8
0C1838
0C1838
0FFFF0
0C1810
00181C
3FFFFF
7FE007
180000
ENDCHAR
STARTCHAR C275a
ENCODING 10074
SWIDTH 400 0
DWIDTH 24 0
BBX 24 24 0 -2
BITMAP
0600C0
0640C2
FFE7FF
0600C0
0600C0
00C202
FFE3FF
00C300
00C30C
3FC3FE
30C30C
3FC3FC
01C300
038300
060300
380340
038060
038062
FFE7FF
030060
070060
0E0060
180060
700040
ENDCHAR
STARTCHAR C275b
ENCODING 10075
SWIDTH 400 0
DWIDTH 24 0
BBX 24 24 0 -2
BITMAP
0600C0
0640C2
FFE7FF
0600C0
0600C0
060100
0701C0
061180
7FFB80
060306
4733FF
FFFA0C
C0260C
3FCD0C
01D90C
030198
060098
0FE0F0
FE0060
E600E0
0601B0
3E031F
0E0E0F
0C3806
ENDCHAR
STARTCHAR C275c
ENCODING 10076
SWIDTH 400 0
DWIDTH 24 0
BBX 24 24 0 -2
BITMAP
0600C0
0640C2
FFEFFF
0600C0
0400C0
04000C
0608FE
060FD8
066DD8
FFEDD8
060DD8
060DD8
064DD8
7FEDD8
000DC8
208DC8
3FCD88
30CD8C
30C92C
30DB34
30DE7E
3FD7DF
30B30B
206001
ENDCHAR
STARTCHAR C275d
ENCODING 10077
SWIDTH 400 0
DWIDTH 24 0
BBX 24 24 0 -2
BITMAP
0600C0
0640C2
FFE7FF
0600C0
0600C0
000760
000630
00061E
3FFFFE
102300
1FF300
18730C
1FF30C
106318
001118
3FF998
0381B0
3FF9F0
0380E0
03F8E1
7FC1F1
78033F
300E0F
003807
ENDCHAR
STARTCHAR C275e
ENCODING 10078
SWIDTH 400 0
DWIDTH 24 0
BBX 24 24 0 -2
BITMAP
0600C0
0640C2
FFE7FF
0600C0
0600CC
7FFFFE
00C000
00E060
1FFFE0
00C062
FFFFFF
000000
7FFFFE
00E000
00C060
3FFFE0
00C062
FFFFFF
000000
0C0060
0FFFF0
0C0060
0FFFE0
0C0060
ENDCHAR
STARTCHAR C275f
ENCODING 10079
SWIDTH 400 0
DWIDTH 24 0
BBX 24 24 0 -2
BITMAP
0600C0
0640C2
FFE7FF
0600C0
0600CC
7FFFFE
00C000
00E060
1FFFE0
00C062
FFFFFF
000000
0FFFF0
0C0070
0C0060
0FFFE0
0D0040
038062
FFE7FF
0380E0
070060
0E0060
180060
700040
ENDCHAR
STARTCHAR C2760
ENCODING 10080
SWIDTH 400 0
DWIDTH 24 0
BBX 24 24 0 -2
BITMAP
0600C0
0640C2
FFE7FF
0600C0
0600C0
00180E
7FFC0E
00000C
0001EC
3FF1CC
3871CC
3071CC
3FF1CC
3061CC
0001CC
7FF9CC
6339CC
6319CC
7FF98C
63380C
63180C
7FF87C
60383C
601018
ENDCHAR
STARTCHAR C2761
ENCODING 10081
SWIDTH 400 0
DWIDTH 24 0
BBX 24 24 0 -2
BITMAP
0600C0
0640C2
FFE7FF
0600C0
0600C0
01C380
018308
3FFFFC
018300
018302
FFFFFF
001800
1FFFF0
1C3830
1C1830
1FFFF0
083800
001808
3FFFFC
001800
0FFFF0
001800
003807
FFFFFF
ENDCHAR
STARTCHAR C2762
ENCODING 10082
SWIDTH 400 0
DWIDTH 24 0
BBX 24 24 0 -2
BITMAP
0600C0
0640C2
FFE7FF
0600C0
3600C4
3FFFFE
300000
380030
3FFFF0
300000
3FFFFE
338438
338370
3399C0
63E07F
41005F
818064
038062
7FE7FF
030060
070060
0E0060
180060
700040
ENDCHAR
STARTCHAR C2763
ENCODING 10083
SWIDTH 400 0
DWIDTH 24 0
BBX 24 24 0 -2
BITMAP
0600C0
0640C2
FFE7FF
0600C0
0600C4
7FFFFE
038300
0380E0
06003C
1FFFFF
303802
C01800
1FFFF0
1C3830
1C1830
1FFFF0
083800
001808
3FFFFC
001800
0FFFF0
001800
003807
FFFFFF
ENDCHAR
STARTCHAR C2764
ENCODING 10084
SWIDTH 400 0
DWIDTH 24 0
BBX 24 24 0 -2
BITMAP
0600C0
0640C2
FFE7FF
0600C0
0600C0
000006
7FFFFE
038180
078070
0E001E
1FFFE7
6C0060
8C0060
0FFFE0
038180
0380E0
06107F
1C1C1F
301804
8FFFF0
001800
001800
003807
FFFFFF
ENDCHAR
STARTCHAR C2765
ENCODING 10085
SWIDTH 400 0
DWIDTH 24 0
BBX 24 24 0 -2
BITMAP
0600C0
0640C2
FFE7FF
0600C0
0600C0
20000C
3FFFFE
30180C
3619CC
33998C
313A0C
30370C
30E3CC
3390EC
36184C
3399CC
31B98C
30B60C
30630C
30C1FC
3380EC
3E006C
3FFFFC
20000C
ENDCHAR
STARTCHAR C2766
ENCODING 10086
SWIDTH 400 0
DWIDTH 24 0
BBX 24 24 0 -2
BITMAP
0600C0
0640C2
FFE7FF
0600C0
0600C0
1FFFF0
1C0030
1FFFF0
1C0030
1FFFF0
018380
00C200
1FFFF0
003830
101830
1FFFF0
30180C
3FFFFE
30780E
00D80C
0398FC
0E183C
381818
601000
ENDCHAR
STARTCHAR C2767
ENCODING 10087
SWIDTH 400 0
DWIDTH 24 0
BBX 24 24 0 -2
BITMAP
0600C0
0640C2
FFE7FF
0600C0
0600F0
1FFFF8
180038
180038
1FFFF8
180038
1FFFF0
141840
061860
7FFFFC
061860
3FFFFC
0E38E0
061860
3FFFFC
001800
FFFFFF
001800
001800
001000
ENDCHAR
STARTCHAR C2768
ENCODING 10088
SWIDTH 400 0
DWIDTH 24 0
BBX 24 24 0 -2
BITMAP
0600C0
0640C4
7FE7FE
0600C0
0600C0
1FFFF0
1C0030
1C0030
1FFFF0
1C0030
1FFFF0
00E020
00C006
FFFFFF
031060
061C38
0C185F
3B38CF
E1B482
006300
01C1C0
0300FE
0C003E
70000E
ENDCHAR
STARTCHAR C2769
ENCODING 10089
SWIDTH 400 0
DWIDTH 24 0
BBX 24 24 0 -2
BITMAP
0600C0
0640C2
FFE7FF
0600C0
0600C0
00100C
631FFE
7F980C
63980C
639FFC
63980C
63980C
639FFC
7F8000
638004
63BFFE
6381C0
6381C2
63FFFF
7F81C0
6301C0
4001C0
0001C0
000180
ENDCHAR
STARTCHAR C276a
ENCODING 10090
SWIDTH 400 0
DWIDTH 24 0
BBX 24 24 0 -2
BITMAP
0600C0
0640C2
FFE7FF
0600C0
0600C0
0000E0
0000C0
0180C4
FFDFFE
EDC0C0
ED80C0
ED80C2
EDBFFF
ED801C
FF8018
ED9FFF
ED8818
ED8C18
FF8618
E18218
C00018
0003F8
000078
000030
ENDCHAR
STARTCHAR C276b
ENCODING 10091
SWIDTH 400 0
DWIDTH 24 0
BBX 24 24 0 -2
BITMAP
0600C0
0640C2
FFE7FF
0610C0
061CC0
001810
3FFFF8
38381C
301818
3FFFF8
001800
001802
FFFFFF
000000
3FFFFC
30001C
318318
31FF98
318318
31FF18
300018
300018
3FFFF8
300018
ENDCHAR
STARTCHAR C276c
ENCODING 10092
SWIDTH 400 0
DWIDTH 24 0
BBX 24 24 0 -2
BITMAP
0600C0
0640C2
FFE7FF
0600C0
0600C0
300380
1C0304
0C03FE
040300
003FFC
04301C
7E300C
0E3FCC
1C31CC
3B31CC
3FBFCC
06318C
06300C
0C3FFC
183008
7F0000
61FFFF
007FFC
000FF8
ENDCHAR
STARTCHAR C276d
ENCODING 10093
SWIDTH 400 0
DWIDTH 24 0
BBX 24 24 0 -2
BITMAP
0600C0
0640C2
FFE7FF
0600C0
061CC0
001818
001FFC
301C07
3FFFFF
307026
37FFF4
307000
307FF0
303FF0
300000
31FFF0
318070
318060
31FFE0
318060
61FFE0
410060
800007
3FFFFF
ENDCHAR
STARTCHAR C276e
ENCODING 10094
SWIDTH 400 0
DWIDTH 24 0
BBX 24 24 0 -2
BITMAP
0600C0
0640C2
FFE7FF
0600C0
061CC0
001818
001FFC
301C07
3FFFFF
307026
37FFF4
307000
307FF0
303FF0
30E000
30C030
31FFF8
333338
36F338
307E30
60CFF0
4318FF
8677CE
01C184
ENDCHAR
STARTCHAR C276f
ENCODING 10095
SWIDTH 400 0
DWIDTH 24 0
BBX 24 24 0 -2
BITMAP
00C300
00C304
7FC3FE
00C300
008200
1FFFF0
1CC630
1CC630
1FFFF0
000000
200007
7FFFFF
C06206
806384
00618C
3FFFFE
007060
0070F0
0031C0
001F00
000E01
007FE3
03E1FF
3F003F
ENDCHAR
STARTCHAR C2770
ENCODING 10096
SWIDTH 400 0
DWIDTH 24 0
BBX 24 24 0 -2
BITMAP
00C300
00C302
FFC3FF
00C300
008200
3FFFFC
30C31C
30C318
30C318
3FFFF8
300000
070E60
060E30
0E0E34
0C0FFE
1DFE00
1C0600
3C071C
5C0370
1C03C1
1C03E1
1C0F7B
1C181F
19E007
ENDCHAR
STARTCHAR C2771
ENCODING 10097
SWIDTH 400 0
DWIDTH 24 0
BBX 24 24 0 -2
BITMAP
0600C0
0640C2
FFE7FF
0600C0
0600C0
0FFFF0
0C8330
0C6730
0C3C30
0C3E30
0C7330
0CC130
0FFFF0
001800
101810
1FFFF8
183838
181838
1FFFF8
103818
00180C
7FFFFE
7F8006
700003
ENDCHAR
STARTCHAR C2772
ENCODING 10098
SWIDTH 400 0
DWIDTH 24 0
BBX 24 24 0 -2
BITMAP
0600C0
0640C2
FFE7FF
0600C0
0600C0
07200C
07F7FE
27060E
36260C
3FF60C
30667C
6EC609
C78602
0607FE
0C03FE
F00000
3FFFFC
0181C0
0181C2
7FFFFF
0301C0
0601C0
0C01C0
300180
ENDCHAR
STARTCHAR C2773
ENCODING 10099
SWIDTH 400 0
DWIDTH 24 0
BBX 24 24 0 -2
BITMAP
0600C0
0640C2
FFE7FF
0600C0
0618C0
301C0C
38180E
381C0C
3FFFFC
061800
060C00
0C0C0C
1FFFFE
1C0C00
3C0C0C
7FFFFC
9C0C00
1C0C0C
1FFFFC
1C0C00
1C0C02
1FFFFF
1C0000
180000
ENDCHAR
STARTCHAR C2774
ENCODING 10100
SWIDTH 400 0
DWIDTH 24 0
BBX 24 24 0 -2
BITMAP
0600C0
0640C2
FFE7FF
0600C0
0600C0
180C38
18FE38
5A0EFE
DB0EFE
DA7EFE
DA6CFE
DAE0FE
DAC2FE
DAFEFE
FE6EFE
186E38
18DE38
38D638
31B638
312638
236638
62FE38
409C38
401830
ENDCHAR
STARTCHAR C2775
ENCODING 10101
SWIDTH 400 0
DWIDTH 24 0
BBX 24 24 0 -2
BITMAP
0600C0
0640C2
FFE7FF
0600C0
0600C0
30E040
38C064
30C866
30C6CC
3FC2E8
31C1B0
01919C
033B0F
067E06
1CE600
F1D380
039CE0
0E183F
1FFFDF
603806
801800
001800
00380C
3FFFFC
ENDCHAR
STARTCHAR C2776
ENCODING 10102
SWIDTH 400 0
DWIDTH 24 0
BBX 24 24 0 -2
BITMAP
0600C0
0640C2
FFE7FF
0600C0
0600C0
0007F0
03FFF0
3F9C60
041870
0798E0
01998C
7FFFFE
007B00
00D9C0
0198F0
07183C
1C180C
700004
031C00
230E28
630066
E3FFC3
C1FFE3
807FC1
ENDCHAR
STARTCHAR C2777
ENCODING 10103
SWIDTH 400 0
DWIDTH 24 0
BBX 24 24 0 -2
BITMAP
0600C0
0640C2
FFEFFF
0600C0
0400C0
00000C
03C8FE
1FCFD8
7E0DD8
060DD8
060DD8
066DD8
FFEDD8
060DD8
060DC8
268DC8
3FCD88
30CD8C
30C92C
30DB36
30DE7E
3FD7DB
30B30B
206001
ENDCHAR
STARTCHAR C2778
ENCODING 10104
SWIDTH 400 0
DWIDTH 24 0
BBX 24 24 0 -2
BITMAP
0600C0
0640C2
FFE7FF
0600C0
0603C0
000180
3F01C0
3310C7
333FFF
336006
3B4000
3F0018
371FFC
330000
370004
3F7FFE
3B06E0
230660
630C60
630C61
631863
DF307F
C7607F
86C03E
ENDCHAR
STARTCHAR C2779
ENCODING 10105
SWIDTH 400 0
DWIDTH 24 0
BBX 24 24 0 -2
BITMAP
0600C0
0640C2
FFE7FF
0600C0
0600C0
020040
7F0660
630638
630C1C
63180F
633007
7F7FFE
63180C
63180C
63180C
7F1FFC
630360
630360
630760
630661
630C61
C3187F
DF303F
86E01E
ENDCHAR
STARTCHAR C277a
ENCODING 10106
SWIDTH 400 0
DWIDTH 24 0
BBX 24 24 0 -2
BITMAP
0700E0
0700E0
0660C2
FFE7FF
0600C0
0604C0
200700
300618
1C7FFC
08701C
007018
067FF8
7E7018
0C7018
187FF8
3F2310
370304
06FFFE
0E0300
1C0300
3E0300
7FC303
60FFFF
007FFC
ENDCHAR
STARTCHAR C277b
ENCODING 10107
SWIDTH 400 0
DWIDTH 24 0
BBX 24 24 0 -2
BITMAP
0600C0
0640C2
FFE7FF
0600C0
0600C0
4201C0
738180
630187
637FFF
630700
630E08
7F187E
607FE7
603003
6211E0
7F01C0
6301C7
637FFF
6319C0
6319CC
E311C6
C321C3
C341C1
830180
ENDCHAR
STARTCHAR C277c
ENCODING 10108
SWIDTH 400 0
DWIDTH 24 0
BBX 24 24 0 -2
BITMAP
0600C0
0640C2
FFE7FF
0600C0
0600C0
040010
077FF8
06739C
0C7318
1C7FF8
187398
387318
787FF8
D82398
988300
1BFFFE
19C386
18C326
18DFF6
18FE1E
18D806
18C03E
18C01C
188008
ENDCHAR
STARTCHAR C277d
ENCODING 10109
SWIDTH 400 0
DWIDTH 24 0
BBX 24 24 0 -2
BITMAP
0600C0
0640C2
FFE7FF
0610C0
0618C0
001806
FFFFFE
001800
1C1830
1FFFF1
083821
001FFF
001FFE
000000
0FFFF0
0C0070
0FFFE0
0C0060
0FFFE0
000002
FFFFFF
0600E0
1C003C
70000E
ENDCHAR
STARTCHAR C277e
ENCODING 10110
SWIDTH 400 0
DWIDTH 24 0
BBX 24 24 0 -2
BITMAP
0600C0
0640C2
FFE7FF
0600C0
0600C0
000080
0601C0
6601C7
3C3FFF
1C01C0
3C1FFC
6601C0
863FFF
070000
0F180C
1B1FFE
33180C
631FFC
83180C
031C0C
071FFC
7E380C
3C703C
18C008
ENDCHAR
STARTCHAR C2821
ENCODING 10273
SWIDTH 400 0
DWIDTH 24 0
BBX 24 24 0 -2
BITMAP
0600C0
0640C2
FFE7FF
0600C0
0600C0
060300
070700
060F80
0C1CE0
1C3878
18701F
38FFEF
798002
D8C664
98FF76
18C664
18FE4C
18C6C8
18FEC8
18C64C
18C664
19BE76
199E36
1B0C20
ENDCHAR
STARTCHAR C2822
ENCODING 10274
SWIDTH 400 0
DWIDTH 24 0
BBX 24 24 0 -2
BITMAP
0600C0
0640C2
FFE7FF
0600C0
0600C0
080004
0E3FFE
0C3006
183006
1BB7F6
33B676
673266
7E3266
1C3266
193146
31B1C6
67F1C6
FC33E6
60337E
48B63E
4CF81E
C4F006
C03FFE
803006
ENDCHAR
STARTCHAR C2823
ENCODING 10275
SWIDTH 400 0
DWIDTH 24 0
BBX 24 24 0 -2
BITMAP
0600C0
0640C2
FFE7FF
0610C0
063CC0
00F380
03C0F0
0600BF
3FFFCF
F01802
001800
7FFFFE
021800
0718E0
1E183C
71F80C
003800
071060
060060
FFE7FF
060060
0C0060
300060
E00040
ENDCHAR
STARTCHAR C2824
ENCODING 10276
SWIDTH 400 0
DWIDTH 24 0
BBX 24 24 0 -2
BITMAP
0600C0
0640C2
FFE7FF
0600C0
0600C0
082000
1C3800
183006
38377E
703300
6C3000
CFFF82
9C307F
18301C
39F70C
31B70C
71B60C
F1B60C
31B60C
31378C
33330C
3230FC
303078
303030
ENDCHAR
STARTCHAR C2825
ENCODING 10277
SWIDTH 400 0
DWIDTH 24 0
BBX 24 24 0 -2
BITMAP
0600C0
0640C2
FFE7FF
0600C0
0618C0
000C00
000C06
3FFFFF
300400
303700
307608
33C6FC
33860C
33B61C
33F67C
33860C
338E1C
33FFF8
300C80
301840
607038
C0C01F
83800E
0E0000
ENDCHAR
STARTCHAR C2826
ENCODING 10278
SWIDTH 400 0
DWIDTH 24 0
BBX 24 24 0 -2
BITMAP
030000
030318
0323FC
03F31C
030318
7FFF18
631F18
635B18
6FC318
63E318
63E318
601318
6FFB18
600318
6FF318
6C7318
6C7318
67E318
6C6618
666619
C2C619
DFFC1F
9F880F
0C1006
ENDCHAR
STARTCHAR C2827
ENCODING 10279
SWIDTH 400 0
DWIDTH 24 0
BBX 24 24 0 -2
BITMAP
034060
036064
03307E
032060
033476
FFFFFF
030E64
6B0EE0
7B0FFC
7B6E60
7B6E60
7B6E7E
FF6E3E
7B4E00
7B4FDC
7B4FD8
7BCFD8
59AFD8
D9AF99
8BED99
036D9F
067B0F
0C3A00
181400
ENDCHAR
STARTCHAR C2828
ENCODING 10280
SWIDTH 400 0
DWIDTH 24 0
BBX 24 24 0 -2
BITMAP
003800
003820
003FF0
003006
3FFFFF
303007
37FFF4
303000
303FF8
301FF8
30C218
30E718
318430
37FFFE
318C30
30C718
304308
31FFF8
318618
218618
61FFF8
618618
C1FFF8
818018
ENDCHAR
STARTCHAR C2829
ENCODING 10281
SWIDTH 400 0
DWIDTH 24 0
BBX 24 24 0 -2
BITMAP
0C0600
0C0600
180C0E
3A0FFE
339C18
733730
B363E0
3341C0
3303F8
330F3F
33180E
337810
001FF8
301800
3FFFFE
30700E
37FFE8
307000
303FF8
30C180
20C183
6181FE
C701FE
9C007C
ENDCHAR
STARTCHAR C282a
ENCODING 10282
SWIDTH 400 0
DWIDTH 24 0
BBX 24 24 0 -2
BITMAP
1C0300
1C0180
1C10CE
1C3FFF
1C6004
5D6000
FF9FFE
DD8380
DD8300
DD8700
DD8618
DD8C0C
DD9FFC
FFBDCC
DC19C4
1C01C0
1C01CC
1E1FFC
1F01C0
1D81C0
FF81C0
F081C6
403FFF
000000
ENDCHAR
STARTCHAR C282b
ENCODING 10283
SWIDTH 400 0
DWIDTH 24 0
BBX 24 24 0 -2
BITMAP
1C0300
1C0180
1C00C2
1C7FFF
1C081C
5D0418
FF8230
DD9367
DDBFFF
DDE1E6
DDC1C0
DD81CC
DD9FFE
FF99CE
DC19CC
1C19CC
1C19CC
1E19CC
1F19CC
1D99CC
FF99FC
F091C8
4001C0
000180
ENDCHAR
STARTCHAR C282c
ENCODING 10284
SWIDTH 400 0
DWIDTH 24 0
BBX 24 24 0 -2
BITMAP
1C0018
1C3FFC
1C003C
1C07E0
1C01C4
5D3FFE
FFB1C6
DDB1C6
DDBFFE
DDB1C6
DDBFFE
DDB1C6
DDB19E
FFB38C
DC0380
1C0306
1C7FFE
1E0306
1F0606
1D8E06
FF9C0E
F0B9FC
407078
00C030
ENDCHAR
STARTCHAR C282d
ENCODING 10285
SWIDTH 400 0
DWIDTH 24 0
BBX 24 24 0 -2
BITMAP
1C0007
1C0007
1C0FF6
1C0C06
1C0C06
5D0FF6
FF8C06
DD8C06
DD9FF6
DD8806
DD8006
DDBFFE
DDB000
FFB000
DC3018
1C37FC
1C3018
1E3018
1F37F8
1DB018
FFF018
F0E7F8
404000
008000
ENDCHAR
STARTCHAR C282e
ENCODING 10286
SWIDTH 400 0
DWIDTH 24 0
BBX 24 24 0 -2
BITMAP
1C01C0
1C01C0
1C0180
1C0187
1C3FF7
5D018E
FF819C
DD81B8
DD81F2
DDFFFF
DD81C8
DD8386
DD8703
FF8E00
DC1FFE
1C3E06
1C7E06
1ECE06
1F0FFE
1D8E06
FF8E06
F08E06
400FFE
000C06
ENDCHAR
STARTCHAR C282f
ENCODING 10287
SWIDTH 400 0
DWIDTH 24 0
BBX 24 24 0 -2
BITMAP
1C0030
1C0230
19FF70
187070
187058
5A70C8
FF7D8C
DA6F06
DA6F17
DACE3B
DACC30
DBCC60
DBBCCC
FF190C
D81818
181830
181862
1E3187
1A3306
1B600C
FF6018
F1C060
4181C0
000700
ENDCHAR
STARTCHAR C2830
ENCODING 10288
SWIDTH 400 0
DWIDTH 24 0
BBX 24 24 0 -2
BITMAP
1C0000
1C0007
187FFF
180180
180120
5A27F2
FF7637
DA7637
DA7637
DA77F7
DA7637
DA7637
DA7637
FE7637
DA77F7
187637
187637
1E7637
1B77F7
1B7627
FFF007
F17FFF
407006
006000
ENDCHAR
STARTCHAR C2831
ENCODING 10289
SWIDTH 400 0
DWIDTH 24 0
BBX 24 24 0 -2
BITMAP
1C0060
1C006C
180066
180063
182060
5A7FFF
FF7060
DA7060
DA7160
DA7FE7
DA7067
DA7566
DA7F66
FE7D6C
DA7D2C
187D3C
187D38
1E7F38
1B7438
1B6079
FFE0CD
F1C18F
40C307
018603
ENDCHAR
STARTCHAR C2832
ENCODING 10290
SWIDTH 400 0
DWIDTH 24 0
BBX 24 24 0 -2
BITMAP
1C0000
1C2007
187FFF
187380
187390
5A7318
FF7308
DA7FFF
DA730C
DA730C
DA7308
DA73D4
FE73E6
DA73CC
1866DA
1866F6
1E66C4
1B6EC8
1FCCD1
FDC8E1
E0D8C3
40B0FF
01607F
004000
ENDCHAR
STARTCHAR C2833
ENCODING 10291
SWIDTH 400 0
DWIDTH 24 0
BBX 24 24 0 -2
BITMAP
1C01C0
1C01C0
180182
187FFF
180760
5A0630
FF0DDC
DA19CF
DA31C7
DAEFFA
DA01C0
DA01C0
DA01C8
FE1C8C
DA180C
18180C
18FF7F
1E180C
1B180C
1B180C
FFB00C
F1200C
40400C
008008
ENDCHAR
STARTCHAR C2834
ENCODING 10292
SWIDTH 400 0
DWIDTH 24 0
BBX 24 24 0 -2
BITMAP
1C0004
1C300E
183FFF
1831C6
1831C6
5B31C6
FFBFFE
DB31C6
DB31C6
DB31C6
DB31C6
DB3FFE
DB3006
FF0100
DA00E0
180E60
180E20
1E2E04
1B6E06
1B6E0B
FFEE1B
F16FF1
4007F0
0003E0
ENDCHAR
STARTCHAR C2835
ENCODING 10293
SWIDTH 400 0
DWIDTH 24 0
BBX 24 24 0 -2
BITMAP
1C0204
1C376E
1C3F7F
1C3366
1C3776
5D3E7E
FF8000
DD800C
DD9FFC
DD8E00
DD8E02
DDFFFF
DD8C00
FF8C00
DC180C
1C1FFE
1C000C
1E000C
1F000C
1D800C
FF800C
F087FC
4001F8
000070
ENDCHAR
STARTCHAR C2836
ENCODING 10294
SWIDTH 400 0
DWIDTH 24 0
BBX 24 24 0 -2
BITMAP
1C0004
1C300E
1C3FFF
1C31C6
1C31C6
5D3FFE
FFB1C6
DDB1C6
DDB1C6
DDBFFE
DDB1C4
DD83C0
DD8760
FF8E30
DC1C3C
1C3E3F
1C6E37
1E8E30
1F0C30
1D8C30
FF9830
F0B830
407030
00C030
ENDCHAR
STARTCHAR C2837
ENCODING 10295
SWIDTH 400 0
DWIDTH 24 0
BBX 24 24 0 -2
BITMAP
1C0000
1C0000
1801FF
181903
18FD03
5A1D03
FF190B
DA317B
DA316B
DA696B
DAFD6B
DA4D6B
DA0D7B
FE0D03
DA8D03
18D903
185903
1E79FF
1B3902
1B3800
FFBE00
F167FF
40C1FF
01807C
ENDCHAR
STARTCHAR C2838
ENCODING 10296
SWIDTH 400 0
DWIDTH 24 0
BBX 24 24 0 -2
BITMAP
1C0E1C
1C0E1C
1C0E18
1C3F7F
1C0E18
5D0C18
FF81C0
DD81C0
DD8180
DD8180
DD8387
DDFFFF
DD8700
FF8600
DC0E0C
1C0FFE
1C1E0C
1E160C
1F260C
1DC60C
FF860C
F107FC
40060C
000600
ENDCHAR
STARTCHAR C2839
ENCODING 10297
SWIDTH 400 0
DWIDTH 24 0
BBX 24 24 0 -2
BITMAP
1C6D87
1C6D87
18DB07
189237
184937
5A6DB7
FF24B7
DA0037
DAFFB7
DA3037
DA3337
DA3FB7
DA73B7
FE6337
DA7337
185B37
188E37
190627
1E0C07
1B1807
FF3007
F1603F
40C00E
03800C
ENDCHAR
STARTCHAR C283a
ENCODING 10298
SWIDTH 400 0
DWIDTH 24 0
BBX 24 24 0 -2
BITMAP
1C1800
1C1A00
18319E
186180
186000
5AC040
FF9E40
DB1B42
DA33FF
DA63CC
DA608C
DAE18C
DBE18C
FF610C
DA630C
18630C
18630C
1E660C
1B620C
1B630C
FF630C
F1633C
406338
006010
ENDCHAR
STARTCHAR C283b
ENCODING 10299
SWIDTH 400 0
DWIDTH 24 0
BBX 24 24 0 -2
BITMAP
002180
001980
09CB80
098318
19864E
39FFC7
30FFC2
00F000
0780E0
03FFF8
3F6000
00E00C
3FFFFE
03BCC0
071C70
0E187F
1FFFFF
7E1866
C61860
07FFE0
041810
001FFC
7FFE0E
7F0006
ENDCHAR
STARTCHAR C283c
ENCODING 10300
SWIDTH 400 0
DWIDTH 24 0
BBX 24 24 0 -2
BITMAP
001800
001800
001806
7FFFFE
001800
0FFFF0
0C0070
0C0060
0FFFE0
200006
7FFFFF
E18307
C31304
061BFE
3C19FC
601820
1FFFF0
1C1830
1C1830
1FFFF0
001818
001FFC
7FFF06
7F8006
ENDCHAR
STARTCHAR C283d
ENCODING 10301
SWIDTH 400 0
DWIDTH 24 0
BBX 24 24 0 -2
BITMAP
20C018
3FEFFC
30E00C
3FCFFC
30C000
300018
3FCFFC
300618
300330
3FC1E0
3001F8
30073F
303C0C
003800
101810
1FFFF8
183838
181838
1FFFF8
103818
00180C
7FFFFE
7F8006
700003
ENDCHAR
STARTCHAR C283e
ENCODING 10302
SWIDTH 400 0
DWIDTH 24 0
BBX 24 24 0 -2
BITMAP
000008
30C21C
3FE3FC
30C30C
30C30C
3FC3FC
307308
007000
00600C
3FFFFE
01C180
0190C0
031C60
06183C
0FFFFF
3E186E
E61860
061860
07FFE0
001810
001818
7FFFFC
7F8006
300006
ENDCHAR
STARTCHAR C283f
ENCODING 10303
SWIDTH 400 0
DWIDTH 24 0
BBX 24 24 0 -2
BITMAP
0600C0
0760C7
FFE7FF
0600C0
000060
0FFFE0
00F380
003E0C
7FFFFE
003C0E
006C08
01CC10
077C00
1C1800
300000
001C00
081C38
1FFFFC
1C1818
1FFFF8
001810
001FFC
7FFF06
7F8003
ENDCHAR
STARTCHAR C2840
ENCODING 10304
SWIDTH 400 0
DWIDTH 24 0
BBX 24 24 0 -2
BITMAP
0600C0
0640C2
FFE7FF
0600C0
0600C0
080070
0FFFF8
0C1830
0C1830
0FFFF0
0C1830
0C1830
0FFFF0
001C00
081810
1FFFF8
1C1C1C
1C1818
1FFFF8
081C08
001804
3FFFFE
7F8003
300003
ENDCHAR
STARTCHAR C2841
ENCODING 10305
SWIDTH 400 0
DWIDTH 24 0
BBX 24 24 0 -2
BITMAP
038070
0FC070
7E0660
060360
0EC160
7FC060
0E1860
1F8E60
1EC660
36C060
26FFFE
460060
061060
041C60
101810
1FFFF8
183838
181838
1FFFF8
103818
00180C
7FFFFE
7F8006
700003
ENDCHAR
STARTCHAR C2842
ENCODING 10306
SWIDTH 400 0
DWIDTH 24 0
BBX 24 24 0 -2
BITMAP
018000
018300
03FF00
03FF00
000E18
3FFFFC
03F060
0638E0
7CED80
03CF00
1E1FC0
31F67E
1F061E
70FE04
001C00
001800
001830
1FFFF8
181838
183838
1FFFF8
001FFC
7FFE06
7F0006
ENDCHAR
STARTCHAR C2843
ENCODING 10307
SWIDTH 400 0
DWIDTH 24 0
BBX 24 24 0 -2
BITMAP
0C00E0
0C00E0
5980C0
7FC0C6
619FFE
7F98C6
6118C6
6018C6
7FD8C6
6198FE
6198CC
7F80C0
6110C0
6018C0
101810
1FFFF8
183838
181838
1FFFF8
103818
00180C
7FFFFE
7F8006
700003
ENDCHAR
STARTCHAR C2844
ENCODING 10308
SWIDTH 400 0
DWIDTH 24 0
BBX 24 24 0 -2
BITMAP
06000C
07FFFE
0C0300
1CFFF8
18E718
38FFF8
58C318
98FFF8
18C600
183E00
181F80
1831FE
18D07E
13180C
001810
1FFFF8
183838
181838
1FFFF8
103818
00180C
7FFFFE
7F8006
700003
ENDCHAR
STARTCHAR C2845
ENCODING 10309
SWIDTH 400 0
DWIDTH 24 0
BBX 24 24 0 -2
BITMAP
001800
000C00
300C06
3FFFFF
318060
31C070
319060
31BA76
33FFFF
33BB66
36F376
3C63FE
30C060
318076
330FFF
3E0603
300600
300608
33FFFC
200600
600600
600600
400607
0FFFFF
ENDCHAR
STARTCHAR C2846
ENCODING 10310
SWIDTH 400 0
DWIDTH 24 0
BBX 24 24 0 -2
BITMAP
00E000
00E000
00C080
01FFC0
0380E0
078180
0CC300
187600
103E00
007780
01C1E0
07007F
1C005F
770076
870060
3FE7FE
3766EE
36666C
3FE7FC
2746E4
066066
7FF7FF
7C3783
601601
ENDCHAR
STARTCHAR C2847
ENCODING 10311
SWIDTH 400 0
DWIDTH 24 0
BBX 24 24 0 -2
BITMAP
018804
7FCFFE
60CC60
7FCC60
61D8C0
60D8C6
7FDFFE
6101E0
618371
67C763
7CCE76
705C3F
20301E
003800
001820
1FFFF0
1C3830
1C1830
1FFFF0
083820
001830
3FFFFC
7F800E
300006
ENDCHAR
STARTCHAR C2848
ENCODING 10312
SWIDTH 400 0
DWIDTH 24 0
BBX 24 24 0 -2
BITMAP
00030C
00030C
06030C
0E030C
0C1FFF
18030C
7FC30C
7BC3FC
7AC30C
7AC30C
7AC3FC
7AC30C
7AC30C
7AFFFF
7ACCD8
7ACCD8
7ACCD8
7FCD9E
FE0D0F
E00E00
000C00
000FFE
000FFF
0003FF
ENDCHAR
STARTCHAR C2849
ENCODING 10313
SWIDTH 400 0
DWIDTH 24 0
BBX 24 24 0 -2
BITMAP
000004
00180E
061FFF
0E18C6
0C18C6
1818C6
7FDFFE
7BDCC6
7AD8C6
7AD8C6
7AD8C6
7ADFFE
7AD906
7AC1C0
7AC0E0
7AC360
7AC300
7FD304
FE1306
E0330B
00730B
0023F9
0003F8
0001F0
ENDCHAR
STARTCHAR C284a
ENCODING 10314
SWIDTH 400 0
DWIDTH 24 0
BBX 24 24 0 -2
BITMAP
0381C0
0701C0
0E01CC
181FFE
3181CC
43FFFF
0701CC
0C01CC
181FFC
71C1C0
039FFE
0701C0
0E3FFF
1801C0
70E1C0
C0C1A0
0980F0
1FFFF8
1CC630
1CC630
1CC630
1CC630
1CE637
FFFFFF
ENDCHAR
STARTCHAR C284b
ENCODING 10315
SWIDTH 400 0
DWIDTH 24 0
BBX 24 24 0 -2
BITMAP
06001C
06001C
7FE018
060FFF
073218
FFF318
0601D8
073098
3FF018
060018
07F8F8
FF8038
603010
001800
001802
FFFFFF
00C838
018470
0783E0
1F9980
73F0F0
C3C07F
03801E
018004
ENDCHAR
STARTCHAR C284c
ENCODING 10316
SWIDTH 400 0
DWIDTH 24 0
BBX 24 24 0 -2
BITMAP
030380
030380
7FFB20
030318
23331C
3FFB0C
333300
333300
237300
032306
FFFFFF
060300
038388
03198E
FFF98C
06199C
0D99F8
3CE0F0
7C70E0
9DF8E1
1F19B3
1E071F
081E0F
00F807
ENDCHAR
STARTCHAR C284d
ENCODING 10317
SWIDTH 400 0
DWIDTH 24 0
BBX 24 24 0 -2
BITMAP
060060
26466C
36666E
36666C
7FE7FC
264060
0C0060
300040
2FFFE0
0C0060
0C0060
0FFFE0
081000
001800
001802
FFFFFF
00C838
018470
0783E0
1F9980
73F0F0
C3C07F
03801E
018004
ENDCHAR
STARTCHAR C284e
ENCODING 10318
SWIDTH 400 0
DWIDTH 24 0
BBX 24 24 0 -2
BITMAP
00C000
01C030
1FFFF8
181838
183938
18FF38
181938
19FFB8
181838
18FF38
183838
1818B8
1BFFB8
183030
101802
FFFFFF
00CC38
018438
038260
0781C0
3BB0E0
E3E07F
01C03F
01800F
ENDCHAR
STARTCHAR C284f
ENCODING 10319
SWIDTH 400 0
DWIDTH 24 0
BBX 24 24 0 -2
BITMAP
003800
001804
7FFFFE
0181C0
00C1C0
104318
1FFFFC
18C318
1983F8
1AFFF8
1CC318
18C318
18FF18
1801F8
180030
007030
00E03C
01C470
0383C0
0789C0
1FB0E0
F3E07F
03801F
018006
ENDCHAR
STARTCHAR C2850
ENCODING 10320
SWIDTH 400 0
DWIDTH 24 0
BBX 24 24 0 -2
BITMAP
003000
001804
7FFFFE
000000
07030C
0623FE
FFF36C
06030C
3FE33C
3066EC
30644C
3FEC7C
20080C
001800
000806
FFFFFF
007030
00C438
0383E0
0789C0
1FB0E0
F3E07F
03801F
018006
ENDCHAR
STARTCHAR C2851
ENCODING 10321
SWIDTH 400 0
DWIDTH 24 0
BBX 24 24 0 -2
BITMAP
300300
180180
0C10C6
023FFF
076006
7FE000
030004
063FFE
0601C0
0C81C0
1DC1C0
1F01C2
3E7FFF
3F0000
5F8000
9D900C
1C1FFE
1C180E
1C180C
1C180C
1C180C
1C1FFC
1C180C
181000
ENDCHAR
STARTCHAR C2852
ENCODING 10322
SWIDTH 400 0
DWIDTH 24 0
BBX 24 24 0 -2
BITMAP
300300
180180
0C018E
023FFE
070300
7F8610
030C08
06180C
063FFE
0CBF07
1DD1E2
1F01C0
3E11CC
3F1FFE
5F99CE
9D99CC
1C1FFC
1C19CC
1C19CC
1CFFFF
1C180C
1C187C
1C181C
181018
ENDCHAR
STARTCHAR C2853
ENCODING 10323
SWIDTH 400 0
DWIDTH 24 0
BBX 24 24 0 -2
BITMAP
300060
180068
180066
000066
0600E2
7F7FFF
060060
060060
0C7F67
1C1866
1B1866
3E186E
3C7F6C
7E206C
5B746C
9B6678
186378
18C370
198371
1900F9
18019F
18030F
180607
181803
ENDCHAR
STARTCHAR C2854
ENCODING 10324
SWIDTH 400 0
DWIDTH 24 0
BBX 24 24 0 -2
BITMAP
300000
183007
0C3FFF
023007
073007
7FBFFF
033002
063000
063002
0CBFFF
1DF1C0
1F318C
3E330E
3F363E
5FBFF7
9DB662
1C3060
1C7066
1C67FE
1C6060
1C6060
1CC060
1C8077
180FFF
ENDCHAR
STARTCHAR C2855
ENCODING 10325
SWIDTH 400 0
DWIDTH 24 0
BBX 24 24 0 -2
BITMAP
300000
180007
0CFFFF
020C00
071800
7F9980
031FC0
0601C6
0601FF
0C7DC7
1DEDE6
1F6DE6
3E6DD6
3F6DDC
5FEDCC
9DFDDE
1C01DF
1C01B3
1C1FA3
1C0740
1C0600
1C0002
1CFFFF
180000
ENDCHAR
STARTCHAR C2856
ENCODING 10326
SWIDTH 400 0
DWIDTH 24 0
BBX 24 24 0 -2
BITMAP
300000
183007
0C3FFF
023007
073037
7FB3F7
033007
063037
0633F7
0CA002
1DC000
1F1FFE
3E180E
3F180C
5F980C
9D9FFC
1C180C
1C180C
1C1FFC
1C1C0C
1C180C
1C180C
1C1FFC
18180C
ENDCHAR
STARTCHAR C2857
ENCODING 10327
SWIDTH 400 0
DWIDTH 24 0
BBX 24 24 0 -2
BITMAP
3000C0
1800C2
0C00FF
0200C0
0730C7
7FBFFF
033186
063180
063FFC
0CB180
1DF1C0
1F30FE
3E3180
3F3180
5FB38C
9DB3FC
1C330C
1C3718
1C3498
1C3070
1C70F0
1C619F
1C430F
189C07
ENDCHAR
STARTCHAR C2858
ENCODING 10328
SWIDTH 400 0
DWIDTH 24 0
BBX 24 24 0 -2
BITMAP
301C00
181C00
0C1806
021FFF
071B37
7FBF37
036737
0603E7
0606F7
0C8CFF
1DD9D6
1F338E
3E077C
3F0018
5F8100
9D80C0
1C0460
1C0E24
1C3E02
1C3E0B
1C7E0B
1C6FF9
1C07F8
1803F0
ENDCHAR
STARTCHAR C2859
ENCODING 10329
SWIDTH 400 0
DWIDTH 24 0
BBX 24 24 0 -2
BITMAP
301C00
181C00
0C1802
023FFF
073000
7FE000
03C1C0
0621C2
0671CF
0C7DDF
1DF7DF
1F77F7
3E73E7
3F71C7
5FF7F7
9DFDDF
1C79CF
1C71CF
1C77C7
1C7187
1C7187
1C7007
1C7FFF
180006
ENDCHAR
STARTCHAR C285a
ENCODING 10330
SWIDTH 400 0
DWIDTH 24 0
BBX 24 24 0 -2
BITMAP
3001C0
1801C0
0C03C0
020360
070630
7F861C
030C0F
061807
063FFF
0C4C00
1D8C18
1F0FF8
3E0C00
3F0FF8
5F8C02
9DFFFF
1C0700
1C0700
1C0600
1C0C18
1C180C
1C3FFE
1C3E06
181800
ENDCHAR
STARTCHAR C285b
ENCODING 10331
SWIDTH 400 0
DWIDTH 24 0
BBX 24 24 0 -2
BITMAP
003004
00180E
7FFFFE
00F700
003E00
00FFFF
07C0FF
3FFFCC
6380C0
03FFC0
0130C0
001806
FFFFFF
031980
071870
1C1818
306018
00E038
01C670
0383C0
0FB0E0
7BE07F
03801F
018006
ENDCHAR
STARTCHAR C285c
ENCODING 10332
SWIDTH 400 0
DWIDTH 24 0
BBX 24 24 0 -2
BITMAP
000006
7FFFFE
00C300
1FFFF8
18E71C
18C318
18FF18
180018
100030
1FFFF0
1C0030
1FFFF0
1C0030
1FFFF0
000020
07FFC0
0600C0
07FFC0
001800
003807
FFFFFF
001800
001800
001000
ENDCHAR
STARTCHAR C285d
ENCODING 10333
SWIDTH 400 0
DWIDTH 24 0
BBX 24 24 0 -2
BITMAP
0001B0
60C1A0
7FE1A0
60C9A6
60CFFE
7FCDA6
60CDA6
60CDA6
60CDA6
7FCFFE
60CDA6
60CDA6
60CDA6
7FCDB6
1B1FFF
1B0318
1B070C
1B0606
330C03
331000
230001
63FFFF
C3FFFF
80FFFE
ENDCHAR
STARTCHAR C285e
ENCODING 10334
SWIDTH 400 0
DWIDTH 24 0
BBX 24 24 0 -2
BITMAP
001800
00180C
7FFFFE
041800
061870
0F1878
199CCC
30BF04
20F9C0
0398FF
0E183F
7FFFFC
C60030
07FFF0
060030
07FFF0
060030
060030
07FFF0
00C600
018601
0707FF
1C03FF
7001FE
ENDCHAR
STARTCHAR C285f
ENCODING 10335
SWIDTH 400 0
DWIDTH 24 0
BBX 24 24 0 -2
BITMAP
00E200
27F307
3E03FF
303307
3FFB07
303307
3033FF
303307
3FF307
300307
3473FF
37F307
367307
36F307
36F3FF
3672DA
26F0D8
6FF0D8
6D71D8
4C7198
C87399
D9F71F
906E0F
207806
ENDCHAR
STARTCHAR C2860
ENCODING 10336
SWIDTH 400 0
DWIDTH 24 0
BBX 24 24 0 -2
BITMAP
060004
060E0E
060FFF
066E06
7FEE06
060E06
060FFE
0ECE06
3FCE06
000E06
00CFFE
3FCE06
000E06
006E06
FFFFFE
0605BC
2601B8
37C1B8
76E338
666339
C66639
860C3F
06181F
04700E
ENDCHAR
STARTCHAR C2861
ENCODING 10337
SWIDTH 400 0
DWIDTH 24 0
BBX 24 24 0 -2
BITMAP
000004
40440E
E06FFF
E06E06
E06E06
E06E06
FFEFFE
060E06
060E06
066E06
FFEFFE
060E06
064E06
466E06
66CFFE
3781B8
3601B8
0D03B8
1D8338
18C339
38C639
704C3F
E0381F
80E00E
ENDCHAR
STARTCHAR C2862
ENCODING 10338
SWIDTH 400 0
DWIDTH 24 0
BBX 24 24 0 -2
BITMAP
01E004
07E60E
7C07FF
007606
667606
36E606
32C7FE
40B606
7FFE06
C03E06
8027FE
01C606
3FC606
10C606
1187FE
0985FC
0D01F8
0701F8
0701B8
0F8339
19E339
30E63F
E06C1F
80300E
ENDCHAR
STARTCHAR C2863
ENCODING 10339
SWIDTH 400 0
DWIDTH 24 0
BBX 24 24 0 -2
BITMAP
700000
700307
6003FF
600307
600307
7EFB07
D8DBFF
D8DB07
98DB07
98DB07
18DBFF
1ADB07
FFDB07
18DB07
18DBFF
18DBDA
3CD8D8
36D8D8
37F8D8
23D998
63C199
60031F
C0060F
801806
ENDCHAR
STARTCHAR C2864
ENCODING 10340
SWIDTH 400 0
DWIDTH 24 0
BBX 24 24 0 -2
BITMAP
180300
180180
3B00C2
3FBFFF
230100
460300
FFC608
64CC04
64D83E
64FFE3
7FD803
64C0E1
64C0E0
64C0C2
7FFFFF
60C0C0
60C8C0
60CCCC
60CCC6
60D8C7
60D0C3
CFF0C3
87A0C0
8300C0
ENDCHAR
STARTCHAR C2865
ENCODING 10341
SWIDTH 400 0
DWIDTH 24 0
BBX 24 24 0 -2
BITMAP
18061C
18061C
3B0618
3F8618
23061B
461FFF
FFC618
64C618
64C618
64C618
7FC618
64C7F8
64C0E0
64C0C0
7FC0C2
60FFFF
60C0C0
60CEC8
60CCCC
60D8C6
60D0C7
CFE0C3
87C0C1
8300C0
ENDCHAR
STARTCHAR C2866
ENCODING 10342
SWIDTH 400 0
DWIDTH 24 0
BBX 24 24 0 -2
BITMAP
180300
180330
3B031A
3F9FFF
230380
46018E
FFC1BC
64C0E1
64C0E1
64C3FF
7FCE1F
64D366
64C3B0
64C310
7FFFFF
60C308
60C19C
60C1B8
60C1F0
60C0C1
60C1E1
CFC77F
879C1F
83F007
ENDCHAR
STARTCHAR C2867
ENCODING 10343
SWIDTH 400 0
DWIDTH 24 0
BBX 24 24 0 -2
BITMAP
181000
181B27
3B1FBF
3F9B37
231B37
461B37
FFDBF7
64DB27
64D807
64D807
7FD807
64FFFF
64D336
64C330
7FC330
60C330
60C330
60C630
60C630
60CC31
60DC31
CFD83F
87B03F
83600E
ENDCHAR
STARTCHAR C2868
ENCODING 10344
SWIDTH 400 0
DWIDTH 24 0
BBX 24 24 0 -2
BITMAP
1800E0
1800E0
3B0CCC
3F8CCC
230CCC
460CCE
FFDEDB
64DBDB
64D3F1
64E3E0
7FC0C0
64FFFF
64C330
64C330
7FC330
60C330
60C330
60C630
60C630
60CC31
60DC31
CFD83F
87F03F
83A00E
ENDCHAR
STARTCHAR C2869
ENCODING 10345
SWIDTH 400 0
DWIDTH 24 0
BBX 24 24 0 -2
BITMAP
180E40
180E60
3B0E30
3F8C12
230FFF
461C60
FFDC60
64DC60
64FC60
64EFFE
7FCC70
64CC60
64CC60
64CC60
7FCC60
60CFFE
60CC70
60CC60
60CC60
60CC60
60CC60
CFCC62
878FFF
830C00
ENDCHAR
STARTCHAR C286a
ENCODING 10346
SWIDTH 400 0
DWIDTH 24 0
BBX 24 24 0 -2
BITMAP
000EC0
000E60
000E2C
7FFFFE
000600
1FF63C
187338
1FE3E0
1001C2
3FFBE6
7F0674
3B9C3E
03231E
07FF80
060700
0FFFF8
1C1C38
2FFFF8
0C1838
0FFFF8
1C0038
1801F8
300070
E00060
ENDCHAR
STARTCHAR C286b
ENCODING 10347
SWIDTH 400 0
DWIDTH 24 0
BBX 24 24 0 -2
BITMAP
300200
180308
18018E
0100DC
FF8E18
002E38
002E36
026E63
3EEEC3
00CF85
00070C
7F07FC
000FFC
001880
02E1E0
7F01C4
6339C7
6331C6
6331C6
6331C6
6331C6
7F31C6
623FFE
000004
ENDCHAR
STARTCHAR C286c
ENCODING 10348
SWIDTH 400 0
DWIDTH 24 0
BBX 24 24 0 -2
BITMAP
300018
181FFC
180318
010318
FF8318
003FFE
000618
020618
3E0618
000618
007FFE
7F0000
000018
001FFC
020318
7F0318
630318
633FFE
630618
630618
630618
7F0618
627FFF
000000
ENDCHAR
STARTCHAR C286d
ENCODING 10349
SWIDTH 400 0
DWIDTH 24 0
BBX 24 24 0 -2
BITMAP
300000
18000C
181FFC
010000
FF8002
003FFF
001000
021800
3E1806
003FFF
003207
7F6317
00DFFF
000607
020637
7F07FF
630637
630C37
631837
6333E7
63E046
7F00FE
62003C
000018
ENDCHAR
STARTCHAR C286e
ENCODING 10350
SWIDTH 400 0
DWIDTH 24 0
BBX 24 24 0 -2
BITMAP
201C38
301C38
181838
0B1838
FF9C3E
007FFE
001838
061838
3E1838
001838
001838
7E1FF8
001990
000180
460182
FFFFFF
E70180
E61D90
E61998
E6318C
E66186
FEC187
C78182
000180
ENDCHAR
STARTCHAR C286f
ENCODING 10351
SWIDTH 400 0
DWIDTH 24 0
BBX 24 24 0 -2
BITMAP
608067
30D867
10FC66
04D8C6
FED8C6
00D1C6
00F1BF
0CE186
7CE386
00F386
00DBE6
7CDDB6
00DD9E
00CD96
00CD86
FCCD86
EEDD86
ECFD86
ECD986
ECC186
ECC186
FCC19E
CCC18E
00818C
ENDCHAR
STARTCHAR C2870
ENCODING 10352
SWIDTH 400 0
DWIDTH 24 0
BBX 24 24 0 -2
BITMAP
300300
180180
180186
013FFE
FF8300
000600
000418
02080C
3E107E
007FC7
003003
7F11E0
0001C0
0001C4
023FFE
7F01C0
6319C0
631DD8
6319CC
6319C6
6331C7
7F61C3
62C1C0
000180
ENDCHAR
STARTCHAR C2871
ENCODING 10353
SWIDTH 400 0
DWIDTH 24 0
BBX 24 24 0 -2
BITMAP
3001C0
1801C0
1801C0
013FFE
FF81C0
000320
000630
020C1C
3E181F
007436
000620
7F0240
001FFC
0001C0
0201C0
7F01C0
6301C6
633FFE
6301C0
6301C0
6301C0
7F01C0
6201C0
000180
ENDCHAR
STARTCHAR C2872
ENCODING 10354
SWIDTH 400 0
DWIDTH 24 0
BBX 24 24 0 -2
BITMAP
300200
180707
187F7F
000B0F
FF0F0F
001B1F
003337
06C3C7
3E0307
000F0F
001F1F
7E3337
006367
00C3C7
000B0F
7F0F1F
671B3F
663377
66E3E7
660307
660307
7E3F3F
661E1E
000C0C
ENDCHAR
STARTCHAR C2873
ENCODING 10355
SWIDTH 400 0
DWIDTH 24 0
BBX 24 24 0 -2
BITMAP
3001C0
1801C2
1821C7
0011C6
FF19CC
0009D8
0001C0
0621C7
3E7FFF
007007
007007
7E7477
0077FF
007637
007637
7F7637
6777F7
667637
667007
667007
667007
7E707F
66701E
00600C
ENDCHAR
STARTCHAR C2874
ENCODING 10356
SWIDTH 400 0
DWIDTH 24 0
BBX 24 24 0 -2
BITMAP
300000
18100C
181FFE
0119CC
FF99CC
0019CC
001FFC
0219CC
3E19CC
0019CC
001FFC
7F1000
000000
000007
027FFF
7F0C18
630C18
630C18
631818
631818
633018
7F6018
62C018
018018
ENDCHAR
STARTCHAR C2875
ENCODING 10357
SWIDTH 400 0
DWIDTH 24 0
BBX 24 24 0 -2
BITMAP
300000
18060C
1807FE
01060C
FFF60C
00760C
0077FC
027600
3E7002
007FFF
000000
7F180C
001FFE
00180C
021BEC
7F186C
63180C
63187C
631FCC
631B0C
63300C
7F60FC
62C03C
018018
ENDCHAR
STARTCHAR C2876
ENCODING 10358
SWIDTH 400 0
DWIDTH 24 0
BBX 24 24 0 -2
BITMAP
3000E0
1800E0
1800C2
0100FF
FF80C0
0020C2
003FFF
023186
3E318C
003FFC
003180
7F3180
0030FE
003000
023040
7F3070
633060
633060
6330E0
6330D0
63719C
7F630F
624606
009800
ENDCHAR
STARTCHAR C2877
ENCODING 10359
SWIDTH 400 0
DWIDTH 24 0
BBX 24 24 0 -2
BITMAP
300380
180380
18030C
0103FE
FF8380
000300
000306
023FFE
3E3306
003386
003306
7F33F6
003336
003636
023576
7F38E6
6330E6
6330C6
633186
633306
633406
7F3FFE
623006
000004
ENDCHAR
STARTCHAR C2878
ENCODING 10360
SWIDTH 400 0
DWIDTH 24 0
BBX 24 24 0 -2
BITMAP
30180C
18180C
187F7F
01180C
FF980C
00000C
0000FE
0207E0
3E1DC0
0001C0
0001C0
7F01C2
007FFF
0001C0
0201C0
7F01C0
630320
630320
630730
630E18
631C1C
7F380F
627007
01C003
ENDCHAR
STARTCHAR C2879
ENCODING 10361
SWIDTH 400 0
DWIDTH 24 0
BBX 24 24 0 -2
BITMAP
3001C0
1801CC
1801FE
011FE0
FF81C0
0001C4
001FFE
0201C0
3E01C0
003FFE
0001C0
7F0180
000000
0001C0
0201C2
7F7FFF
6301C0
631DC8
6319CC
6331C6
6321C7
7F41C3
6381C1
000180
ENDCHAR
STARTCHAR C287a
ENCODING 10362
SWIDTH 400 0
DWIDTH 24 0
BBX 24 24 0 -2
BITMAP
30100C
181FFE
18180E
01180C
FF986C
001BEC
00198C
02190C
3E1BEC
001A2C
001A2C
7F1A2C
001A2C
001BEC
021A2C
7F1A2C
631A2C
631A2C
6333EC
63322E
63300F
7F600F
624007
008003
ENDCHAR
STARTCHAR C287b
ENCODING 10363
SWIDTH 400 0
DWIDTH 24 0
BBX 24 24 0 -2
BITMAP
301800
181804
181FFE
013006
FFA0C6
005FE6
001FC6
021CC6
3E1FCE
00188C
00003C
7F03F8
000030
000027
023FFF
7F0C04
630C0E
630FFF
630006
63000E
63000C
7F07FC
6201F8
000070
ENDCHAR
STARTCHAR C287c
ENCODING 10364
SWIDTH 400 0
DWIDTH 24 0
BBX 24 24 0 -2
BITMAP
300300
180308
181FFC
01180C
FF980C
00180C
001FFC
021800
3E180C
001FFE
00180E
7F180C
00180C
00180C
021FFC
7F11C0
6301C6
633FFF
6301C0
6301C0
6301C0
7F01C0
6201C0
000180
ENDCHAR
STARTCHAR C287d
ENCODING 10365
SWIDTH 400 0
DWIDTH 24 0
BBX 24 24 0 -2
BITMAP
301DC0
181DC0
18198C
0019FE
FE330C
003318
007598
0470F0
7CF060
00F0C0
00F1E0
7F7370
007466
0070FF
0070C7
FE7186
EE71CC
E6726C
E67438
E67030
E67060
FE70C0
C47100
006600
ENDCHAR
STARTCHAR C287e
ENCODING 10366
SWIDTH 400 0
DWIDTH 24 0
BBX 24 24 0 -2
BITMAP
300040
180E20
180E10
010C18
FF990C
001187
002307
024302
3E0610
000C08
001C7C
7F3FC4
001804
000100
0200E0
7F0E60
630E20
632E06
636E03
636E0B
63EE0B
7FCFF8
6207F8
0003F0
ENDCHAR
STARTCHAR C2921
ENCODING 10529
SWIDTH 400 0
DWIDTH 24 0
BBX 24 24 0 -2
BITMAP
300000
180840
180E60
000C20
FF1830
001818
001818
06300C
3E200F
007FFF
008002
7E0000
000000
002038
007FFC
7F76D8
6776D8
6676D8
6676D8
6676D8
6676D8
7E76D8
67FFFF
000000
ENDCHAR
STARTCHAR C2922
ENCODING 10530
SWIDTH 400 0
DWIDTH 24 0
BBX 24 24 0 -2
BITMAP
002000
7FF0E0
6300C0
6320C0
7FF0C0
6071F0
7FF198
63630C
63060C
7FEC04
602000
003802
FFFFFF
000000
000060
0FFFE0
000000
0FFFE0
000000
0C0060
0FFFF0
0C0060
0FFFE0
0C0060
ENDCHAR
STARTCHAR C2923
ENCODING 10531
SWIDTH 400 0
DWIDTH 24 0
BBX 24 24 0 -2
BITMAP
001800
7FFC08
186FFC
1FE21C
186338
1861F0
1FE0E0
1861F0
1FE3BF
FE6E0F
E07806
003802
FFFFFF
000000
000020
0FFFF0
000000
0FFFF0
000000
0C0030
0FFFF8
0C0030
0FFFF0
0C0030
ENDCHAR
STARTCHAR C2924
ENCODING 10532
SWIDTH 400 0
DWIDTH 24 0
BBX 24 24 0 -2
BITMAP
030C60
070C60
060C64
0CFFFC
1C0C60
2C0C60
4CFFFE
0C1C40
0C1870
0C6018
0C800C
003802
FFFFFF
000000
000020
0FFFF0
000000
0FFFF0
000000
0C0030
0FFFF8
0C0030
0FFFF0
0C0030
ENDCHAR
STARTCHAR C2925
ENCODING 10533
SWIDTH 400 0
DWIDTH 24 0
BBX 24 24 0 -2
BITMAP
000E1C
008E1C
FFCE18
000E18
003FFF
430E18
7F8E18
638E18
638FF8
638E18
638E18
3F0E18
000FF8
038E18
630E18
330E18
360E1B
143FFF
058E00
0F0E0C
FC1C06
603807
007003
00C003
ENDCHAR
STARTCHAR C2926
ENCODING 10534
SWIDTH 400 0
DWIDTH 24 0
BBX 24 24 0 -2
BITMAP
003800
101804
3FFFFE
30000E
76000C
672FF8
0FFE30
1C7E30
33EEF0
21CE63
030E06
0E07FF
3803FC
600006
7FFFFE
000020
1FFFF0
1C0030
1C0030
1FFFF0
0300E0
0181C0
018387
FFFFFF
ENDCHAR
STARTCHAR C2927
ENCODING 10535
SWIDTH 400 0
DWIDTH 24 0
BBX 24 24 0 -2
BITMAP
0700E0
0700E0
0620C6
7FF7FF
0600C0
0620C4
3FE7FE
0600C0
0600C2
FFF7FF
3600C0
0600C0
7FFFFE
000000
000000
1FFFF0
1C0030
1C0030
1FFFF0
0800C0
0300C0
018180
018387
FFFFFF
ENDCHAR
STARTCHAR C2928
ENCODING 10536
SWIDTH 400 0
DWIDTH 24 0
BBX 24 24 0 -2
BITMAP
060006
060FFE
062000
0FF008
1C77FC
1E760C
33E60C
61C7FC
06C018
3DC41C
638318
270332
1C1FFF
3100F0
438070
038060
0380E7
FFF3FF
030060
030060
060060
060060
0C0060
300040
ENDCHAR
STARTCHAR C2929
ENCODING 10537
SWIDTH 400 0
DWIDTH 24 0
BBX 24 24 0 -2
BITMAP
00003E
00D9FE
FFDF80
0C1806
0C1FFF
181807
381807
2C9C07
4CDFFE
8F9804
1F1B0E
3E1BFF
771B46
C79B36
0FDB1E
1EDB06
365B06
661B3E
C633E6
063346
066606
7E447E
1C881C
181008
ENDCHAR
STARTCHAR C292a
ENCODING 10538
SWIDTH 400 0
DWIDTH 24 0
BBX 24 24 0 -2
BITMAP
000000
00D007
FFDFFF
0C1807
0C1807
181807
381FFE
2C9860
4CD870
8F98F0
1F19CC
3E1B87
771F07
C79BFC
0FD800
1EF806
367FFE
66300E
C6301C
063338
0660F0
7E6070
1CC038
188018
ENDCHAR
STARTCHAR C292b
ENCODING 10539
SWIDTH 400 0
DWIDTH 24 0
BBX 24 24 0 -2
BITMAP
000000
038180
FFFF86
1C33FF
183347
183347
303347
39BF67
4DB367
9F3366
1E3326
363326
663F3C
CF373C
8FB33C
1EF31C
36F318
66333C
C67F3C
06F32C
0C6366
7C0367
3803C3
300383
ENDCHAR
STARTCHAR C292c
ENCODING 10540
SWIDTH 400 0
DWIDTH 24 0
BBX 24 24 0 -2
BITMAP
000004
00D80E
FFDFFF
0C1806
0C1806
181FFE
381806
2C9806
4CD806
8F9FFE
1F0000
3E1070
771C70
C79860
0FD962
1EFFFF
367870
661860
C61860
061861
061B61
7E1E7F
1C1C3F
18081E
ENDCHAR
STARTCHAR C292d
ENCODING 10541
SWIDTH 400 0
DWIDTH 24 0
BBX 24 24 0 -2
BITMAP
020700
470702
FFFFFF
E30600
E60C04
E60FFE
E40860
EC1060
EC2062
E45FFF
E60000
E30002
E33FFF
E38300
E3868E
E39DDC
E3B3F0
FF06F0
E61DF8
E4337C
E00667
E01FE3
E071C0
C00180
ENDCHAR
STARTCHAR C292e
ENCODING 10542
SWIDTH 400 0
DWIDTH 24 0
BBX 24 24 0 -2
BITMAP
0600C0
07FFE0
0600C0
0FFFC0
0401CC
7FFFFE
00F030
037860
3CECC0
039F00
0E3FC0
30CE7E
070E1E
38FC06
071870
060060
0F00F0
1FC1FC
37F37F
667667
860860
060060
060060
060060
ENDCHAR
STARTCHAR C292f
ENCODING 10543
SWIDTH 400 0
DWIDTH 24 0
BBX 24 24 0 -2
BITMAP
0E0004
1C180E
381FFF
7018C6
FD98C6
CF18C6
661FFE
3C18C6
1C18C6
3C18C6
661FFE
870000
0F0002
1BBFFF
338E0C
E78E0C
0D8E0C
198E0C
318C0C
C18C0C
03980C
3F380C
1E700C
04C008
ENDCHAR
STARTCHAR C2930
ENCODING 10544
SWIDTH 400 0
DWIDTH 24 0
BBX 24 24 0 -2
BITMAP
0C1C38
1C1C38
381832
7B9BFF
EF9830
F73030
3E3036
1C33FF
3C7337
767337
C6B337
0F3337
1BB3FF
33B336
67B030
CFB230
1FB160
3BB0E0
E3B060
0330F0
0730DC
7E318F
1C3307
183E03
ENDCHAR
STARTCHAR C2931
ENCODING 10545
SWIDTH 400 0
DWIDTH 24 0
BBX 24 24 0 -2
BITMAP
0E003E
1C01FE
383FC0
700107
FDB187
CF18CE
6618CC
3C0818
1C0080
3C00E0
6600C0
8700C2
0F1FFF
1B81E0
3383E0
E783F0
0D83D0
1986D8
318CCC
C188CE
0390C7
3F20C3
1E40C0
0400C0
ENDCHAR
STARTCHAR C2932
ENCODING 10546
SWIDTH 400 0
DWIDTH 24 0
BBX 24 24 0 -2
BITMAP
000338
638338
7FC338
619FFE
618338
618338
7F833A
61BFFF
618338
618638
618C10
7F8B10
6183B8
618338
619FFE
618338
7F8338
61833A
321FFF
338738
31C638
60C638
C0CC38
800830
ENDCHAR
STARTCHAR C2933
ENCODING 10547
SWIDTH 400 0
DWIDTH 24 0
BBX 24 24 0 -2
BITMAP
0001C0
6381C0
7FC1C2
61FFFF
6181C0
6191C8
7F99CC
6199CC
6199CC
61BDDE
61A7D3
7FE7F3
6183E1
6181C0
6183E0
6183F0
7F87F8
618DDC
3219CF
33B1C7
31C1C3
60C1C0
C0C1C0
800180
ENDCHAR
STARTCHAR C2934
ENCODING 10548
SWIDTH 400 0
DWIDTH 24 0
BBX 24 24 0 -2
BITMAP
0001C0
6381C0
7FC1C0
618360
618638
618C1C
7F980F
61B007
61FFFC
6181C0
6181C0
7F81C0
61BFFE
6181C0
6181C0
6181C0
7F91CC
619FFE
32180C
33980C
31D80C
60D80C
C0DFFC
80100C
ENDCHAR
STARTCHAR C2935
ENCODING 10549
SWIDTH 400 0
DWIDTH 24 0
BBX 24 24 0 -2
BITMAP
003000
001806
FFFFFF
060060
0300E0
218186
7FFFFF
E18186
C30180
8600FE
1C00E0
0FFFE0
0C0060
0C0060
0FFFE0
0C0060
0C0060
0FFFE0
0C0060
0C0060
0FFFE0
0E0070
18001C
60000C
ENDCHAR
STARTCHAR C2936
ENCODING 10550
SWIDTH 400 0
DWIDTH 24 0
BBX 24 24 0 -2
BITMAP
0C00C0
0C6067
FFE7FF
71819C
1F00F8
0E0070
1D80FF
30C30F
E07E07
000060
0FFFF0
0C0070
0C0060
0FFFE0
0C0060
0C0060
0FFFE0
0C0060
0C0060
0FFFE0
070060
0E0038
18001C
60000C
ENDCHAR
STARTCHAR C2937
ENCODING 10551
SWIDTH 400 0
DWIDTH 24 0
BBX 24 24 0 -2
BITMAP
000006
7FFFFF
001810
3FFFF8
3F3B1C
331998
33FBF8
3EFE78
385818
300038
0FFFF0
0C0030
0C0030
0FFFF0
0C0030
0C0030
0FFFF0
0C0030
0C0030
0FFFF0
0D01A0
03C0F8
1F003C
7C000C
ENDCHAR
STARTCHAR C2938
ENCODING 10552
SWIDTH 400 0
DWIDTH 24 0
BBX 24 24 0 -2
BITMAP
006384
00618E
3FFFFE
0039F8
001F81
00FFE3
3FF77F
7C739E
7FFFFC
0019F9
000F81
00FFE3
1FC0FF
FC003F
0FFFF0
0FFFF0
0C0030
0FFFF0
0C0030
0C0030
0FFFE0
0E0078
18000C
600006
ENDCHAR
STARTCHAR C2939
ENCODING 10553
SWIDTH 400 0
DWIDTH 24 0
BBX 24 24 0 -2
BITMAP
0383E0
038330
07031A
0EFFFF
1E7F00
767981
C630C1
06307B
04FC3F
040026
07FFF0
060030
060030
07FFF0
060030
060030
07FFF0
060030
060030
07FFF0
0501A0
0780F8
1E003C
78000E
ENDCHAR
STARTCHAR C293a
ENCODING 10554
SWIDTH 400 0
DWIDTH 24 0
BBX 24 24 0 -2
BITMAP
060000
061807
061FFF
061807
7FD807
061FFF
061802
061860
06D870
7FF860
1B9D63
1B9F6F
7B9860
7BD860
7BF860
DBF860
DBBFEF
9B9860
339860
339861
339861
23B07F
6F603F
C3401E
ENDCHAR
STARTCHAR C293b
ENCODING 10555
SWIDTH 400 0
DWIDTH 24 0
BBX 24 24 0 -2
BITMAP
1C0338
1C3338
1C1A38
1C7F3A
1C367F
7E163F
1C163F
1C163F
1C163F
FF7F3F
1C363F
1C163F
1C163F
FC1637
FD1637
FF3637
FC3667
FC2667
FC66DE
FCC78C
FC8100
DFFFFF
8FFFFF
83FFFC
ENDCHAR
STARTCHAR C293c
ENCODING 10556
SWIDTH 400 0
DWIDTH 24 0
BBX 24 24 0 -2
BITMAP
060000
0601C0
0609DC
060DDC
0E47F8
7FC7F0
060FFE
0601C0
060182
FFFFFF
0E0330
06061C
060FFF
761B3F
665338
67E3F0
660322
660306
6603FE
7E03FE
CE01FC
C7FFFF
83FFFC
80FFF8
ENDCHAR
STARTCHAR C293d
ENCODING 10557
SWIDTH 400 0
DWIDTH 24 0
BBX 24 24 0 -2
BITMAP
0E0006
0E0FFE
0C0000
0C0000
0C8007
7F8FFF
0C0060
0C076C
0C8666
FFCC63
0C1863
0C1045
0C0FFE
7C0E06
6C8E06
6FCE06
6C0E06
6C0E06
6C0FFE
7C0404
CE0000
C7FFFF
83FFFF
80FFFC
ENDCHAR
STARTCHAR C293e
ENCODING 10558
SWIDTH 400 0
DWIDTH 24 0
BBX 24 24 0 -2
BITMAP
0E0006
0E1FFF
0C1807
0C1807
0C9C07
7F9FFE
0C19D8
0C19CC
0C9987
FFDB07
0C1FC2
0C19CC
0C19FE
7C198C
6C9BCC
6FDE78
6C1030
6C3060
6C61C0
7CC300
CE8E00
C7FFFF
83FFFF
80FFFC
ENDCHAR
ENDFONT
